<?xml version="1.0" encoding="utf-8"?>
<!-- Generator: Adobe Illustrator 25.2.1, SVG Export Plug-In . SVG Version: 6.00 Build 0)  -->
<svg version="1.1" id="Capa_1" xmlns="http://www.w3.org/2000/svg" xmlns:xlink="http://www.w3.org/1999/xlink" x="0px" y="0px"
	 viewBox="0 0 1207.92 828.36" style="enable-background:new 0 0 1207.92 828.36;" xml:space="preserve">
<style type="text/css">
	.st0{opacity:0.24;}
	.st1{fill:#8E0F06;}
	.st2{fill:#FFF0F0;}
	.st3{fill:#FFF0F0;stroke:#8E0F06;stroke-width:2;stroke-miterlimit:10;}
	.st4{fill:none;stroke:#8E0001;stroke-width:3;stroke-linecap:round;stroke-dasharray:10,10;}
</style>
<g class="st0">
	<path class="st1" d="M1182.48,746.56c0-14.33,11.38-25.97,25.54-26.28V690.4c-14.16-0.32-25.54-11.95-25.54-26.28
		c0-14.33,11.38-25.97,25.54-26.28v-29.88c-14.16-0.32-25.54-11.95-25.54-26.28c0-14.33,11.38-25.97,25.54-26.28v-29.88
		c-14.16-0.32-25.54-11.95-25.54-26.28c0-14.33,11.38-25.97,25.54-26.28v-29.88c-14.16-0.32-25.54-11.95-25.54-26.28
		c0-14.33,11.38-25.97,25.54-26.28v-29.88c-14.16-0.32-25.54-11.95-25.54-26.28c0-14.33,11.38-25.97,25.54-26.28v-29.88
		c-14.16-0.32-25.54-11.95-25.54-26.28c0-14.33,11.38-25.97,25.54-26.28v-29.88c-14.16-0.32-25.54-11.95-25.54-26.28
		c0-14.33,11.38-25.97,25.54-26.28v-29.92c-14.16-0.32-25.54-11.95-25.54-26.28c0-14.33,11.38-25.97,25.54-26.28V6.11h-43.69
		c-1.39,13.2-12.48,23.48-25.96,23.48c-13.47,0-24.56-10.28-25.96-23.48h-29.9c-1.4,13.2-12.49,23.48-25.96,23.48
		c-13.48,0-24.57-10.28-25.96-23.48h-29.91c-1.4,13.2-12.49,23.48-25.96,23.48c-13.47,0-24.56-10.28-25.96-23.48h-29.91
		c-1.4,13.2-12.49,23.48-25.96,23.48c-13.47,0-24.55-10.28-25.95-23.48h-29.91c-1.4,13.2-12.49,23.48-25.96,23.48
		c-13.47,0-24.55-10.28-25.96-23.48h-29.91c-1.4,13.2-12.49,23.48-25.96,23.48c-13.47,0-24.56-10.28-25.96-23.48h-29.91
		c-1.4,13.2-12.49,23.48-25.96,23.48c-13.47,0-24.56-10.28-25.96-23.48h-29.91c-1.4,13.2-12.49,23.48-25.96,23.48
		c-13.47,0-24.54-10.28-25.94-23.48H509.7c-1.4,13.2-12.49,23.48-25.96,23.48c-13.47,0-24.56-10.28-25.96-23.48h-29.91
		c-1.4,13.2-12.49,23.48-25.96,23.48c-13.47,0-24.56-10.28-25.96-23.48h-29.91c-1.4,13.2-12.49,23.48-25.96,23.48
		s-24.55-10.28-25.95-23.48h-29.91c-1.4,13.2-12.49,23.48-25.96,23.48c-13.47,0-24.56-10.28-25.96-23.48h-29.91
		c-1.4,13.2-12.49,23.48-25.96,23.48s-24.55-10.28-25.95-23.48h-29.91c-1.4,13.2-12.49,23.48-25.96,23.48S50.03,19.32,48.63,6.11
		H0.05v54.7C13.51,61.87,24.1,73.2,24.1,87.02s-10.59,25.15-24.06,26.21v30.02c13.46,1.06,24.06,12.38,24.06,26.21
		c0,13.82-10.59,25.15-24.06,26.21v30.02c13.46,1.06,24.06,12.38,24.06,26.21c0,13.83-10.59,25.15-24.06,26.21v30.02
		c13.46,1.06,24.06,12.38,24.06,26.21c0,13.82-10.59,25.15-24.06,26.21v30.02c13.46,1.06,24.06,12.38,24.06,26.21
		c0,13.82-10.59,25.15-24.06,26.21V473c13.46,1.06,24.06,12.38,24.06,26.21c0,13.83-10.59,25.15-24.06,26.21v30.02
		c13.46,1.06,24.06,12.38,24.06,26.21c0,13.83-10.59,25.15-24.06,26.21v30.02c13.46,1.06,24.06,12.38,24.06,26.21
		c0,13.82-10.59,25.15-24.06,26.21v30.02c13.46,1.06,24.06,12.38,24.06,26.21c0,13.83-10.59,25.18-24.06,26.25v55.48h48.61
		c1.47-13.13,12.51-23.34,25.94-23.34s24.47,10.21,25.94,23.34h29.95c1.47-13.13,12.51-23.34,25.94-23.34
		c13.43,0,24.47,10.21,25.94,23.34h29.95c1.47-13.13,12.51-23.34,25.94-23.34c13.43,0,24.47,10.21,25.94,23.34h29.95
		c1.47-13.13,12.51-23.34,25.94-23.34c13.43,0,24.47,10.21,25.94,23.34h29.95c1.47-13.13,12.51-23.34,25.94-23.34
		c13.43,0,24.47,10.21,25.94,23.34h29.95c1.47-13.13,12.51-23.34,25.94-23.34c13.43,0,24.47,10.21,25.94,23.34h29.95
		c1.47-13.13,12.51-23.34,25.94-23.34c13.43,0,24.47,10.21,25.94,23.34h29.95c1.47-13.13,12.51-23.34,25.94-23.34
		c13.43,0,24.47,10.21,25.94,23.34h29.95c1.47-13.13,12.51-23.34,25.94-23.34c13.43,0,24.47,10.21,25.94,23.34h29.95
		c1.47-13.13,12.51-23.34,25.94-23.34c13.43,0,24.47,10.21,25.94,23.34h29.95c1.47-13.13,12.51-23.34,25.94-23.34
		c13.43,0,24.47,10.21,25.94,23.34h29.95c1.47-13.13,12.51-23.34,25.94-23.34c13.43,0,24.47,10.21,25.93,23.34h29.95
		c1.47-13.13,12.51-23.34,25.93-23.34c13.43,0,24.47,10.21,25.94,23.34h29.94c1.47-13.13,12.51-23.34,25.94-23.34
		s24.47,10.21,25.94,23.34h43.71v-55.4C1193.86,772.52,1182.48,760.89,1182.48,746.56z"/>
</g>
<g>
	<g>
		<path class="st2" d="M1182.48,740.77c0-14.34,11.38-25.98,25.54-26.29v-29.9c-14.16-0.32-25.54-11.95-25.54-26.29
			c0-14.34,11.38-25.98,25.54-26.29v-29.9c-14.16-0.32-25.54-11.95-25.54-26.29c0-14.34,11.38-25.98,25.54-26.29v-29.9
			c-14.16-0.32-25.54-11.95-25.54-26.29c0-14.34,11.38-25.98,25.54-26.29v-29.9c-14.16-0.32-25.54-11.95-25.54-26.29
			c0-14.34,11.38-25.98,25.54-26.29v-29.9c-14.16-0.32-25.54-11.95-25.54-26.29c0-14.34,11.38-25.98,25.54-26.29v-29.9
			c-14.16-0.32-25.54-11.95-25.54-26.29c0-14.34,11.38-25.98,25.54-26.29v-29.9c-14.16-0.32-25.54-11.95-25.54-26.29
			c0-14.34,11.38-25.98,25.54-26.29v-29.93c-14.16-0.32-25.54-11.95-25.54-26.29s11.38-25.98,25.54-26.29V0h-43.69
			c-1.39,13.21-12.48,23.49-25.96,23.49c-13.47,0-24.56-10.28-25.96-23.49h-29.91c-1.4,13.21-12.49,23.49-25.96,23.49
			c-13.48,0-24.57-10.28-25.96-23.49h-29.92c-1.4,13.21-12.49,23.49-25.96,23.49c-13.48,0-24.56-10.28-25.96-23.49h-29.91
			c-1.4,13.21-12.49,23.49-25.96,23.49c-13.47,0-24.55-10.28-25.95-23.49H837c-1.4,13.21-12.49,23.49-25.96,23.49
			c-13.48,0-24.55-10.28-25.96-23.49h-29.91c-1.4,13.21-12.49,23.49-25.96,23.49c-13.47,0-24.56-10.28-25.96-23.49h-29.91
			c-1.4,13.21-12.49,23.49-25.96,23.49S622.8,13.21,621.4,0h-29.91c-1.4,13.21-12.49,23.49-25.96,23.49
			c-13.48,0-24.54-10.28-25.94-23.49h-29.91c-1.4,13.21-12.49,23.49-25.96,23.49c-13.48,0-24.56-10.28-25.96-23.49h-29.91
			c-1.4,13.21-12.49,23.49-25.96,23.49c-13.47,0-24.56-10.28-25.96-23.49H346c-1.4,13.21-12.49,23.49-25.96,23.49
			S295.49,13.21,294.09,0h-29.91c-1.4,13.21-12.49,23.49-25.96,23.49c-13.47,0-24.56-10.28-25.96-23.49h-29.91
			c-1.4,13.21-12.49,23.49-25.96,23.49S131.82,13.21,130.42,0h-29.91c-1.4,13.21-12.49,23.49-25.96,23.49S49.98,13.21,48.59,0H0
			v54.73c13.46,1.06,24.06,12.39,24.06,26.22c0,13.83-10.59,25.16-24.06,26.22v30.04c13.46,1.06,24.06,12.39,24.06,26.22
			c0,13.83-10.59,25.16-24.06,26.22v30.04c13.46,1.06,24.06,12.39,24.06,26.22c0,13.83-10.59,25.16-24.06,26.22v30.04
			c13.46,1.06,24.06,12.39,24.06,26.22c0,13.83-10.59,25.16-24.06,26.22v30.04c13.46,1.06,24.06,12.39,24.06,26.22
			c0,13.83-10.59,25.16-24.06,26.22v30.04c13.46,1.06,24.06,12.39,24.06,26.22c0,13.83-10.59,25.16-24.06,26.22v30.04
			c13.46,1.06,24.06,12.39,24.06,26.22c0,13.83-10.59,25.16-24.06,26.22v30.04c13.46,1.06,24.06,12.39,24.06,26.22
			c0,13.83-10.59,25.16-24.06,26.22v30.04c13.46,1.06,24.06,12.39,24.06,26.22c0,13.83-10.59,25.2-24.06,26.26v55.5h48.61
			c1.47-13.14,12.51-23.35,25.94-23.35s24.47,10.21,25.94,23.35h29.95c1.47-13.14,12.51-23.35,25.94-23.35
			c13.43,0,24.47,10.21,25.94,23.35h29.95c1.47-13.14,12.51-23.35,25.94-23.35c13.43,0,24.47,10.21,25.94,23.35h29.95
			c1.47-13.14,12.51-23.35,25.94-23.35c13.43,0,24.47,10.21,25.94,23.35h29.95c1.47-13.14,12.51-23.35,25.94-23.35
			c13.43,0,24.47,10.21,25.94,23.35h29.95c1.47-13.14,12.51-23.35,25.94-23.35c13.43,0,24.47,10.21,25.94,23.35h29.95
			c1.47-13.14,12.51-23.35,25.94-23.35c13.43,0,24.47,10.21,25.94,23.35h29.95c1.47-13.14,12.51-23.35,25.94-23.35
			c13.43,0,24.47,10.21,25.94,23.35h29.95c1.47-13.14,12.51-23.35,25.94-23.35c13.43,0,24.47,10.21,25.94,23.35h29.95
			c1.47-13.14,12.51-23.35,25.94-23.35c13.43,0,24.47,10.21,25.94,23.35h29.95c1.47-13.14,12.51-23.35,25.94-23.35
			c13.43,0,24.47,10.21,25.94,23.35h29.95c1.47-13.14,12.51-23.35,25.94-23.35c13.43,0,24.47,10.21,25.93,23.35h29.96
			c1.47-13.14,12.51-23.35,25.93-23.35c13.43,0,24.47,10.21,25.94,23.35h29.95c1.47-13.14,12.51-23.35,25.94-23.35
			c13.43,0,24.47,10.21,25.94,23.35h43.71v-55.42C1193.87,766.74,1182.48,755.11,1182.48,740.77z"/>
	</g>
	<path class="st3" d="M1123.54,85.06H89.93v649.93h1033.61V85.06z"/>
	<rect x="73.06" y="67.04" class="st4" width="1064.9" height="685.4"/>
</g>
</svg>
