<?xml version="1.0" encoding="utf-8"?>
<!-- Generator: Adobe Illustrator 25.2.1, SVG Export Plug-In . SVG Version: 6.00 Build 0)  -->
<svg version="1.1" id="Capa_1" xmlns="http://www.w3.org/2000/svg" xmlns:xlink="http://www.w3.org/1999/xlink" x="0px" y="0px"
	 viewBox="0 0 1207 828.36" style="enable-background:new 0 0 1207 828.36;" xml:space="preserve">
<style type="text/css">
	.st0{fill:#8E0F06;}
	.st1{opacity:0.24;}
	.st2{fill:none;stroke:#DA5861;stroke-width:5;}
	.st3{fill:none;stroke:#DA5861;stroke-width:5;stroke-miterlimit:10;}
	.st4{fill:#DA5861;}
	.st5{fill:#F9C5C6;}
</style>
<g>
	<path class="st0" d="M1181.48,740.34c0-14.33,11.37-25.97,25.52-26.27v-29.88c-14.15-0.32-25.52-11.95-25.52-26.27
		c0-14.33,11.37-25.97,25.52-26.27v-29.88c-14.15-0.32-25.52-11.94-25.52-26.27c0-14.33,11.37-25.97,25.52-26.27v-29.88
		c-14.15-0.32-25.52-11.94-25.52-26.27c0-14.33,11.37-25.97,25.52-26.27v-29.88c-14.15-0.32-25.52-11.95-25.52-26.27
		c0-14.33,11.37-25.97,25.52-26.27v-29.88c-14.15-0.32-25.52-11.94-25.52-26.27c0-14.33,11.37-25.97,25.52-26.27v-29.88
		c-14.15-0.32-25.52-11.94-25.52-26.27c0-14.33,11.37-25.97,25.52-26.27v-29.88c-14.15-0.32-25.52-11.94-25.52-26.27
		c0-14.33,11.37-25.97,25.52-26.27v-29.91c-14.15-0.32-25.52-11.94-25.52-26.27c0-14.33,11.37-25.97,25.52-26.27V0h-43.65
		c-1.39,13.2-12.47,23.48-25.94,23.48c-13.46,0-24.54-10.28-25.94-23.48h-29.88c-1.4,13.2-12.48,23.48-25.94,23.48
		c-13.47,0-24.55-10.28-25.94-23.48h-29.89c-1.4,13.2-12.48,23.48-25.94,23.48c-13.46,0-24.54-10.28-25.94-23.48h-29.89
		c-1.4,13.2-12.48,23.48-25.94,23.48c-13.46,0-24.53-10.28-25.93-23.48h-29.89c-1.4,13.2-12.48,23.48-25.94,23.48
		c-13.46,0-24.53-10.28-25.94-23.48h-29.89c-1.4,13.2-12.48,23.48-25.94,23.48c-13.46,0-24.54-10.28-25.94-23.48h-29.89
		c-1.4,13.2-12.48,23.48-25.94,23.48c-13.46,0-24.54-10.28-25.94-23.48h-29.89c-1.4,13.2-12.48,23.48-25.94,23.48
		c-13.46,0-24.52-10.28-25.92-23.48h-29.89c-1.4,13.2-12.48,23.48-25.94,23.48c-13.46,0-24.54-10.28-25.94-23.48h-29.89
		c-1.4,13.2-12.48,23.48-25.94,23.48c-13.46,0-24.54-10.28-25.94-23.48h-29.89c-1.4,13.2-12.48,23.48-25.94,23.48
		c-13.46,0-24.53-10.28-25.93-23.48h-29.89c-1.4,13.2-12.48,23.48-25.94,23.48c-13.46,0-24.54-10.28-25.94-23.48h-29.89
		c-1.4,13.2-12.48,23.48-25.94,23.48S131.71,13.2,130.31,0h-29.89c-1.4,13.2-12.48,23.48-25.94,23.48S49.94,13.2,48.54,0H0v54.7
		c13.45,1.06,24.04,12.38,24.04,26.2S13.45,106.04,0,107.1v30.02c13.45,1.06,24.04,12.38,24.04,26.2c0,13.82-10.59,25.14-24.04,26.2
		v30.02c13.45,1.06,24.04,12.38,24.04,26.2c0,13.82-10.59,25.15-24.04,26.2v30.02c13.45,1.06,24.04,12.38,24.04,26.2
		c0,13.82-10.59,25.15-24.04,26.2v30.02c13.45,1.06,24.04,12.38,24.04,26.2c0,13.82-10.59,25.14-24.04,26.2v30.02
		c13.45,1.06,24.04,12.38,24.04,26.2c0,13.82-10.59,25.15-24.04,26.2v30.02c13.45,1.06,24.04,12.38,24.04,26.2
		c0,13.82-10.59,25.15-24.04,26.2v30.02c13.45,1.06,24.04,12.38,24.04,26.2c0,13.82-10.59,25.15-24.04,26.2v30.02
		c13.45,1.06,24.04,12.38,24.04,26.2c0,13.82-10.59,25.18-24.04,26.25v55.47h48.57c1.47-13.13,12.5-23.34,25.92-23.34
		s24.45,10.21,25.92,23.34h29.92c1.47-13.13,12.5-23.34,25.92-23.34c13.42,0,24.45,10.21,25.92,23.34h29.92
		c1.47-13.13,12.5-23.34,25.92-23.34c13.42,0,24.45,10.21,25.92,23.34h29.92c1.47-13.13,12.5-23.34,25.92-23.34
		c13.42,0,24.45,10.21,25.92,23.34h29.92c1.47-13.13,12.5-23.34,25.92-23.34c13.42,0,24.45,10.21,25.92,23.34h29.92
		c1.47-13.13,12.5-23.34,25.92-23.34c13.42,0,24.45,10.21,25.92,23.34h29.92c1.47-13.13,12.5-23.34,25.92-23.34
		c13.42,0,24.45,10.21,25.92,23.34h29.92c1.47-13.13,12.5-23.34,25.92-23.34c13.42,0,24.45,10.21,25.92,23.34h29.92
		c1.47-13.13,12.5-23.34,25.92-23.34c13.42,0,24.45,10.21,25.92,23.34h29.92c1.47-13.13,12.5-23.34,25.92-23.34
		c13.42,0,24.45,10.21,25.92,23.34h29.92c1.47-13.13,12.5-23.34,25.92-23.34c13.42,0,24.45,10.21,25.92,23.34h29.92
		c1.47-13.13,12.5-23.34,25.92-23.34c13.42,0,24.45,10.21,25.91,23.34h29.93c1.47-13.13,12.5-23.34,25.91-23.34
		c13.42,0,24.45,10.21,25.92,23.34h29.92c1.47-13.13,12.5-23.34,25.92-23.34c13.42,0,24.45,10.21,25.92,23.34h43.67v-55.39
		C1192.85,766.29,1181.48,754.67,1181.48,740.34z"/>
</g>
<g class="st1">
	<path class="st0" d="M1181.48,746.68c0-14.33,11.37-25.97,25.52-26.27v-29.88c-14.15-0.32-25.52-11.95-25.52-26.27
		c0-14.33,11.37-25.97,25.52-26.27v-29.88c-14.15-0.32-25.52-11.94-25.52-26.27c0-14.33,11.37-25.97,25.52-26.27v-29.88
		c-14.15-0.32-25.52-11.94-25.52-26.27c0-14.33,11.37-25.97,25.52-26.27v-29.88c-14.15-0.32-25.52-11.95-25.52-26.27
		c0-14.33,11.37-25.97,25.52-26.27v-29.88c-14.15-0.32-25.52-11.94-25.52-26.27c0-14.33,11.37-25.97,25.52-26.27v-29.88
		c-14.15-0.32-25.52-11.94-25.52-26.27c0-14.33,11.37-25.97,25.52-26.27v-29.88c-14.15-0.32-25.52-11.94-25.52-26.27
		c0-14.33,11.37-25.97,25.52-26.27v-29.91c-14.15-0.32-25.52-11.94-25.52-26.27c0-14.33,11.37-25.97,25.52-26.27V6.34h-43.65
		c-1.39,13.2-12.47,23.48-25.94,23.48c-13.46,0-24.54-10.28-25.94-23.48h-29.88c-1.4,13.2-12.48,23.48-25.94,23.48
		c-13.47,0-24.55-10.28-25.94-23.48h-29.89c-1.4,13.2-12.48,23.48-25.94,23.48c-13.46,0-24.54-10.28-25.94-23.48h-29.89
		c-1.4,13.2-12.48,23.48-25.94,23.48c-13.46,0-24.53-10.28-25.93-23.48h-29.89c-1.4,13.2-12.48,23.48-25.94,23.48
		c-13.46,0-24.53-10.28-25.94-23.48h-29.89c-1.4,13.2-12.48,23.48-25.94,23.48c-13.46,0-24.54-10.28-25.94-23.48h-29.89
		c-1.4,13.2-12.48,23.48-25.94,23.48c-13.46,0-24.54-10.28-25.94-23.48h-29.89c-1.4,13.2-12.48,23.48-25.94,23.48
		c-13.46,0-24.52-10.28-25.92-23.48h-29.89c-1.4,13.2-12.48,23.48-25.94,23.48c-13.46,0-24.54-10.28-25.94-23.48h-29.89
		c-1.4,13.2-12.48,23.48-25.94,23.48c-13.46,0-24.54-10.28-25.94-23.48h-29.89c-1.4,13.2-12.48,23.48-25.94,23.48
		c-13.46,0-24.53-10.28-25.93-23.48h-29.89c-1.4,13.2-12.48,23.48-25.94,23.48c-13.46,0-24.54-10.28-25.94-23.48h-29.89
		c-1.4,13.2-12.48,23.48-25.94,23.48s-24.53-10.28-25.93-23.48h-29.89c-1.4,13.2-12.48,23.48-25.94,23.48S49.94,19.54,48.54,6.34H0
		v54.7c13.45,1.06,24.04,12.38,24.04,26.2S13.45,112.39,0,113.44v30.02c13.45,1.06,24.04,12.38,24.04,26.2
		c0,13.82-10.59,25.14-24.04,26.2v30.02c13.45,1.06,24.04,12.38,24.04,26.2c0,13.82-10.59,25.15-24.04,26.2v30.02
		c13.45,1.06,24.04,12.38,24.04,26.2c0,13.82-10.59,25.15-24.04,26.2v30.02c13.45,1.06,24.04,12.38,24.04,26.2
		c0,13.82-10.59,25.14-24.04,26.2v30.02c13.45,1.06,24.04,12.38,24.04,26.2c0,13.82-10.59,25.15-24.04,26.2v30.02
		c13.45,1.06,24.04,12.38,24.04,26.2c0,13.82-10.59,25.15-24.04,26.2v30.02c13.45,1.06,24.04,12.38,24.04,26.2
		c0,13.82-10.59,25.15-24.04,26.2v30.02c13.45,1.06,24.04,12.38,24.04,26.2c0,13.82-10.59,25.18-24.04,26.25v55.47h48.57
		c1.47-13.13,12.5-23.34,25.92-23.34s24.45,10.21,25.92,23.34h29.92c1.47-13.13,12.5-23.34,25.92-23.34
		c13.42,0,24.45,10.21,25.92,23.34h29.92c1.47-13.13,12.5-23.34,25.92-23.34c13.42,0,24.45,10.21,25.92,23.34h29.92
		c1.47-13.13,12.5-23.34,25.92-23.34c13.42,0,24.45,10.21,25.92,23.34h29.92c1.47-13.13,12.5-23.34,25.92-23.34
		c13.42,0,24.45,10.21,25.92,23.34h29.92c1.47-13.13,12.5-23.34,25.92-23.34c13.42,0,24.45,10.21,25.92,23.34h29.92
		c1.47-13.13,12.5-23.34,25.92-23.34c13.42,0,24.45,10.21,25.92,23.34h29.92c1.47-13.13,12.5-23.34,25.92-23.34
		c13.42,0,24.45,10.21,25.92,23.34h29.92c1.47-13.13,12.5-23.34,25.92-23.34c13.42,0,24.45,10.21,25.92,23.34h29.92
		c1.47-13.13,12.5-23.34,25.92-23.34c13.42,0,24.45,10.21,25.92,23.34h29.92c1.47-13.13,12.5-23.34,25.92-23.34
		c13.42,0,24.45,10.21,25.92,23.34h29.92c1.47-13.13,12.5-23.34,25.92-23.34c13.42,0,24.45,10.21,25.91,23.34h29.93
		c1.47-13.13,12.5-23.34,25.91-23.34c13.42,0,24.45,10.21,25.92,23.34h29.92c1.47-13.13,12.5-23.34,25.92-23.34
		c13.42,0,24.45,10.21,25.92,23.34h43.67v-55.39C1192.85,772.64,1181.48,761.01,1181.48,746.68z"/>
</g>
<path class="st2" d="M1177,795c-10.95-16.6-42.07-39.84-79,0"/>
<path class="st2" d="M1098,795.09c-11.36-16.6-43.67-39.84-82,0"/>
<path class="st2" d="M1016,795.09c-11.36-16.6-43.67-39.84-82,0"/>
<path class="st2" d="M934,795.09c-11.36-16.6-43.67-39.84-82,0"/>
<path class="st2" d="M852,795.09c-11.36-16.6-43.67-39.84-82,0"/>
<path class="st2" d="M770,795.09c-11.36-16.6-43.67-39.84-82,0"/>
<path class="st2" d="M688,795.09c-11.36-16.6-43.67-39.84-82,0"/>
<path class="st2" d="M606,795.09c-11.36-16.6-43.67-39.84-82,0"/>
<path class="st2" d="M524,795.09c-11.36-16.6-43.67-39.84-82,0"/>
<path class="st2" d="M442,795.09c-11.36-16.6-43.67-39.84-82,0"/>
<path class="st2" d="M360,795.09c-11.36-16.6-43.67-39.84-82,0"/>
<path class="st2" d="M278,795.09c-11.36-16.6-43.67-39.84-82,0"/>
<path class="st2" d="M196,795.09c-11.36-16.6-43.67-39.84-82,0"/>
<path class="st2" d="M114,795.09c-11.36-16.6-43.67-39.84-82,0"/>
<path class="st3" d="M24,26c12.33,16.67,47.4,40,89,0c11.36,16.6,43.67,39.84,82,0c11.36,16.6,43.67,39.84,82,0
	c11.36,16.6,43.67,39.84,82,0c11.36,16.6,43.67,39.84,82,0c11.36,16.6,43.67,39.84,82,0c11.36,16.6,43.67,39.84,82,0
	c11.36,16.6,43.67,39.84,82,0c11.36,16.6,43.67,39.84,82,0c11.36,16.6,43.67,39.84,82,0c11.36,16.6,43.67,39.84,82,0
	c11.36,16.6,43.67,39.84,82,0c11.36,16.6,43.67,39.84,82,0c11.36,16.6,43.67,39.84,82,0"/>
<path class="st2" d="M29,33c16.67,12.33,40,47.4,0,89"/>
<path class="st2" d="M29,122c16.6,11.78,39.84,45.27,0,85"/>
<path class="st2" d="M29,207c16.6,11.36,39.84,43.67,0,82"/>
<path class="st2" d="M29,289c16.6,11.36,39.84,43.67,0,82"/>
<path class="st2" d="M29,371c16.6,11.36,39.84,43.67,0,82"/>
<path class="st2" d="M29,453c16.6,11.36,39.84,43.67,0,82"/>
<path class="st2" d="M29,535c16.6,11.36,39.84,43.67,0,82"/>
<path class="st2" d="M29,617c16.6,11.36,39.84,43.67,0,82"/>
<path class="st2" d="M29,699c16.6,12.75,39.84,49,0,92"/>
<path class="st2" d="M1177.09,33c-16.67,12.33-40,47.4,0,89"/>
<path class="st2" d="M1177.09,122c-16.61,11.78-39.85,45.27,0,85"/>
<path class="st2" d="M1177.09,207c-16.61,11.36-39.85,43.67,0,82"/>
<path class="st2" d="M1177.09,289c-16.61,11.36-39.85,43.67,0,82"/>
<path class="st2" d="M1177.09,371c-16.61,11.36-39.85,43.67,0,82"/>
<path class="st2" d="M1177.09,453c-16.61,11.36-39.85,43.67,0,82"/>
<path class="st2" d="M1177.09,535c-16.61,11.36-39.85,43.67,0,82"/>
<path class="st2" d="M1177.09,617c-16.61,11.36-39.85,43.67,0,82"/>
<path class="st2" d="M1177.09,699c-16.61,12.75-39.85,49,0,92"/>
<circle class="st4" cx="1183.6" cy="794.24" r="11.31"/>
<circle class="st4" cx="1181.18" cy="28.15" r="11.31"/>
<circle class="st4" cx="24.31" cy="27.66" r="11.31"/>
<circle class="st4" cx="27.23" cy="791.93" r="11.31"/>
<path class="st5" d="M289.84,450.2c0-4.28,0.82-7.89,2.45-10.81c1.63-2.99,3.67-5.51,6.12-7.55c2.45-2.04,5.1-3.67,7.96-4.9
	c2.86-1.22,5.51-2.18,7.96-2.86c2.45-0.75,4.49-1.33,6.12-1.73c1.63-0.41,2.45-0.82,2.45-1.22c0-0.68-0.78-1.22-2.35-1.63
	s-3.54-0.82-5.92-1.22c-2.38-0.48-4.93-1.05-7.65-1.73c-2.72-0.75-5.27-1.8-7.65-3.16c-2.38-1.43-4.35-3.23-5.92-5.41
	c-1.56-2.18-2.35-4.96-2.35-8.36c0-4.42,0.95-7.96,2.86-10.61c1.97-2.65,4.49-4.69,7.55-6.12c3.06-1.5,6.43-2.48,10.1-2.96
	c3.67-0.48,7.24-0.71,10.71-0.71c2.99,0,6.39,0.2,10.2,0.61c3.88,0.41,7.55,1.26,11.02,2.55c3.47,1.22,6.39,3.03,8.77,5.41
	c2.38,2.31,3.57,5.41,3.57,9.28c0,1.22-0.27,2.35-0.82,3.37c-0.48,1.02-1.16,1.9-2.04,2.65c-0.82,0.75-1.77,1.36-2.86,1.84
	c-1.09,0.41-2.21,0.61-3.37,0.61c-2.45,0-4.39-0.51-5.81-1.53c-1.36-1.09-2.48-2.41-3.37-3.98c-0.82-1.56-1.5-3.23-2.04-5
	c-0.54-1.84-1.22-3.54-2.04-5.1c-0.75-1.56-1.77-2.86-3.06-3.88c-1.22-1.09-2.96-1.63-5.2-1.63c-1.9,0-3.64,0.48-5.2,1.43
	c-1.56,0.88-2.92,2.07-4.08,3.57c-1.09,1.43-1.94,3.06-2.55,4.9c-0.61,1.77-0.92,3.54-0.92,5.3c0,2.38,0.34,4.39,1.02,6.02
	c0.75,1.63,1.67,3.03,2.75,4.18c1.09,1.09,2.24,2.04,3.47,2.86c1.22,0.82,2.38,1.63,3.47,2.45c1.09,0.82,1.97,1.73,2.65,2.75
	c0.75,1.02,1.12,2.28,1.12,3.77c0,1.36-0.41,2.62-1.22,3.77c-0.75,1.09-1.73,2.21-2.96,3.37c-1.16,1.09-2.41,2.28-3.77,3.57
	c-1.36,1.29-2.65,2.82-3.88,4.59c-1.16,1.7-2.14,3.74-2.96,6.12c-0.75,2.31-1.12,5.1-1.12,8.36c0,2.38,0.2,4.59,0.61,6.63
	c0.48,1.97,1.26,3.71,2.35,5.2c1.09,1.43,2.55,2.55,4.39,3.37c1.84,0.82,4.18,1.22,7.04,1.22c2.24,0,3.98-0.51,5.2-1.53
	c1.29-1.09,2.31-2.41,3.06-3.98c0.82-1.56,1.5-3.23,2.04-5c0.54-1.84,1.22-3.54,2.04-5.1c0.88-1.56,2.01-2.86,3.37-3.88
	c1.43-1.09,3.37-1.63,5.81-1.63c1.16,0,2.28,0.24,3.37,0.71c1.09,0.41,2.04,0.99,2.86,1.73c0.88,0.75,1.56,1.63,2.04,2.65
	c0.54,1.02,0.82,2.14,0.82,3.37c0,3.88-1.19,7-3.57,9.38c-2.38,2.31-5.3,4.11-8.77,5.41c-3.47,1.22-7.14,2.04-11.02,2.45
	c-3.88,0.41-7.28,0.61-10.2,0.61c-4.01,0-7.99-0.31-11.93-0.92c-3.88-0.54-7.34-1.63-10.4-3.26c-3.06-1.7-5.54-4.05-7.45-7.04
	C290.8,458.84,289.84,454.96,289.84,450.2z M371.66,444.49c2.65,0,4.73,0.61,6.22,1.84c1.56,1.16,2.82,2.62,3.77,4.39
	c0.95,1.7,1.73,3.6,2.35,5.71c0.61,2.04,1.33,3.94,2.14,5.71c0.88,1.7,2.01,3.16,3.37,4.39c1.43,1.16,3.37,1.73,5.81,1.73
	c2.92,0,5.44-1.12,7.55-3.37c2.11-2.31,3.16-5.61,3.16-9.89c0-3.13-0.65-5.75-1.94-7.85c-1.22-2.18-2.89-4.05-5-5.61
	c-2.11-1.56-4.49-2.92-7.14-4.08c-2.65-1.22-5.37-2.45-8.16-3.67c-2.72-1.22-5.41-2.55-8.06-3.98c-2.65-1.43-5.03-3.16-7.14-5.2
	c-2.11-2.04-3.81-4.49-5.1-7.34c-1.22-2.86-1.84-6.32-1.84-10.4c0-5.44,0.92-9.93,2.75-13.46s4.32-6.36,7.45-8.47
	c3.13-2.11,6.73-3.57,10.81-4.39c4.15-0.88,8.47-1.33,12.95-1.33c3.33,0,6.8,0.2,10.4,0.61c3.67,0.41,7.04,1.29,10.1,2.65
	s5.58,3.33,7.55,5.92c2.04,2.52,3.06,5.88,3.06,10.1c0,1.29-0.31,2.52-0.92,3.67c-0.54,1.16-1.29,2.14-2.24,2.96
	c-0.88,0.82-1.94,1.46-3.16,1.94c-1.22,0.48-2.45,0.71-3.67,0.71c-2.65,0-4.76-0.58-6.32-1.73c-1.5-1.22-2.72-2.69-3.67-4.39
	c-0.95-1.77-1.73-3.67-2.35-5.71c-0.61-2.11-1.36-4.01-2.24-5.71c-0.82-1.77-1.94-3.23-3.37-4.39c-1.36-1.22-3.26-1.84-5.71-1.84
	c-1.43,0-2.82,0.34-4.18,1.02c-1.29,0.68-2.41,1.67-3.37,2.96c-0.95,1.22-1.73,2.72-2.35,4.49c-0.54,1.7-0.82,3.6-0.82,5.71
	c0,1.63,0.2,3.09,0.61,4.39c0.48,1.29,0.99,2.55,1.53,3.77c0.54,1.16,1.02,2.35,1.43,3.57c0.48,1.16,0.71,2.52,0.71,4.08
	c0,1.9-0.34,3.67-1.02,5.3c-0.61,1.56-1.26,2.99-1.94,4.28c-0.61,1.22-1.09,2.28-1.43,3.16c-0.27,0.88-0.03,1.6,0.71,2.14
	c0.41,0.34,0.92,0.51,1.53,0.51c0.95,0,2.01-0.41,3.16-1.22c1.22-0.82,2.58-1.7,4.08-2.65c1.5-1.02,3.2-1.94,5.1-2.75
	c1.9-0.82,4.05-1.22,6.43-1.22c3.4,0,6.53,0.68,9.38,2.04c2.86,1.36,5.3,3.2,7.34,5.51c2.11,2.24,3.74,4.86,4.9,7.85
	c1.22,2.99,1.84,6.12,1.84,9.38c0,5.37-0.92,9.79-2.75,13.26s-4.32,6.22-7.45,8.26c-3.13,1.97-6.77,3.33-10.91,4.08
	c-4.08,0.75-8.36,1.12-12.85,1.12c-3.33,0-6.83-0.2-10.51-0.61c-3.6-0.41-6.94-1.29-10-2.65c-3.06-1.36-5.61-3.3-7.65-5.81
	c-1.97-2.58-2.96-5.98-2.96-10.2c0-1.36,0.27-2.58,0.82-3.67c0.61-1.16,1.36-2.14,2.24-2.96c0.95-0.82,2.04-1.46,3.26-1.94
	C369.21,444.73,370.43,444.49,371.66,444.49z M430.79,421.54c0-4.69,0.75-9.52,2.24-14.48c1.56-4.96,3.77-9.52,6.63-13.67
	c2.86-4.15,6.32-7.55,10.4-10.2c4.15-2.65,8.77-3.98,13.87-3.98c2.52,0,5.27,0.31,8.26,0.92c3.06,0.54,5.88,1.5,8.47,2.86
	c2.65,1.29,4.86,3.03,6.63,5.2c1.77,2.11,2.65,4.73,2.65,7.85c0,2.38-0.95,4.39-2.86,6.02c-1.9,1.63-4.62,2.45-8.16,2.45
	c-2.24,0-4.08-0.51-5.51-1.53c-1.43-1.02-2.62-2.28-3.57-3.77s-1.73-3.13-2.35-4.9c-0.61-1.84-1.19-3.5-1.73-5
	c-0.54-1.5-1.16-2.75-1.84-3.77s-1.56-1.53-2.65-1.53c-1.56,0-2.65,0.75-3.26,2.24c-0.61,1.43-0.92,3.33-0.92,5.71
	c0,5.64-0.54,10.17-1.63,13.57c-1.09,3.4-2.45,6.02-4.08,7.85c-1.56,1.84-3.3,3.13-5.2,3.88c-1.84,0.68-3.57,1.19-5.2,1.53
	c-1.56,0.27-2.89,0.54-3.98,0.82c-1.09,0.27-1.63,0.92-1.63,1.94c0,0.95,0.41,1.7,1.22,2.24c0.82,0.48,1.87,0.95,3.16,1.43
	c1.29,0.41,2.72,0.88,4.28,1.43c1.63,0.48,3.2,1.22,4.69,2.24c1.5,0.95,2.86,2.28,4.08,3.98c1.29,1.7,2.28,3.94,2.96,6.73
	c0.54,2.24,1.29,4.79,2.24,7.65c1.02,2.86,2.31,5.58,3.88,8.16c1.56,2.52,3.4,4.66,5.51,6.43c2.18,1.77,4.69,2.65,7.55,2.65
	c2.45,0,4.66-0.58,6.63-1.73c2.04-1.16,3.81-2.65,5.3-4.49c1.56-1.84,2.92-3.84,4.08-6.02s2.07-4.28,2.75-6.32
	c0.2-0.54,0.58-0.82,1.12-0.82c0.75,0,1.53,0.44,2.35,1.33c0.82,0.88,1.12,1.8,0.92,2.75c-0.75,3.54-1.94,6.8-3.57,9.79
	c-1.63,2.92-3.67,5.44-6.12,7.55c-2.45,2.04-5.27,3.64-8.47,4.79c-3.13,1.16-6.6,1.73-10.4,1.73c-4.35,0-8.33-0.75-11.93-2.24
	c-3.6-1.5-6.83-3.5-9.69-6.02c-2.86-2.58-5.37-5.58-7.55-8.98c-2.11-3.4-3.88-7-5.3-10.81c-1.43-3.88-2.52-7.82-3.26-11.83
	C431.13,429.16,430.79,425.28,430.79,421.54z M504.35,380.23h35.7h3.06c3.94,0,7.75,0.14,11.42,0.41c3.74,0.27,7.04,1.12,9.89,2.55
	c2.92,1.36,5.27,3.47,7.04,6.32c1.77,2.86,2.65,6.9,2.65,12.14c0,4.49-0.92,8.13-2.75,10.91c-1.84,2.72-4.11,4.9-6.83,6.53
	c-2.72,1.63-5.68,2.86-8.87,3.67c-3.2,0.82-6.15,1.53-8.87,2.14c-2.72,0.54-5,1.19-6.83,1.94c-1.84,0.68-2.75,1.73-2.75,3.16
	c0,1.16,0.85,2.11,2.55,2.86c1.77,0.75,3.98,1.53,6.63,2.35c2.72,0.82,5.68,1.8,8.87,2.96c3.26,1.16,6.36,2.72,9.28,4.69
	c2.99,1.97,5.61,4.45,7.85,7.45c2.31,2.99,3.88,6.73,4.69,11.22c0.2,1.29,0.65,2.35,1.33,3.16c0.68,0.75,1.36,1.39,2.04,1.94
	c0.75,0.48,1.39,0.95,1.94,1.43c0.61,0.41,0.92,0.92,0.92,1.53c0,0.48-0.1,1.02-0.31,1.63c-0.14,0.54-0.78,0.82-1.94,0.82H552.8
	c-0.88,0-1.46-0.27-1.73-0.82c-0.27-0.54-0.41-1.09-0.41-1.63c0-0.61,0.2-1.09,0.61-1.43c0.48-0.41,0.99-0.85,1.53-1.33
	c0.54-0.48,1.02-1.09,1.43-1.84c0.48-0.82,0.71-1.87,0.71-3.16c0-2.79-0.54-5.17-1.63-7.14c-1.09-1.97-2.48-3.71-4.18-5.2
	c-1.63-1.56-3.43-2.99-5.41-4.28c-1.9-1.29-3.71-2.65-5.41-4.08c-1.63-1.43-2.99-3.03-4.08-4.79c-1.09-1.77-1.63-3.88-1.63-6.32
	c0-1.84,0.48-3.33,1.43-4.49c1.02-1.22,2.28-2.28,3.77-3.16c1.5-0.95,3.09-1.9,4.79-2.86s3.3-2.14,4.79-3.57
	c1.5-1.43,2.72-3.16,3.67-5.2c1.02-2.11,1.53-4.79,1.53-8.06c0-1.97-0.24-4.01-0.71-6.12c-0.41-2.18-1.12-4.15-2.14-5.92
	c-0.95-1.84-2.24-3.33-3.88-4.49c-1.63-1.16-3.67-1.73-6.12-1.73c-1.84,0-3.43,0.34-4.79,1.02c-1.36,0.61-2.52,1.5-3.47,2.65
	c-0.88,1.09-1.56,2.35-2.04,3.77c-0.48,1.43-0.71,2.96-0.71,4.59c0,3.33,0.1,6.09,0.31,8.26c0.27,2.11,0.58,3.84,0.92,5.2
	c0.34,1.29,0.71,2.35,1.12,3.16c0.48,0.82,0.88,1.6,1.22,2.35c0.34,0.75,0.61,1.56,0.82,2.45c0.27,0.88,0.41,2.11,0.41,3.67
	c0,1.5-0.14,2.69-0.41,3.57c-0.2,0.88-0.48,1.7-0.82,2.45c-0.34,0.75-0.75,1.56-1.22,2.45c-0.41,0.88-0.78,2.11-1.12,3.67
	c-0.34,1.5-0.65,3.47-0.92,5.92c-0.2,2.38-0.31,5.47-0.31,9.28v11.42c0,1.7,0.24,3.03,0.71,3.98c0.54,0.95,1.12,1.73,1.73,2.35
	c0.68,0.54,1.26,1.02,1.73,1.43c0.54,0.41,0.82,0.92,0.82,1.53c0,0.54-0.14,1.09-0.41,1.63c-0.27,0.54-0.85,0.82-1.73,0.82h-27.13
	c-0.88,0-1.46-0.27-1.73-0.82c-0.27-0.54-0.41-1.09-0.41-1.63c0-0.61,0.24-1.12,0.71-1.53c0.54-0.41,1.12-0.88,1.73-1.43
	c0.68-0.61,1.26-1.39,1.73-2.35c0.54-0.95,0.82-2.28,0.82-3.98v-10.4c0-4.76,0.51-8.6,1.53-11.53c1.09-2.92,2.45-5.24,4.08-6.94
	c1.63-1.7,3.37-2.96,5.2-3.77s3.57-1.46,5.2-1.94c1.63-0.54,2.96-1.09,3.98-1.63c1.09-0.54,1.63-1.39,1.63-2.55
	c0-1.02-0.54-1.67-1.63-1.94s-2.45-0.54-4.08-0.82c-1.56-0.34-3.3-0.85-5.2-1.53c-1.84-0.75-3.57-2.04-5.2-3.88
	c-1.56-1.84-2.89-4.45-3.98-7.85c-1.09-3.4-1.63-7.92-1.63-13.57c0-1.7-0.27-3.03-0.82-3.98c-0.48-0.95-1.05-1.7-1.73-2.24
	c-0.61-0.61-1.19-1.12-1.73-1.53c-0.48-0.41-0.71-0.92-0.71-1.53c0-0.54,0.14-1.09,0.41-1.63S503.47,380.23,504.35,380.23z
	 M592.37,460.3v-10.4c0-4.76,0.51-8.6,1.53-11.53c1.09-2.92,2.45-5.24,4.08-6.94c1.63-1.7,3.37-2.96,5.2-3.77s3.57-1.46,5.2-1.94
	c1.63-0.54,2.96-1.09,3.98-1.63c1.09-0.54,1.63-1.39,1.63-2.55c0-0.95-0.54-1.56-1.63-1.84c-1.02-0.34-2.35-0.65-3.98-0.92
	c-1.63-0.27-3.37-0.68-5.2-1.22c-1.84-0.61-3.57-1.67-5.2-3.16c-1.63-1.5-2.99-3.6-4.08-6.32c-1.02-2.72-1.53-6.39-1.53-11.02v-5.1
	c0-1.7-0.27-3.03-0.82-3.98c-0.48-0.95-1.05-1.7-1.73-2.24c-0.61-0.61-1.19-1.12-1.73-1.53c-0.48-0.41-0.71-0.92-0.71-1.53
	c0-0.54,0.14-1.09,0.41-1.63c0.27-0.54,0.85-0.82,1.73-0.82h27.13c0.88,0,1.46,0.27,1.73,0.82c0.27,0.54,0.41,1.09,0.41,1.63
	c0,0.61-0.27,1.12-0.82,1.53c-0.48,0.41-1.05,0.92-1.73,1.53c-0.61,0.54-1.19,1.29-1.73,2.24c-0.48,0.95-0.71,2.28-0.71,3.98
	c0,4.22,0.1,7.65,0.31,10.3c0.27,2.65,0.58,4.79,0.92,6.43c0.34,1.63,0.71,2.92,1.12,3.88c0.48,0.95,0.88,1.84,1.22,2.65
	c0.34,0.75,0.61,1.6,0.82,2.55c0.27,0.88,0.41,2.14,0.41,3.77c0,1.5-0.14,2.69-0.41,3.57c-0.2,0.88-0.48,1.7-0.82,2.45
	c-0.34,0.75-0.75,1.56-1.22,2.45c-0.41,0.88-0.78,2.11-1.12,3.67c-0.34,1.5-0.65,3.47-0.92,5.92c-0.2,2.38-0.31,5.47-0.31,9.28
	v11.42c0,1.7,0.24,3.03,0.71,3.98c0.54,0.95,1.12,1.73,1.73,2.35c0.68,0.54,1.26,1.02,1.73,1.43c0.54,0.41,0.82,0.92,0.82,1.53
	c0,0.54-0.14,1.09-0.41,1.63c-0.27,0.54-0.85,0.82-1.73,0.82h-27.13c-0.88,0-1.46-0.27-1.73-0.82c-0.27-0.54-0.41-1.09-0.41-1.63
	c0-0.61,0.24-1.12,0.71-1.53c0.54-0.41,1.12-0.88,1.73-1.43c0.68-0.61,1.26-1.39,1.73-2.35C592.1,463.33,592.37,462,592.37,460.3z
	 M622.84,382.68c0-0.54,0.14-1.09,0.41-1.63c0.27-0.54,0.85-0.82,1.73-0.82h35.7h3.26c3.47,0,7,0.14,10.61,0.41
	c3.67,0.27,6.97,1.05,9.89,2.35c2.99,1.22,5.41,3.13,7.24,5.71c1.9,2.58,2.86,6.22,2.86,10.91c0,2.79-0.48,5.17-1.43,7.14
	c-0.95,1.97-2.24,3.67-3.88,5.1c-1.56,1.43-3.4,2.62-5.51,3.57c-2.04,0.95-4.18,1.8-6.43,2.55c-2.18,0.75-4.39,1.46-6.63,2.14
	s-4.32,1.43-6.22,2.24c2.04,0.14,4.22,0.41,6.53,0.82c2.38,0.41,4.73,1.05,7.04,1.94c2.31,0.88,4.56,2.01,6.73,3.37
	c2.18,1.36,4.08,3.06,5.71,5.1c1.63,2.04,2.92,4.45,3.88,7.24c1.02,2.72,1.53,5.88,1.53,9.49c0,5.44-1.05,9.62-3.16,12.55
	c-2.11,2.92-4.86,5.07-8.26,6.43c-3.33,1.36-7.11,2.18-11.32,2.45c-4.15,0.2-8.26,0.31-12.34,0.31h-35.7
	c-0.88,0-1.46-0.27-1.73-0.82c-0.27-0.54-0.41-1.09-0.41-1.63c0-0.61,0.24-1.12,0.71-1.53c0.54-0.41,1.12-0.88,1.73-1.43
	c0.68-0.61,1.26-1.39,1.73-2.35c0.54-0.95,0.82-2.28,0.82-3.98v-10.4c0-4.76,0.51-8.6,1.53-11.53c1.09-2.92,2.45-5.24,4.08-6.94
	c1.63-1.7,3.37-2.96,5.2-3.77s3.57-1.46,5.2-1.94c1.63-0.54,2.96-1.09,3.98-1.63c1.09-0.54,1.63-1.39,1.63-2.55
	c0-1.02-0.54-1.67-1.63-1.94c-1.09-0.27-2.45-0.54-4.08-0.82c-1.56-0.34-3.3-0.85-5.2-1.53c-1.84-0.75-3.57-2.04-5.2-3.88
	c-1.56-1.84-2.89-4.45-3.98-7.85s-1.63-7.92-1.63-13.57c0-1.7-0.27-3.03-0.82-3.98c-0.48-0.95-1.05-1.7-1.73-2.24
	c-0.61-0.61-1.19-1.12-1.73-1.53C623.08,383.8,622.84,383.29,622.84,382.68z M649.36,446.63c0,2.24,0.24,4.59,0.71,7.04
	c0.48,2.45,1.26,4.73,2.35,6.83c1.09,2.04,2.52,3.74,4.28,5.1c1.84,1.29,4.05,1.94,6.63,1.94c1.97,0,3.67-0.37,5.1-1.12
	c1.43-0.75,2.58-1.73,3.47-2.96c0.88-1.29,1.53-2.75,1.94-4.39c0.41-1.63,0.61-3.37,0.61-5.2c0-3.6-0.37-7.04-1.12-10.3
	c-0.75-3.26-1.84-6.12-3.26-8.57c-1.43-2.45-3.2-4.39-5.3-5.81c-2.04-1.5-4.39-2.24-7.04-2.24c-0.75,0-1.22-0.44-1.43-1.33
	c-0.2-0.95-0.14-1.7,0.2-2.24c1.7-2.38,3.5-4.28,5.41-5.71c1.97-1.43,3.77-2.86,5.41-4.28c1.7-1.5,3.09-3.26,4.18-5.3
	c1.09-2.04,1.63-4.86,1.63-8.47c0-1.77-0.31-3.54-0.92-5.3c-0.61-1.84-1.5-3.47-2.65-4.9c-1.09-1.5-2.41-2.69-3.98-3.57
	c-1.56-0.95-3.3-1.43-5.2-1.43c-1.84,0-3.43,0.34-4.79,1.02c-1.36,0.61-2.52,1.5-3.47,2.65c-0.88,1.09-1.56,2.35-2.04,3.77
	s-0.71,2.96-0.71,4.59c0,3.33,0.1,6.09,0.31,8.26c0.27,2.11,0.58,3.84,0.92,5.2c0.34,1.29,0.71,2.35,1.12,3.16
	c0.48,0.82,0.88,1.6,1.22,2.35c0.34,0.75,0.61,1.56,0.82,2.45c0.27,0.88,0.41,2.11,0.41,3.67c0,1.43-0.14,2.58-0.41,3.47
	c-0.2,0.88-0.48,1.7-0.82,2.45c-0.34,0.68-0.75,1.43-1.22,2.24c-0.41,0.82-0.78,1.94-1.12,3.37c-0.34,1.36-0.65,3.13-0.92,5.3
	C649.46,440.48,649.36,443.23,649.36,446.63z M704.93,460.3v-10.4c0-4.76,0.51-8.6,1.53-11.53c1.09-2.92,2.45-5.24,4.08-6.94
	c1.63-1.7,3.37-2.96,5.2-3.77s3.57-1.46,5.2-1.94c1.63-0.54,2.96-1.09,3.98-1.63c1.09-0.54,1.63-1.39,1.63-2.55
	c0-0.95-0.54-1.56-1.63-1.84c-1.02-0.34-2.35-0.65-3.98-0.92c-1.63-0.27-3.37-0.68-5.2-1.22c-1.84-0.61-3.57-1.67-5.2-3.16
	s-2.99-3.6-4.08-6.32c-1.02-2.72-1.53-6.39-1.53-11.02v-5.1c0-1.7-0.27-3.03-0.82-3.98c-0.48-0.95-1.05-1.7-1.73-2.24
	c-0.61-0.61-1.19-1.12-1.73-1.53c-0.48-0.41-0.71-0.92-0.71-1.53c0-0.54,0.14-1.09,0.41-1.63c0.27-0.54,0.85-0.82,1.73-0.82h27.13
	c0.88,0,1.46,0.27,1.73,0.82c0.27,0.54,0.41,1.09,0.41,1.63c0,0.61-0.27,1.12-0.82,1.53c-0.48,0.41-1.05,0.92-1.73,1.53
	c-0.61,0.54-1.19,1.29-1.73,2.24c-0.48,0.95-0.71,2.28-0.71,3.98c0,4.22,0.1,7.65,0.31,10.3c0.27,2.65,0.58,4.79,0.92,6.43
	c0.34,1.63,0.71,2.92,1.12,3.88c0.48,0.95,0.88,1.84,1.22,2.65c0.34,0.75,0.61,1.6,0.82,2.55c0.27,0.88,0.41,2.14,0.41,3.77
	c0,1.5-0.14,2.69-0.41,3.57c-0.2,0.88-0.48,1.7-0.82,2.45c-0.34,0.75-0.75,1.56-1.22,2.45c-0.41,0.88-0.78,2.11-1.12,3.67
	c-0.34,1.5-0.65,3.47-0.92,5.92c-0.2,2.38-0.31,5.47-0.31,9.28v11.42c0,1.7,0.24,3.03,0.71,3.98c0.54,0.95,1.12,1.73,1.73,2.35
	c0.68,0.54,1.26,1.02,1.73,1.43c0.54,0.41,0.82,0.92,0.82,1.53c0,0.54-0.14,1.09-0.41,1.63c-0.27,0.54-0.85,0.82-1.73,0.82h-27.13
	c-0.88,0-1.46-0.27-1.73-0.82c-0.27-0.54-0.41-1.09-0.41-1.63c0-0.61,0.24-1.12,0.71-1.53c0.54-0.41,1.12-0.88,1.73-1.43
	c0.68-0.61,1.26-1.39,1.73-2.35C704.66,463.33,704.93,462,704.93,460.3z M762.43,395.12c0-1.63-0.2-2.75-0.61-3.37
	c-0.34-0.68-0.75-1.16-1.22-1.43c-0.48-0.34-0.92-0.65-1.33-0.92c-0.34-0.27-0.51-0.85-0.51-1.73c0-0.61,0.48-1.22,1.43-1.84
	c1.02-0.61,2.28-1.19,3.77-1.73c1.5-0.54,3.13-1.05,4.9-1.53c1.84-0.48,3.57-0.88,5.2-1.22c1.63-0.34,3.06-0.61,4.28-0.82
	c1.29-0.2,2.11-0.31,2.45-0.31c1.7,0,3.03,0.27,3.98,0.82c1.02,0.54,1.84,1.29,2.45,2.24s1.05,2.04,1.33,3.26
	c0.34,1.22,0.65,2.52,0.92,3.88c0.88,4.28,1.73,7.82,2.55,10.61c0.82,2.72,1.6,4.93,2.35,6.63s1.43,2.99,2.04,3.88
	s1.16,1.63,1.63,2.24c0.54,0.61,0.99,1.26,1.33,1.94c0.41,0.61,0.75,1.5,1.02,2.65c0.27,1.22,0.37,2.24,0.31,3.06
	c-0.07,0.82-0.2,1.63-0.41,2.45c-0.2,0.82-0.41,1.73-0.61,2.75c-0.2,0.95-0.34,2.28-0.41,3.98c0,1.63,0.17,3.71,0.51,6.22
	c0.34,2.45,0.92,5.54,1.73,9.28l3.57,15.71c0.54,2.31,1.43,3.84,2.65,4.59c1.22,0.75,2.38,1.12,3.47,1.12
	c1.22,0,2.11-0.34,2.65-1.02c0.61-0.75,1.05-1.63,1.33-2.65c0.27-1.02,0.41-2.11,0.41-3.26c0-1.16,0-2.14,0-2.96
	c0-4.62-0.37-9.21-1.12-13.77c-0.68-4.62-1.46-9.25-2.35-13.87c-0.82-4.62-1.6-9.25-2.35-13.87c-0.68-4.69-1.05-9.35-1.12-13.97
	c0-1.9,0.17-3.84,0.51-5.81c0.41-1.97,0.99-3.81,1.73-5.51c0.82-1.7,1.84-3.2,3.06-4.49s2.65-2.21,4.28-2.75
	c1.5-0.48,3.06-0.92,4.69-1.33c1.7-0.41,3.26-0.75,4.69-1.02c1.5-0.34,2.75-0.58,3.77-0.71c1.09-0.2,1.8-0.31,2.14-0.31
	c1.7,0,3.06,0.27,4.08,0.82s1.84,1.29,2.45,2.24s1.05,2.04,1.33,3.26c0.34,1.22,0.65,2.52,0.92,3.88c0.88,4.28,1.73,7.82,2.55,10.61
	c0.82,2.72,1.56,4.93,2.24,6.63c0.75,1.7,1.43,2.99,2.04,3.88s1.16,1.63,1.63,2.24s0.88,1.26,1.22,1.94
	c0.41,0.61,0.75,1.5,1.02,2.65c0.27,1.22,0.37,2.24,0.31,3.06c-0.07,0.82-0.2,1.63-0.41,2.45c-0.2,0.82-0.44,1.73-0.71,2.75
	c-0.2,0.95-0.31,2.28-0.31,3.98c0,1.63,0.14,3.71,0.41,6.22c0.34,2.45,0.95,5.54,1.84,9.28l3.67,15.71
	c0.34,1.43,0.85,2.52,1.53,3.26c0.68,0.68,1.33,1.26,1.94,1.73c0.68,0.41,1.26,0.82,1.73,1.22c0.54,0.34,0.82,0.85,0.82,1.53
	c0,0.48-0.1,1.02-0.31,1.63c-0.14,0.54-0.78,0.82-1.94,0.82h-28.25c-0.88,0-1.46-0.27-1.73-0.82c-0.27-0.54-0.41-1.09-0.41-1.63
	c0-0.61,0.27-1.09,0.82-1.43c0.61-0.41,1.22-0.85,1.84-1.33c0.61-0.48,1.12-1.09,1.53-1.84c0.41-0.82,0.44-1.87,0.1-3.16l-2.35-10.2
	c-1.09-4.62-1.43-8.47-1.02-11.53s1.19-5.58,2.35-7.55c1.22-2.04,2.69-3.64,4.39-4.79c1.7-1.22,3.26-2.24,4.69-3.06
	c1.5-0.88,2.72-1.7,3.67-2.45c0.95-0.75,1.29-1.7,1.02-2.86c-0.27-1.16-0.85-1.87-1.73-2.14c-0.88-0.27-2.01-0.41-3.37-0.41
	c-0.34,0-0.68,0.03-1.02,0.1c-0.34,0-0.68,0-1.02,0c-1.5,0-3.13-0.14-4.9-0.41c-1.77-0.34-3.54-1.12-5.3-2.35
	c-1.7-1.29-3.33-3.2-4.9-5.71c-1.5-2.58-2.82-6.12-3.98-10.61c-0.34-1.36-0.68-2.38-1.02-3.06c-0.27-0.75-0.58-1.29-0.92-1.63
	c-0.27-0.41-0.58-0.65-0.92-0.71c-0.27-0.07-0.58-0.1-0.92-0.1c-0.88,0-1.67,0.37-2.35,1.12c-0.61,0.75-1.12,1.67-1.53,2.75
	c-0.41,1.02-0.71,2.07-0.92,3.16c-0.14,1.09-0.2,1.97-0.2,2.65c0,4.22,0.34,8.64,1.02,13.26c0.75,4.56,1.56,9.21,2.45,13.97
	c0.88,4.69,1.67,9.42,2.35,14.18c0.75,4.76,1.12,9.49,1.12,14.18c0,1.5-0.1,3.09-0.31,4.79c-0.14,1.7-0.51,3.26-1.12,4.69
	s-1.53,2.62-2.75,3.57c-1.16,0.88-2.75,1.33-4.79,1.33h-30.6c-0.88,0-1.46-0.27-1.73-0.82c-0.27-0.54-0.41-1.09-0.41-1.63
	c0-0.61,0.27-1.09,0.82-1.43c0.54-0.41,1.12-0.85,1.73-1.33c0.61-0.48,1.12-1.09,1.53-1.84c0.41-0.82,0.48-1.87,0.2-3.16l-2.24-10.2
	c-1.02-4.62-1.33-8.47-0.92-11.53c0.41-3.13,1.22-5.68,2.45-7.65c1.22-2.04,2.65-3.64,4.28-4.79c1.7-1.22,3.26-2.24,4.69-3.06
	c1.43-0.82,2.62-1.6,3.57-2.35c0.95-0.75,1.29-1.7,1.02-2.86c-0.27-1.16-0.82-1.87-1.63-2.14c-0.82-0.27-1.8-0.41-2.96-0.41
	c-0.41,0-0.82,0.03-1.22,0.1c-0.41,0-0.82,0-1.22,0c-1.63,0-3.4-0.2-5.3-0.61c-1.9-0.41-3.81-1.46-5.71-3.16
	c-1.84-1.77-3.6-4.39-5.3-7.85c-1.7-3.47-3.2-8.26-4.49-14.38c0,5.92-0.61,11.22-1.84,15.91c-1.22,4.69-2.75,8.91-4.59,12.65
	c-1.77,3.74-3.74,7.07-5.92,10c-2.11,2.92-4.08,5.64-5.92,8.16c-1.77,2.45-3.26,4.76-4.49,6.94c-1.22,2.18-1.84,4.35-1.84,6.53
	c0,2.58,0.41,4.86,1.22,6.83c0.88,1.9,1.97,3.5,3.26,4.79c1.29,1.22,2.72,2.18,4.28,2.86c1.56,0.61,3.06,0.92,4.49,0.92
	c1.84,0,3.4-0.51,4.69-1.53c1.36-1.02,2.04-2.52,2.04-4.49c0-1.29-0.31-2.41-0.92-3.37s-1.36-1.84-2.24-2.65
	c-0.88-0.82-1.87-1.6-2.96-2.35c-1.09-0.82-2.07-1.67-2.96-2.55c-0.88-0.88-1.63-1.84-2.24-2.86c-0.61-1.09-0.92-2.38-0.92-3.88
	c0-2.72,0.88-5,2.65-6.83s4.05-2.75,6.83-2.75c2.58,0,4.73,0.65,6.43,1.94c1.7,1.29,3.06,2.92,4.08,4.9
	c1.02,1.9,1.73,4.05,2.14,6.43c0.48,2.31,0.71,4.49,0.71,6.53c0,3.33-0.54,6.26-1.63,8.77c-1.02,2.52-2.41,4.59-4.18,6.22
	c-1.7,1.63-3.67,2.86-5.92,3.67c-2.24,0.82-4.56,1.22-6.94,1.22c-2.45,0-4.86-0.41-7.24-1.22c-2.31-0.88-4.39-2.14-6.22-3.77
	c-1.84-1.7-3.33-3.77-4.49-6.22c-1.16-2.52-1.73-5.37-1.73-8.57c0-3.26,0.65-6.32,1.94-9.18c1.36-2.92,3.03-5.75,5-8.47
	c2.04-2.79,4.22-5.58,6.53-8.36c2.38-2.86,4.56-5.88,6.53-9.08c2.04-3.26,3.71-6.73,5-10.4
	C761.75,403.93,762.43,399.75,762.43,395.12z M864.09,450.2c0-4.28,0.82-7.89,2.45-10.81c1.63-2.99,3.67-5.51,6.12-7.55
	c2.45-2.04,5.1-3.67,7.96-4.9c2.86-1.22,5.51-2.18,7.96-2.86c2.45-0.75,4.49-1.33,6.12-1.73c1.63-0.41,2.45-0.82,2.45-1.22
	c0-0.68-0.78-1.22-2.35-1.63c-1.56-0.41-3.54-0.82-5.92-1.22c-2.38-0.48-4.93-1.05-7.65-1.73c-2.72-0.75-5.27-1.8-7.65-3.16
	c-2.38-1.43-4.35-3.23-5.92-5.41c-1.56-2.18-2.35-4.96-2.35-8.36c0-4.42,0.95-7.96,2.86-10.61c1.97-2.65,4.49-4.69,7.55-6.12
	c3.06-1.5,6.43-2.48,10.1-2.96c3.67-0.48,7.24-0.71,10.71-0.71c2.99,0,6.39,0.2,10.2,0.61c3.88,0.41,7.55,1.26,11.02,2.55
	c3.47,1.22,6.39,3.03,8.77,5.41c2.38,2.31,3.57,5.41,3.57,9.28c0,1.22-0.27,2.35-0.82,3.37c-0.48,1.02-1.16,1.9-2.04,2.65
	c-0.82,0.75-1.77,1.36-2.86,1.84c-1.09,0.41-2.21,0.61-3.37,0.61c-2.45,0-4.39-0.51-5.81-1.53c-1.36-1.09-2.48-2.41-3.37-3.98
	c-0.82-1.56-1.5-3.23-2.04-5c-0.54-1.84-1.22-3.54-2.04-5.1c-0.75-1.56-1.77-2.86-3.06-3.88c-1.22-1.09-2.96-1.63-5.2-1.63
	c-1.9,0-3.64,0.48-5.2,1.43c-1.56,0.88-2.92,2.07-4.08,3.57c-1.09,1.43-1.94,3.06-2.55,4.9c-0.61,1.77-0.92,3.54-0.92,5.3
	c0,2.38,0.34,4.39,1.02,6.02c0.75,1.63,1.67,3.03,2.75,4.18c1.09,1.09,2.24,2.04,3.47,2.86c1.22,0.82,2.38,1.63,3.47,2.45
	c1.09,0.82,1.97,1.73,2.65,2.75c0.75,1.02,1.12,2.28,1.12,3.77c0,1.36-0.41,2.62-1.22,3.77c-0.75,1.09-1.73,2.21-2.96,3.37
	c-1.16,1.09-2.41,2.28-3.77,3.57c-1.36,1.29-2.65,2.82-3.88,4.59c-1.16,1.7-2.14,3.74-2.96,6.12c-0.75,2.31-1.12,5.1-1.12,8.36
	c0,2.38,0.2,4.59,0.61,6.63c0.48,1.97,1.26,3.71,2.35,5.2c1.09,1.43,2.55,2.55,4.39,3.37c1.84,0.82,4.18,1.22,7.04,1.22
	c2.24,0,3.98-0.51,5.2-1.53c1.29-1.09,2.31-2.41,3.06-3.98c0.82-1.56,1.5-3.23,2.04-5c0.54-1.84,1.22-3.54,2.04-5.1
	c0.88-1.56,2.01-2.86,3.37-3.88c1.43-1.09,3.37-1.63,5.81-1.63c1.16,0,2.28,0.24,3.37,0.71c1.09,0.41,2.04,0.99,2.86,1.73
	c0.88,0.75,1.56,1.63,2.04,2.65c0.54,1.02,0.82,2.14,0.82,3.37c0,3.88-1.19,7-3.57,9.38c-2.38,2.31-5.3,4.11-8.77,5.41
	c-3.47,1.22-7.14,2.04-11.02,2.45c-3.88,0.41-7.28,0.61-10.2,0.61c-4.01,0-7.99-0.31-11.93-0.92c-3.88-0.54-7.34-1.63-10.4-3.26
	c-3.06-1.7-5.54-4.05-7.45-7.04C865.04,458.84,864.09,454.96,864.09,450.2z"/>
</svg>
