<?xml version="1.0" encoding="utf-8"?>
<!-- Generator: Adobe Illustrator 25.2.1, SVG Export Plug-In . SVG Version: 6.00 Build 0)  -->
<svg version="1.1" id="Capa_1" xmlns="http://www.w3.org/2000/svg" xmlns:xlink="http://www.w3.org/1999/xlink" x="0px" y="0px"
	 viewBox="0 0 30 26" style="enable-background:new 0 0 30 26;" xml:space="preserve">
<style type="text/css">
	.st0{fill:#8E0001;}
</style>
<path class="st0" d="M7.97,0c0.93,0,2.07,0.24,3.15,0.75c0.44,0.21,0.81,0.51,1.18,0.83c0.86,0.73,1.56,1.58,2.15,2.52
	c0.14,0.23,0.27,0.46,0.41,0.69c0.02,0.03,0.02,0.1,0.09,0.1c0.06,0,0.08-0.06,0.1-0.1c0.34-0.58,0.73-1.14,1.14-1.68
	c0.6-0.76,1.27-1.45,2.1-2c0.56-0.37,1.18-0.62,1.84-0.77c0.43-0.1,0.85-0.22,1.28-0.27c0.61-0.07,1.22-0.06,1.82-0.01
	c1.1,0.1,2.15,0.41,3.13,0.88c1.72,0.81,2.83,2.1,3.37,3.83c0.25,0.79,0.3,1.59,0.25,2.41c-0.04,0.88-0.3,1.72-0.6,2.54
	c-0.52,1.4-1.26,2.7-2.08,3.96c-0.46,0.72-1.04,1.36-1.6,2.01c-1.06,1.25-2.19,2.44-3.35,3.61c-1.05,1.05-2.12,2.07-3.22,3.07
	c-1.28,1.17-2.61,2.31-3.95,3.43c-0.09,0.08-0.18,0.19-0.27,0.2c-0.1,0.01-0.18-0.13-0.27-0.2c-1.34-1.11-2.66-2.25-3.95-3.41
	c-1.87-1.7-3.69-3.45-5.37-5.32c-1.28-1.43-2.48-2.91-3.47-4.53c-0.65-1.05-1.2-2.13-1.53-3.3C0.12,8.46-0.01,7.68,0,6.87
	c0.01-1.26,0.28-2.45,0.97-3.55c0.78-1.24,1.89-2.1,3.29-2.65C5.36,0.24,6.5,0,7.97,0z"/>
</svg>
