<svg width="61" height="61" viewBox="0 0 61 61" fill="none" xmlns="http://www.w3.org/2000/svg">
<path d="M30.8828 60.2265C47.3984 60.2265 60.787 46.9177 60.787 30.5005C60.787 14.0833 47.3984 0.774536 30.8828 0.774536C14.3671 0.774536 0.978516 14.0833 0.978516 30.5005C0.978516 46.9177 14.3671 60.2265 30.8828 60.2265Z" fill="#8E0001"/>
<path d="M32.7614 32.9583C32.7614 38.3678 32.7614 43.5403 32.7614 48.8253C30.3131 48.8253 28.1234 48.8253 25.6954 48.8253C25.6954 43.6287 25.6954 38.4521 25.6954 33.0627C23.6875 33.0627 21.9058 33.0627 19.9504 33.0627C19.9504 30.7736 19.9504 28.6934 19.9504 26.3963C21.7967 26.3963 23.5784 26.3963 25.5944 26.3963C25.5944 24.7377 25.5822 23.2879 25.5984 21.8382C25.659 15.9267 28.7173 12.979 34.6198 13.1397C39.7546 13.2762 39.7546 13.2762 39.0476 18.1957C37.0236 18.8824 34.5066 19.0029 33.4482 20.3001C32.3937 21.5932 32.8098 24.067 32.5513 26.2999C34.8016 26.2999 36.7085 26.2999 38.8941 26.2999C38.5709 28.4605 38.3487 30.352 37.9487 32.2033C37.876 32.5366 37.0761 32.882 36.5832 32.9262C35.4035 33.0266 34.2036 32.9583 32.7614 32.9583Z" fill="white"/>
</svg>
