<?xml version="1.0" encoding="utf-8"?>
<!-- Generator: Adobe Illustrator 25.2.1, SVG Export Plug-In . SVG Version: 6.00 Build 0)  -->
<svg version="1.1" id="Capa_1" xmlns="http://www.w3.org/2000/svg" xmlns:xlink="http://www.w3.org/1999/xlink" x="0px" y="0px"
	 viewBox="0 0 1629.65 799.26" style="enable-background:new 0 0 1629.65 799.26;" xml:space="preserve">
<style type="text/css">
	.st0{fill:#FDE1D6;}
	.st1{fill:#8E0F06;}
	.st2{fill:#DA5861;}
</style>
<rect x="-142.61" y="-0.48" class="st0" width="1920" height="800.11"/>
<g>
	<path class="st1" d="M1777.39,760.95h-63.01c0.01,0.17,0.01,0.33,0.01,0.5c0,8.01-6.49,14.5-14.5,14.5s-14.5-6.49-14.5-14.5
		c0-0.17,0-0.33,0.01-0.5h-13.02c0.01,0.17,0.01,0.33,0.01,0.5c0,8.01-6.49,14.5-14.5,14.5s-14.5-6.49-14.5-14.5
		c0-0.17,0-0.33,0.01-0.5h-15.02c0.01,0.17,0.01,0.33,0.01,0.5c0,7.46-6.04,13.5-13.5,13.5s-13.5-6.04-13.5-13.5
		c0-0.17,0-0.33,0.01-0.5h-16.02c0.01,0.17,0.01,0.33,0.01,0.5c0,7.46-6.04,13.5-13.5,13.5s-13.5-6.04-13.5-13.5
		c0-0.17,0-0.33,0.01-0.5h-16.02c0.01,0.17,0.01,0.33,0.01,0.5c0,7.46-6.04,13.5-13.5,13.5s-13.5-6.04-13.5-13.5
		c0-0.17,0-0.33,0.01-0.5h-19.02c0.01,0.17,0.01,0.33,0.01,0.5c0,7.46-6.04,13.5-13.5,13.5s-13.5-6.04-13.5-13.5
		c0-0.17,0-0.33,0.01-0.5h-16.02c0.01,0.17,0.01,0.33,0.01,0.5c0,7.46-6.04,13.5-13.5,13.5s-13.5-6.04-13.5-13.5
		c0-0.17,0-0.33,0.01-0.5h-16.02c0.01,0.17,0.01,0.33,0.01,0.5c0,7.46-6.04,13.5-13.5,13.5s-13.5-6.04-13.5-13.5
		c0-0.17,0-0.33,0.01-0.5h-16.02c0.01,0.17,0.01,0.33,0.01,0.5c0,7.46-6.04,13.5-13.5,13.5s-13.5-6.04-13.5-13.5
		c0-0.17,0-0.33,0.01-0.5h-16.02c0.01,0.17,0.01,0.33,0.01,0.5c0,7.46-6.04,13.5-13.5,13.5s-13.5-6.04-13.5-13.5
		c0-0.17,0-0.33,0.01-0.5h-16.02c0.01,0.17,0.01,0.33,0.01,0.5c0,7.46-6.04,13.5-13.5,13.5s-13.5-6.04-13.5-13.5
		c0-0.17,0-0.33,0.01-0.5h-16.02c0.01,0.17,0.01,0.33,0.01,0.5c0,7.46-6.04,13.5-13.5,13.5s-13.5-6.04-13.5-13.5
		c0-0.17,0-0.33,0.01-0.5h-16.02c0.01,0.17,0.01,0.33,0.01,0.5c0,7.46-6.04,13.5-13.5,13.5s-13.5-6.04-13.5-13.5
		c0-0.17,0-0.33,0.01-0.5h-16.02c0.01,0.17,0.01,0.33,0.01,0.5c0,7.46-6.04,13.5-13.5,13.5s-13.5-6.04-13.5-13.5
		c0-0.17,0-0.33,0.01-0.5h-19.02c0.01,0.17,0.01,0.33,0.01,0.5c0,7.46-6.04,13.5-13.5,13.5s-13.5-6.04-13.5-13.5
		c0-0.17,0-0.33,0.01-0.5h-16.02c0.01,0.17,0.01,0.33,0.01,0.5c0,7.46-6.04,13.5-13.5,13.5s-13.5-6.04-13.5-13.5
		c0-0.17,0-0.33,0.01-0.5h-16.02c0.01,0.17,0.01,0.33,0.01,0.5c0,7.46-6.04,13.5-13.5,13.5s-13.5-6.04-13.5-13.5
		c0-0.17,0-0.33,0.01-0.5h-16.02c0.01,0.17,0.01,0.33,0.01,0.5c0,7.46-6.04,13.5-13.5,13.5s-13.5-6.04-13.5-13.5
		c0-0.17,0-0.33,0.01-0.5h-16.02c0.01,0.17,0.01,0.33,0.01,0.5c0,7.46-6.04,13.5-13.5,13.5s-13.5-6.04-13.5-13.5
		c0-0.17,0-0.33,0.01-0.5h-16.02c0.01,0.17,0.01,0.33,0.01,0.5c0,7.46-6.04,13.5-13.5,13.5c-7.46,0-13.5-6.04-13.5-13.5
		c0-0.17,0-0.33,0.01-0.5h-16.02c0.01,0.17,0.01,0.33,0.01,0.5c0,7.46-6.04,13.5-13.5,13.5s-13.5-6.04-13.5-13.5
		c0-0.17,0.01-0.33,0.01-0.5h-16.02c0.01,0.17,0.01,0.33,0.01,0.5c0,7.46-6.04,13.5-13.5,13.5s-13.5-6.04-13.5-13.5
		c0-0.17,0.01-0.33,0.01-0.5h-16.02c0.01,0.17,0.01,0.33,0.01,0.5c0,7.46-6.04,13.5-13.5,13.5s-13.5-6.04-13.5-13.5
		c0-0.17,0.01-0.33,0.01-0.5h-19.02c0.01,0.17,0.01,0.33,0.01,0.5c0,7.46-6.04,13.5-13.5,13.5s-13.5-6.04-13.5-13.5
		c0-0.17,0.01-0.33,0.01-0.5h-16.02c0.01,0.17,0.01,0.33,0.01,0.5c0,7.46-6.04,13.5-13.5,13.5s-13.5-6.04-13.5-13.5
		c0-0.17,0.01-0.33,0.01-0.5h-16.02c0.01,0.17,0.01,0.33,0.01,0.5c0,7.46-6.04,13.5-13.5,13.5s-13.5-6.04-13.5-13.5
		c0-0.17,0.01-0.33,0.01-0.5h-16.02c0.01,0.17,0.01,0.33,0.01,0.5c0,7.46-6.04,13.5-13.5,13.5s-13.5-6.04-13.5-13.5
		c0-0.17,0.01-0.33,0.01-0.5h-16.02c0.01,0.17,0.01,0.33,0.01,0.5c0,7.46-6.04,13.5-13.5,13.5s-13.5-6.04-13.5-13.5
		c0-0.17,0.01-0.33,0.01-0.5h-16.02c0.01,0.17,0.01,0.33,0.01,0.5c0,7.46-6.04,13.5-13.5,13.5s-13.5-6.04-13.5-13.5
		c0-0.17,0.01-0.33,0.01-0.5h-16.02c0.01,0.17,0.01,0.33,0.01,0.5c0,7.46-6.04,13.5-13.5,13.5s-13.5-6.04-13.5-13.5
		c0-0.17,0.01-0.33,0.01-0.5h-16.02c0.01,0.17,0.01,0.33,0.01,0.5c0,7.46-6.04,13.5-13.5,13.5s-13.5-6.04-13.5-13.5
		c0-0.17,0.01-0.33,0.01-0.5h-16.02c0.01,0.17,0.01,0.33,0.01,0.5c0,7.46-6.04,13.5-13.5,13.5s-13.5-6.04-13.5-13.5
		c0-0.17,0.01-0.33,0.01-0.5h-19.02c0.01,0.17,0.01,0.33,0.01,0.5c0,7.46-6.04,13.5-13.5,13.5s-13.5-6.04-13.5-13.5
		c0-0.17,0.01-0.33,0.01-0.5h-16.02c0.01,0.17,0.01,0.33,0.01,0.5c0,7.46-6.04,13.5-13.5,13.5s-13.5-6.04-13.5-13.5
		c0-0.17,0.01-0.33,0.01-0.5h-16.02c0.01,0.17,0.01,0.33,0.01,0.5c0,7.46-6.04,13.5-13.5,13.5s-13.5-6.04-13.5-13.5
		c0-0.17,0.01-0.33,0.01-0.5h-16.02c0.01,0.17,0.01,0.33,0.01,0.5c0,7.46-6.04,13.5-13.5,13.5s-13.5-6.04-13.5-13.5
		c0-0.17,0.01-0.33,0.01-0.5h-16.02c0.01,0.17,0.01,0.33,0.01,0.5c0,7.46-6.04,13.5-13.5,13.5s-13.5-6.04-13.5-13.5
		c0-0.17,0.01-0.33,0.01-0.5h-16.02c0.01,0.17,0.01,0.33,0.01,0.5c0,7.46-6.04,13.5-13.5,13.5s-13.5-6.04-13.5-13.5
		c0-0.17,0.01-0.33,0.01-0.5H68.38c0.01,0.17,0.01,0.33,0.01,0.5c0,7.46-6.04,13.5-13.5,13.5s-13.5-6.04-13.5-13.5
		c0-0.17,0.01-0.33,0.01-0.5H25.38c0.01,0.17,0.01,0.33,0.01,0.5c0,7.46-6.04,13.5-13.5,13.5s-13.5-6.04-13.5-13.5
		c0-0.17,0.01-0.33,0.01-0.5h-16.02c0.01,0.17,0.01,0.33,0.01,0.5c0,7.46-6.04,13.5-13.5,13.5s-13.5-6.04-13.5-13.5
		c0-0.17,0-0.33,0.01-0.5h-18.02c0.01,0.17,0.01,0.33,0.01,0.5c0,8.01-6.49,14.5-14.5,14.5s-14.5-6.49-14.5-14.5
		c0-0.17,0-0.33,0.01-0.5h-51.01v40h1930.72L1777.39,760.95z"/>
</g>
<path class="st1" d="M212.95,366.97c0-6.83,0.81-13.44,2.43-19.84c1.71-6.48,4.27-12.2,7.68-17.15c3.5-5.04,7.98-9.05,13.44-12.03
	c5.46-3.07,11.95-4.61,19.46-4.61c9.05,0,16.68,1.96,22.91,5.89c6.32,3.92,11.39,9,15.23,15.23c3.92,6.23,6.74,13.14,8.45,20.74
	c1.71,7.6,2.56,15.1,2.56,22.53c0,7-0.85,13.74-2.56,20.22c-1.62,6.4-4.18,12.08-7.68,17.02c-3.5,4.95-7.98,8.92-13.44,11.9
	c-5.38,2.9-11.86,4.35-19.46,4.35c-6.06,0-11.48-0.9-16.26-2.69s-9-4.22-12.67-7.3c-3.58-3.16-6.66-6.83-9.22-11.01
	c-2.56-4.18-4.65-8.66-6.27-13.44c-1.62-4.78-2.82-9.68-3.58-14.72C213.29,376.96,212.95,371.92,212.95,366.97z M215.38,378.75
	c0.08,0.77,0.94,1.15,2.56,1.15c0.68,0,1.49-0.04,2.43-0.13c1.02-0.08,2.13-0.13,3.33-0.13c2.05,0,4.27,0.3,6.66,0.9
	c2.39,0.6,4.74,1.92,7.04,3.97c2.3,1.96,4.44,4.91,6.4,8.83c1.96,3.84,3.58,9.04,4.86,15.62c0.43,2.05,0.98,4.05,1.66,6.02
	c0.68,1.96,1.58,3.76,2.69,5.38c1.2,1.62,2.65,2.94,4.35,3.97c1.71,0.94,3.75,1.41,6.14,1.41c2.82,0,5.21-0.6,7.17-1.79
	c2.05-1.28,3.63-2.9,4.74-4.86c1.2-2.05,2.01-4.31,2.43-6.78s0.47-4.95,0.13-7.42c-0.85-7-0.85-12.67,0-17.02
	c0.85-4.35,2.22-7.81,4.1-10.37c1.88-2.65,3.97-4.57,6.27-5.76c2.39-1.2,4.65-2.05,6.78-2.56c2.13-0.6,3.88-1.02,5.25-1.28
	c1.36-0.34,2.01-0.94,1.92-1.79c-0.08-0.77-0.94-1.15-2.56-1.15c-0.68,0-1.54,0.04-2.56,0.13c-0.94,0.09-2.01,0.13-3.2,0.13
	c-2.05,0-4.27-0.3-6.66-0.9c-2.3-0.6-4.61-1.88-6.91-3.84c-2.3-2.05-4.44-4.99-6.4-8.83c-1.96-3.92-3.58-9.17-4.86-15.74
	c-0.34-2.05-0.9-4.05-1.66-6.02c-0.68-1.96-1.62-3.76-2.82-5.38c-1.2-1.62-2.64-2.9-4.35-3.84c-1.71-1.02-3.76-1.54-6.14-1.54
	c-2.82,0-5.25,0.64-7.3,1.92c-1.96,1.2-3.54,2.77-4.74,4.74c-1.11,1.96-1.88,4.22-2.3,6.78c-0.43,2.47-0.47,4.95-0.13,7.42
	c0.94,6.91,0.94,12.59,0,17.02c-0.85,4.35-2.22,7.85-4.1,10.5c-1.88,2.56-4.01,4.44-6.4,5.63c-2.3,1.19-4.52,2.09-6.66,2.69
	c-2.13,0.51-3.93,0.94-5.38,1.28C215.81,377.34,215.21,377.9,215.38,378.75z"/>
<path class="st1" d="M213.95,366.97c0-27.39,12.8-53.63,43.01-53.63c36.22,0,49.15,34.82,49.15,64.38c0,28.03-12.8,53.5-43.14,53.5
	C226.75,431.23,213.95,396.67,213.95,366.97z M240.7,339.97c5.12,41.73-25.09,33.66-24.32,38.78c0.13,0.9,1.02,1.15,2.56,1.15
	s3.46-0.26,5.76-0.26c8.19,0,19.97,2.94,24.96,29.31c1.54,8.06,5.25,16.77,14.85,16.77c11.39,0,15.74-10.88,14.46-20.86
	c-5.38-41.73,25.09-33.66,24.32-38.78c-0.13-0.9-1.02-1.15-2.56-1.15c-1.41,0-3.46,0.26-5.76,0.26c-8.19,0-19.84-2.94-24.83-29.31
	c-1.54-8.06-5.38-16.77-14.98-16.77C243.77,319.1,239.42,329.98,240.7,339.97z M313.97,329.47c0-8.45-6.27-8.7-6.27-11.65
	c0-1.41,0.51-3.07,2.69-3.07h44.8c1.28,0,2.56,0,3.84,0c19.71,0,38.91,0.77,38.91,26.88c0,33.92-46.34,24.83-46.34,35.58
	c0,8.58,44.03,5.63,50.05,39.55c1.15,6.53,7.81,6.91,7.81,10.11c0,1.15,0,3.07-2.82,3.07h-35.46c-2.18,0-2.69-1.66-2.69-3.07
	c0-2.94,5.38-3.07,5.38-9.73c0-21.12-28.03-21.25-28.03-39.94c0-13.95,25.09-9.86,25.09-34.3c0-9.86-3.97-22.91-16.13-22.91
	c-9.22,0-13.82,7.04-13.82,15.1c0,25.34,6.02,19.84,6.02,31.49c0,11.39-6.02,5.5-6.02,34.3v14.34c0,8.45,6.27,8.7,6.27,11.65
	c0,1.41-0.51,3.07-2.69,3.07h-34.05c-2.18,0-2.69-1.66-2.69-3.07c0-2.94,6.27-3.2,6.27-11.65v-13.06
	c0-35.71,27.14-26.88,27.14-35.58C341.23,358.91,313.97,372.09,313.97,329.47z M414.57,406.27c0-24.7,26.75-36.35,26.75-72.83
	c0-8.32-4.61-4.74-4.61-9.34c0-4.74,24.83-9.34,27.65-9.34c4.48,0,8.06,1.79,10.11,8.83c10.11,34.69,14.59,28.54,17.28,37.12
	c2.82,9.09-3.84,6.91,4.22,34.56l6.4,21.89c1.92,6.66,3.33,6.91,4.86,6.91c3.84,0,3.97-6.14,3.97-8.83v-85.76
	c0-8.45-6.27-8.7-6.27-11.65c0-1.41,0.51-3.07,2.69-3.07h13.57c2.18,0,2.69,1.66,2.69,3.07c0,2.94-6.27,3.2-6.27,11.65v87.68
	c0,13.06-11.26,13.18-21.89,13.18c-12.93,0-17.15-1.02-21.25-13.18l-4.35-12.93c-11.39-33.92,18.05-33.28,15.74-41.73
	c-0.64-2.3-2.18-2.82-4.35-2.82c-1.92,0-4.35,0.51-7.04,0.51c-7.94,0-18.3-3.71-26.5-32c0,44.67-23.68,59.14-23.68,75.52
	c0,13.06,9.34,19.33,16.64,19.33c4.61,0,8.45-2.56,8.45-7.55c0-9.6-15.36-11.14-15.36-22.14c0-6.78,4.99-12.03,11.9-12.03
	c12.8,0,16.77,14.46,16.77,24.83c0,16.9-11.52,24.96-23.42,24.96C427.12,431.1,414.57,422.4,414.57,406.27z M528.95,402.56
	c0-32,41.47-33.54,41.47-36.48c0-5.25-39.94-1.41-39.94-27.01c0-22.02,21.76-25.6,39.17-25.6c14.85,0,42.11,2.94,42.11,22.4
	c0,6.02-5.63,10.62-11.39,10.62c-18.3,0-10.24-26.5-27.01-26.5c-9.6,0-16,10.24-16,19.07c0,18.18,18.18,16.26,18.18,27.65
	c0,10.37-19.97,12.93-19.97,37.38c0,12.03,3.84,20.61,18.05,20.61c16.77,0,8.7-26.5,27.01-26.5c5.76,0,11.39,4.61,11.39,10.62
	c0,19.58-27.39,22.4-42.11,22.4C549.68,431.23,528.95,426.62,528.95,402.56z M623.34,329.47c0-8.45-6.27-8.7-6.27-11.65
	c0-1.41,0.51-3.07,2.69-3.07h34.05c2.18,0,2.69,1.66,2.69,3.07c0,2.94-6.27,3.2-6.27,11.65c0,31.87,6.14,24.7,6.14,37.12
	c0,11.39-6.02,5.5-6.02,34.3v9.6c0,10.11,6.4,13.7,13.95,13.7c19.07,0,10.37-23.17,26.5-23.17c6.27,0,9.98,4.48,9.98,10.75
	c0,12.67-18.18,18.18-29.7,18.18h-51.2c-2.18,0-2.69-1.66-2.69-3.07c0-2.94,6.27-3.2,6.27-11.65v-13.06
	c0-35.71,27.14-26.88,27.14-35.58C650.61,358.91,623.34,372.09,623.34,329.47z M711.84,329.47c0-8.45-6.27-8.7-6.27-11.65
	c0-1.41,0.51-3.07,2.69-3.07h34.05c2.18,0,2.69,1.66,2.69,3.07c0,2.94-6.27,3.2-6.27,11.65c0,31.87,6.14,24.7,6.14,37.12
	c0,11.39-6.02,5.5-6.02,34.3v9.6c0,10.11,6.4,13.7,13.95,13.7c19.07,0,10.37-23.17,26.5-23.17c6.27,0,9.98,4.48,9.98,10.75
	c0,12.67-18.18,18.18-29.7,18.18h-51.2c-2.18,0-2.69-1.66-2.69-3.07c0-2.94,6.27-3.2,6.27-11.65v-13.06
	c0-35.71,27.14-26.88,27.14-35.58C739.11,358.91,711.84,372.09,711.84,329.47z M817.75,431.23c-12.16,0-23.55-4.74-23.55-18.56
	c0-20.1,18.18-29.7,30.21-48c-11.26-7.55-21.25-16-21.25-34.05c0-3.58,2.05-7.55,6.78-7.55c3.33,0,5.63,2.56,5.63,5.76
	c0,2.18-1.15,4.35-1.15,7.17c0,12.16,5.5,18.56,12.8,23.94c4.35-8.06,7.3-17.79,7.3-30.46c0-8.45-5.89-8.7-5.89-11.65
	c0-1.41,0.51-3.07,2.69-3.07h25.34c4.48,0,8.58,1.79,10.12,8.83c7.29,33.66,10.75,26.62,12.8,34.82c2.3,9.34-4.36,6.53,1.92,34.82
	l5.5,23.94c1.54,7.17,7.68,6.27,7.68,9.73c0,1.15,0,3.07-2.82,3.07h-35.45c-2.18,0-2.69-1.66-2.69-3.07c0-2.69,5.38-3.07,5.63-8.06
	c0.13-2.56-2.69-12.8-4.09-18.3c-4.35-17.02-11.39-22.91-25.6-32.26c-10.37,17.79-24.58,28.16-24.58,42.37c0,4.99,2.94,8.7,7.94,8.7
	c12.54,0,8.45-20.1,23.42-20.1c6.4,0,11.14,4.1,11.14,10.62C847.57,424.06,832.21,431.23,817.75,431.23z M832.34,363.39
	c7.55,4.99,16,10.11,22.02,19.46c3.46-16.64,20.86-16.51,19.33-23.04c-2.31-9.86-22.02,8.7-33.41-31.62
	C840.28,342.78,836.95,354.05,832.34,363.39z M931.83,406.27c0-24.7,26.75-36.35,26.75-72.83c0-8.32-4.61-4.74-4.61-9.34
	c0-4.74,24.83-9.34,27.65-9.34c4.48,0,8.06,1.79,10.11,8.83c10.11,34.69,14.59,28.54,17.28,37.12c2.82,9.09-3.84,6.91,4.22,34.56
	l6.4,21.89c1.92,6.66,3.33,6.91,4.87,6.91c3.84,0,3.97-6.14,3.97-8.83v-85.76c0-8.45-6.28-8.7-6.28-11.65
	c0-1.41,0.52-3.07,2.69-3.07h13.57c2.18,0,2.69,1.66,2.69,3.07c0,2.94-6.27,3.2-6.27,11.65v87.68c0,13.06-11.27,13.18-21.89,13.18
	c-12.93,0-17.15-1.02-21.25-13.18l-4.35-12.93c-11.39-33.92,18.05-33.28,15.74-41.73c-0.64-2.3-2.17-2.82-4.35-2.82
	c-1.92,0-4.35,0.51-7.04,0.51c-7.94,0-18.3-3.71-26.5-32c0,44.67-23.68,59.14-23.68,75.52c0,13.06,9.35,19.33,16.64,19.33
	c4.61,0,8.45-2.56,8.45-7.55c0-9.6-15.36-11.14-15.36-22.14c0-6.78,4.99-12.03,11.91-12.03c12.8,0,16.76,14.46,16.76,24.83
	c0,16.9-11.52,24.96-23.42,24.96C944.37,431.1,931.83,422.4,931.83,406.27z M1046.2,402.56c0-32,41.47-33.54,41.47-36.48
	c0-5.25-39.93-1.41-39.93-27.01c0-22.02,21.76-25.6,39.16-25.6c14.85,0,42.12,2.94,42.12,22.4c0,6.02-5.64,10.62-11.4,10.62
	c-18.3,0-10.24-26.5-27-26.5c-9.6,0-16,10.24-16,19.07c0,18.18,18.17,16.26,18.17,27.65c0,10.37-19.97,12.93-19.97,37.38
	c0,12.03,3.84,20.61,18.05,20.61c16.77,0,8.71-26.5,27.01-26.5c5.76,0,11.39,4.61,11.39,10.62c0,19.58-27.39,22.4-42.11,22.4
	C1066.94,431.23,1046.2,426.62,1046.2,402.56z M1186.55,431.49c-35.33,0-52.1-32.51-52.1-65.02c0-27.39,13.57-52.99,44.67-52.99
	c13.95,0,39.3,3.97,39.3,22.4c0,6.02-5.63,10.62-11.39,10.62c-20.87,0-15.75-26.88-30.47-26.88c-5.76,0-9.09,3.84-9.09,9.86
	c0,42.62-27.26,29.44-27.26,37.12c0,7.42,20.61,1.79,25.6,22.66c4.22,17.54,13.44,31.49,27.65,31.49c18.81,0,27.9-13.57,27.9-32
	c0-12.54-5.5-24.06-16.64-24.06c-4.86,0-8.06,3.46-8.06,8.19c0,9.6,15.36,11.14,15.36,22.14c0,6.02-3.97,11.9-10.5,11.9
	c-12.93,0-18.17-13.82-18.17-24.7c0-11.78,7.16-25.09,21.37-25.09c15.11,0,22.53,14.34,22.53,30.34
	C1227.25,413.31,1212.27,431.49,1186.55,431.49z M1235.47,329.47c0-8.45-6.27-8.7-6.27-11.65c0-1.41,0.51-3.07,2.69-3.07h44.8
	c1.28,0,2.56,0,3.84,0c19.71,0,38.91,0.77,38.91,26.88c0,33.92-46.34,24.83-46.34,35.58c0,8.58,44.03,5.63,50.05,39.55
	c1.15,6.53,7.81,6.91,7.81,10.11c0,1.15,0,3.07-2.82,3.07h-35.45c-2.18,0-2.69-1.66-2.69-3.07c0-2.94,5.37-3.07,5.37-9.73
	c0-21.12-28.03-21.25-28.03-39.94c0-13.95,25.09-9.86,25.09-34.3c0-9.86-3.97-22.91-16.13-22.91c-9.21,0-13.82,7.04-13.82,15.1
	c0,25.34,6.01,19.84,6.01,31.49c0,11.39-6.01,5.5-6.01,34.3v14.34c0,8.45,6.27,8.7,6.27,11.65c0,1.41-0.51,3.07-2.69,3.07h-34.05
	c-2.17,0-2.68-1.66-2.68-3.07c0-2.94,6.27-3.2,6.27-11.65v-13.06c0-35.71,27.13-26.88,27.13-35.58
	C1262.73,358.91,1235.47,372.09,1235.47,329.47z M1326.83,366.97c0-27.39,12.8-53.63,43-53.63c36.23,0,49.16,34.82,49.16,64.38
	c0,28.03-12.8,53.5-43.14,53.5C1339.63,431.23,1326.83,396.67,1326.83,366.97z M1353.58,339.97c5.12,41.73-25.09,33.66-24.32,38.78
	c0.13,0.9,1.02,1.15,2.56,1.15c1.53,0,3.45-0.26,5.76-0.26c8.19,0,19.97,2.94,24.96,29.31c1.53,8.06,5.25,16.77,14.85,16.77
	c11.39,0,15.74-10.88,14.46-20.86c-5.38-41.73,25.09-33.66,24.32-38.78c-0.13-0.9-1.02-1.15-2.56-1.15c-1.41,0-3.46,0.26-5.76,0.26
	c-8.19,0-19.84-2.94-24.83-29.31c-1.54-8.06-5.38-16.77-14.98-16.77C1356.65,319.1,1352.3,329.98,1353.58,339.97z"/>
<path class="st2" d="M1213.01,466.28c2.51,0,4.45,0.7,5.82,2.11c1.39,1.39,2.08,3.36,2.08,5.92c0,2.65-0.43,4.93-1.28,6.85
	c-0.83,1.92-2.07,3.4-3.71,4.45c-1.62,1.02-3.6,1.54-5.92,1.54c-0.9,0-1.98-0.02-3.23-0.06c-1.26-0.02-2.44-0.06-3.52-0.13h-0.04
	l0.96-6.18l1.64-14.37h0.03L1213.01,466.28z M1210.64,484.61c2.22,0,3.92-0.82,5.12-2.46c1.21-1.66,1.82-4.1,1.82-7.3
	c0-2.03-0.4-3.53-1.21-4.51c-0.81-0.98-2.05-1.47-3.72-1.47c-1.15,0-2.49,0.04-4.03,0.13l-1.63,11.52l-0.35,3.87
	c0.74,0.06,1.48,0.12,2.21,0.16C1209.59,484.59,1210.19,484.61,1210.64,484.61z M1225.87,483.4l-0.16,3.46l-3.04,0.22l1.66-11.55
	l0.13-3.23l2.98-0.22L1225.87,483.4z M1226.64,465.48c0.51,0,0.9,0.15,1.18,0.45c0.3,0.3,0.45,0.71,0.45,1.25
	c0,0.55-0.16,0.99-0.48,1.31c-0.32,0.32-0.75,0.48-1.28,0.48s-0.95-0.15-1.25-0.45c-0.28-0.3-0.42-0.71-0.42-1.25
	c0-0.55,0.16-0.99,0.48-1.31C1225.64,465.64,1226.08,465.48,1226.64,465.48z M1235.94,471.97c0.93,0.21,1.89,0.49,2.88,0.83
	l-0.84,2.72l-0.44,0.13c-0.9-1.02-1.81-1.54-2.72-1.54c-0.56,0-1.03,0.19-1.41,0.58c-0.36,0.38-0.55,0.82-0.55,1.31
	c0,0.43,0.16,0.8,0.48,1.12c0.32,0.32,0.8,0.7,1.44,1.15c0.94,0.64,1.66,1.26,2.15,1.86c0.51,0.58,0.77,1.33,0.77,2.27
	c0,0.92-0.26,1.74-0.77,2.46c-0.49,0.73-1.19,1.3-2.08,1.73c-0.88,0.4-1.88,0.61-3.01,0.61c-1.26-0.17-2.4-0.52-3.42-1.06l0.76-2.82
	l0.42-0.16c0.45,0.64,0.96,1.13,1.54,1.47c0.57,0.34,1.14,0.51,1.69,0.51c0.62,0,1.12-0.19,1.51-0.58c0.38-0.41,0.57-0.86,0.57-1.38
	c0-0.47-0.17-0.88-0.51-1.22c-0.32-0.36-0.83-0.78-1.54-1.25c-0.91-0.66-1.62-1.27-2.11-1.82c-0.47-0.55-0.7-1.28-0.7-2.18
	c0-0.92,0.26-1.74,0.8-2.46c0.53-0.72,1.25-1.29,2.14-1.7C1233.89,472.18,1234.87,471.97,1235.94,471.97z M1249,482.25l0.96,1.25
	c-1.37,2.01-3.09,3.23-5.15,3.68h-0.42c-1.49-0.17-2.59-0.68-3.3-1.54c-0.68-0.88-1.02-2.16-1.02-3.87c0-1.88,0.31-3.54,0.93-4.99
	c0.62-1.47,1.48-2.63,2.59-3.49c1.11-0.85,2.38-1.31,3.81-1.38l0.32,0.03c0.98,0.15,1.73,0.49,2.24,1.02
	c0.53,0.53,0.8,1.23,0.8,2.08c0,2.6-2.63,4.68-7.87,6.24c0.02,1.2,0.2,2.06,0.54,2.59c0.34,0.53,0.85,0.8,1.54,0.8
	c0.57,0,1.14-0.18,1.69-0.54c0.58-0.38,1.22-1.02,1.92-1.92L1249,482.25z M1246.69,474.05c-0.96,0-1.78,0.47-2.46,1.41
	c-0.66,0.94-1.08,2.21-1.25,3.81c3.35-1.02,5.03-2.36,5.03-4C1248.01,474.46,1247.57,474.05,1246.69,474.05z M1262.43,472.04
	c0.83,0.17,1.51,0.51,2.05,1.02c0.53,0.49,0.78,1.11,0.76,1.86l-0.03,0.42l-1.28,8.1l-0.16,3.42l-3.13,0.22l1.69-10.56l0.03-0.35
	c0-0.55-0.19-0.83-0.57-0.83c-0.6,0-1.41,0.7-2.43,2.11c-1.03,1.41-2.17,3.44-3.43,6.08l-0.13,3.33l-3.07,0.22l1.67-11.55l0.12-3.23
	l3.01-0.22l-0.93,6.59h0.32c0.96-1.62,1.84-2.94,2.63-3.97c0.81-1.05,1.65-1.93,2.53-2.66H1262.43z M1265.92,466.18v0.29l-2.05,2.43
	l-0.35,0.13c-0.35-0.04-0.83-0.14-1.44-0.29c-0.6-0.17-1.01-0.29-1.22-0.35c-1.26-0.36-2.03-0.54-2.3-0.54
	c-0.2,0-0.39,0.09-0.58,0.26c-0.19,0.15-0.46,0.41-0.8,0.77c-0.09,0.13-0.25,0.31-0.48,0.54h-0.32l-0.93-0.96v-0.29l2.05-2.43
	l0.35-0.1c0.73,0.11,1.63,0.32,2.72,0.64c1.15,0.32,1.89,0.48,2.21,0.48c0.21,0,0.43-0.08,0.64-0.26c0.23-0.19,0.48-0.42,0.74-0.67
	c0.25-0.28,0.43-0.48,0.54-0.61h0.26L1265.92,466.18z M1279.73,472.13l-1.57,11.26l-0.13,3.46l-3.07,0.22l0.83-5.82h-0.35
	c-1.39,2.37-2.88,4.35-4.48,5.95h-0.51c-1.86-0.88-2.79-2.59-2.79-5.15c0-1.47,0.28-2.92,0.83-4.35c0.58-1.43,1.43-2.66,2.56-3.68
	c1.16-1.05,2.54-1.73,4.16-2.05h0.16l2.15,0.77l1.89-0.8L1279.73,472.13z M1271.31,483.97c0.28,0,0.69-0.32,1.25-0.96
	c0.55-0.64,1.18-1.59,1.89-2.85c0.72-1.26,1.45-2.76,2.17-4.51v-0.48l-2.01-0.77c-1.28,0-2.3,0.64-3.04,1.92
	c-0.75,1.28-1.12,2.9-1.12,4.86c0,1,0.08,1.72,0.25,2.14C1270.87,483.76,1271.07,483.97,1271.31,483.97z M1295.19,464.42
	l-2.69,18.98l-0.13,3.46l-3.07,0.22l0.83-5.82h-0.35c-1.36,2.33-2.87,4.31-4.51,5.95h-0.54c-1.86-0.88-2.79-2.59-2.79-5.15
	c0-1.47,0.29-2.92,0.87-4.35c0.57-1.43,1.44-2.67,2.59-3.71c1.15-1.04,2.54-1.72,4.16-2.02h0.16l1.63,0.61l0.67-4.7l0.07-3.23
	L1295.19,464.42z M1285.59,484.01c0.26,0,0.66-0.31,1.22-0.93c0.55-0.64,1.19-1.58,1.92-2.82c0.74-1.24,1.47-2.7,2.17-4.38l0.1-0.7
	l-2.05-0.77c-1.3,0-2.34,0.64-3.1,1.92c-0.77,1.28-1.16,2.89-1.16,4.83c0,1.02,0.09,1.76,0.26,2.21
	C1285.12,483.79,1285.33,484.01,1285.59,484.01z M1304.19,471.94c1.21,0.23,2.13,0.76,2.75,1.57c0.64,0.81,0.96,1.96,0.96,3.46
	c0,3.01-0.65,5.43-1.95,7.26c-1.28,1.83-3.07,2.84-5.38,3.01l-0.32-0.03c-1.26-0.26-2.21-0.8-2.85-1.63
	c-0.61-0.83-0.92-2.03-0.92-3.58c0-1.92,0.3-3.62,0.89-5.09c0.6-1.49,1.45-2.67,2.56-3.52c1.11-0.88,2.42-1.35,3.94-1.44H1304.19z
	 M1303.29,474.37c-1.34,0-2.34,0.67-3.01,2.02c-0.66,1.32-0.99,3.19-0.99,5.6c0,1.02,0.13,1.76,0.39,2.21
	c0.27,0.45,0.73,0.67,1.37,0.67c1.33,0,2.32-0.67,2.98-2.02c0.66-1.36,0.99-3.25,0.99-5.66c0-1.02-0.14-1.75-0.42-2.18
	C1304.35,474.59,1303.91,474.37,1303.29,474.37z M1320.28,472.13l-0.57,4.03l-0.26,0.16l-0.35-0.06c-0.71,0.11-1.35,0.38-1.92,0.83
	c-0.58,0.45-1.19,1.2-1.83,2.24c-0.61,1.05-1.31,2.51-2.08,4.38l-0.12,3.14l-3.08,0.22l1.7-11.55l0.13-3.23l2.97-0.22l-0.89,6.37
	h0.32c0.66-1.28,1.4-2.43,2.21-3.46c0.83-1.04,1.81-2.02,2.94-2.91L1320.28,472.13z M1332.57,472.13L1331,483.4l-0.13,3.46
	l-3.07,0.22l0.83-5.82h-0.35c-1.39,2.37-2.88,4.35-4.48,5.95h-0.51c-1.86-0.88-2.79-2.59-2.79-5.15c0-1.47,0.28-2.92,0.84-4.35
	c0.57-1.43,1.43-2.66,2.56-3.68c1.15-1.05,2.54-1.73,4.16-2.05h0.16l2.14,0.77l1.89-0.8L1332.57,472.13z M1324.15,483.97
	c0.28,0,0.7-0.32,1.25-0.96c0.56-0.64,1.18-1.59,1.89-2.85c0.72-1.26,1.45-2.76,2.17-4.51v-0.48l-2.01-0.77
	c-1.28,0-2.29,0.64-3.04,1.92c-0.75,1.28-1.12,2.9-1.12,4.86c0,1,0.08,1.72,0.25,2.14C1323.72,483.76,1323.92,483.97,1324.15,483.97
	z M1355.31,466.21c2.13,0,4.08,0.46,5.85,1.38l-1.05,2.94l-0.32,0.06c-0.94-0.64-1.8-1.09-2.56-1.34c-0.77-0.28-1.62-0.42-2.53-0.42
	c-4.82,0-7.23,3.31-7.23,9.92c0,2.01,0.41,3.48,1.24,4.42c0.86,0.94,2.17,1.41,3.94,1.41c0.49,0,0.98-0.04,1.47-0.13
	c0.51-0.11,1.16-0.29,1.95-0.54l0.36-2.14l0.35-3.26l2.94-0.22l-0.41,3.04l-0.48,4.64c-1.24,0.43-2.35,0.75-3.33,0.96
	c-0.98,0.19-2.02,0.29-3.11,0.29c-2.66,0-4.69-0.71-6.08-2.14c-1.38-1.45-2.08-3.48-2.08-6.08c0-4.08,0.96-7.22,2.88-9.44
	C1349.03,467.32,1351.76,466.21,1355.31,466.21z M1372.22,472.13l-0.58,4.03l-0.25,0.16l-0.35-0.06c-0.71,0.11-1.35,0.38-1.92,0.83
	c-0.58,0.45-1.19,1.2-1.83,2.24c-0.62,1.05-1.31,2.51-2.08,4.38l-0.13,3.14l-3.07,0.22l1.7-11.55l0.13-3.23l2.97-0.22l-0.89,6.37
	h0.32c0.66-1.28,1.39-2.43,2.2-3.46c0.84-1.04,1.82-2.02,2.95-2.91L1372.22,472.13z M1384.51,472.13l-1.57,11.26l-0.13,3.46
	l-3.07,0.22l0.83-5.82h-0.35c-1.39,2.37-2.88,4.35-4.48,5.95h-0.51c-1.86-0.88-2.79-2.59-2.79-5.15c0-1.47,0.28-2.92,0.83-4.35
	c0.58-1.43,1.43-2.66,2.56-3.68c1.16-1.05,2.54-1.73,4.16-2.05h0.16l2.15,0.77l1.89-0.8L1384.51,472.13z M1376.09,483.97
	c0.28,0,0.69-0.32,1.25-0.96c0.55-0.64,1.18-1.59,1.89-2.85c0.72-1.26,1.45-2.76,2.17-4.51v-0.48l-2.01-0.77
	c-1.28,0-2.3,0.64-3.04,1.92c-0.75,1.28-1.12,2.9-1.12,4.86c0,1,0.08,1.72,0.25,2.14C1375.65,483.76,1375.86,483.97,1376.09,483.97z
	 M1400.71,472.2l-1.56,11.2l-0.13,3.46l-3.07,0.22l1.66-11.55l0.03-1.06h-5.47l-0.83,6.05l-0.93,6.72l-0.13,3.46l-3.1,0.22
	l1.47-10.05l0.83-6.4h-2.17l-0.16-0.22l0.22-1.73h2.4l0.22-1.79c0.3-2.07,0.95-3.64,1.96-4.7c1-1.07,2.43-1.6,4.28-1.6l3.68,0.74
	l0.1,0.26l-0.7,2.34l-0.45,0.1c-1.22-0.79-2.28-1.18-3.2-1.18c-0.75,0-1.38,0.29-1.89,0.86c-0.49,0.55-0.81,1.36-0.96,2.43
	l-0.35,2.56h5.6l2.43-0.51L1400.71,472.2z M1412.74,472.68l0.19,0.42l-0.83,2.37l-0.64,0.06c-0.41-0.47-0.77-0.78-1.09-0.93
	c-0.32-0.17-0.67-0.26-1.05-0.26c-1.11,0-2,0.61-2.66,1.82c-0.64,1.2-0.96,2.85-0.96,4.96c0,1.28,0.13,2.19,0.38,2.72
	c0.26,0.51,0.69,0.77,1.28,0.77c1.03,0,2.06-0.89,3.11-2.66l0.41,0.03l0.93,1.22c-0.66,1.13-1.35,1.99-2.08,2.59
	c-0.72,0.6-1.59,1.06-2.59,1.38h-0.45c-1.36-0.21-2.35-0.72-2.94-1.5c-0.6-0.81-0.9-2.12-0.9-3.94c0-1.84,0.28-3.49,0.83-4.96
	c0.58-1.47,1.44-2.63,2.6-3.49c1.15-0.88,2.58-1.31,4.28-1.31L1412.74,472.68z M1425.76,472.13l-1.57,11.26l-0.13,3.46l-3.07,0.22
	l0.83-5.82h-0.35c-1.39,2.37-2.88,4.35-4.48,5.95h-0.51c-1.86-0.88-2.79-2.59-2.79-5.15c0-1.47,0.28-2.92,0.83-4.35
	c0.58-1.43,1.43-2.66,2.56-3.68c1.16-1.05,2.54-1.73,4.16-2.05h0.16l2.15,0.77l1.89-0.8L1425.76,472.13z M1417.34,483.97
	c0.28,0,0.69-0.32,1.25-0.96c0.55-0.64,1.18-1.59,1.89-2.85c0.72-1.26,1.45-2.76,2.17-4.51v-0.48l-2.01-0.77
	c-1.28,0-2.3,0.64-3.04,1.92c-0.75,1.28-1.12,2.9-1.12,4.86c0,1,0.08,1.72,0.25,2.14C1416.9,483.76,1417.11,483.97,1417.34,483.97z"
	/>
<path class="st2" d="M216.64,269.26c1.22,0.4,2.11,0.95,2.69,1.63s0.86,1.57,0.86,2.66c0,2.13-0.77,3.76-2.3,4.86
	c-1.51,1.11-3.8,1.66-6.85,1.66c-2.03,0-3.63-0.04-4.8-0.13h-0.03l0.96-6.18l1.63-14.37l5.92-0.03c1.73,0,3.08,0.37,4.06,1.12
	c0.98,0.75,1.47,1.83,1.47,3.26c0,1.28-0.32,2.4-0.96,3.36C218.68,268.06,217.8,268.77,216.64,269.26z M217.03,264.3
	c0-0.88-0.26-1.5-0.77-1.89c-0.51-0.38-1.34-0.58-2.5-0.58h-2.18l-0.86,6.43l3.14,0.1C215.97,267.85,217.03,266.5,217.03,264.3z
	 M211.81,277.61c1.64,0,2.91-0.34,3.81-1.02c0.92-0.7,1.38-1.69,1.38-2.94c0-1.66-1-2.65-3.01-2.94l-3.62,0.03l-0.38,2.78
	l-0.38,3.97C210.63,277.57,211.36,277.61,211.81,277.61z M225.84,276.4l-0.16,3.46l-3.04,0.22l1.66-11.55l0.13-3.23l2.98-0.22
	L225.84,276.4z M226.6,258.48c0.51,0,0.91,0.15,1.18,0.45c0.3,0.3,0.45,0.71,0.45,1.25c0,0.55-0.16,0.99-0.48,1.31
	c-0.32,0.32-0.75,0.48-1.28,0.48c-0.53,0-0.95-0.15-1.25-0.45c-0.28-0.3-0.42-0.71-0.42-1.25c0-0.55,0.16-0.99,0.48-1.31
	C225.61,258.64,226.05,258.48,226.6,258.48z M238.53,275.25l0.96,1.25c-1.37,2.01-3.08,3.23-5.15,3.68h-0.42
	c-1.49-0.17-2.59-0.68-3.3-1.54c-0.68-0.88-1.02-2.16-1.02-3.87c0-1.88,0.31-3.54,0.93-4.99c0.62-1.47,1.48-2.64,2.59-3.49
	c1.11-0.85,2.38-1.31,3.81-1.38l0.32,0.03c0.98,0.15,1.73,0.49,2.24,1.02c0.53,0.53,0.8,1.23,0.8,2.08c0,2.6-2.62,4.68-7.87,6.24
	c0.02,1.2,0.2,2.06,0.54,2.59c0.34,0.53,0.85,0.8,1.54,0.8c0.58,0,1.14-0.18,1.7-0.54c0.58-0.38,1.22-1.02,1.92-1.92L238.53,275.25z
	 M236.22,267.05c-0.96,0-1.78,0.47-2.46,1.41c-0.66,0.94-1.08,2.21-1.25,3.81c3.35-1.02,5.02-2.36,5.02-4
	C237.54,267.46,237.1,267.05,236.22,267.05z M251.96,265.04c0.83,0.17,1.52,0.51,2.05,1.02c0.53,0.49,0.79,1.11,0.77,1.86
	l-0.03,0.42l-1.28,8.1l-0.16,3.42l-3.14,0.22l1.7-10.56l0.03-0.35c0-0.55-0.19-0.83-0.58-0.83c-0.6,0-1.41,0.7-2.43,2.11
	c-1.02,1.41-2.17,3.43-3.42,6.08l-0.13,3.33l-3.07,0.22l1.66-11.55l0.13-3.23l3.01-0.22l-0.93,6.59h0.32
	c0.96-1.62,1.83-2.94,2.62-3.97c0.81-1.04,1.65-1.93,2.53-2.66H251.96z M268.28,265.01c0.45,0.83,0.67,1.68,0.67,2.56
	c0,1.17-0.47,2.6-1.41,4.29l-4.7,8.1h-3.36l-1.63-14.66l3.01-0.22l0.1,2.62l0.67,9.06h0.26l3.2-5.73c0.64-1.17,0.96-2.15,0.96-2.94
	c0-0.66-0.24-1.36-0.7-2.11l0.13-0.35L268.28,265.01z M278.65,275.25l0.96,1.25c-1.37,2.01-3.08,3.23-5.15,3.68h-0.42
	c-1.49-0.17-2.59-0.68-3.3-1.54c-0.68-0.88-1.02-2.16-1.02-3.87c0-1.88,0.31-3.54,0.93-4.99c0.62-1.47,1.48-2.64,2.59-3.49
	c1.11-0.85,2.38-1.31,3.81-1.38l0.32,0.03c0.98,0.15,1.73,0.49,2.24,1.02c0.53,0.53,0.8,1.23,0.8,2.08c0,2.6-2.62,4.68-7.87,6.24
	c0.02,1.2,0.2,2.06,0.54,2.59c0.34,0.53,0.85,0.8,1.54,0.8c0.58,0,1.14-0.18,1.7-0.54c0.58-0.38,1.22-1.02,1.92-1.92L278.65,275.25z
	 M276.35,267.05c-0.96,0-1.78,0.47-2.46,1.41c-0.66,0.94-1.08,2.21-1.25,3.81c3.35-1.02,5.02-2.36,5.02-4
	C277.66,267.46,277.22,267.05,276.35,267.05z M292.08,265.04c0.83,0.17,1.52,0.51,2.05,1.02c0.53,0.49,0.79,1.11,0.77,1.86
	l-0.03,0.42l-1.28,8.1l-0.16,3.42l-3.14,0.22l1.7-10.56l0.03-0.35c0-0.55-0.19-0.83-0.58-0.83c-0.6,0-1.41,0.7-2.43,2.11
	c-1.02,1.41-2.17,3.43-3.42,6.08l-0.13,3.33l-3.07,0.22l1.66-11.55l0.13-3.23l3.01-0.22l-0.93,6.59h0.32
	c0.96-1.62,1.83-2.94,2.62-3.97c0.81-1.04,1.65-1.93,2.53-2.66H292.08z M300.84,276.4l-0.16,3.46l-3.04,0.22l1.66-11.55l0.13-3.23
	l2.98-0.22L300.84,276.4z M301.6,258.48c0.51,0,0.91,0.15,1.18,0.45c0.3,0.3,0.45,0.71,0.45,1.25c0,0.55-0.16,0.99-0.48,1.31
	c-0.32,0.32-0.75,0.48-1.28,0.48c-0.53,0-0.95-0.15-1.25-0.45c-0.28-0.3-0.42-0.71-0.42-1.25c0-0.55,0.16-0.99,0.48-1.31
	C300.61,258.64,301.05,258.48,301.6,258.48z M317.72,257.42l-2.69,18.98l-0.13,3.46l-3.07,0.22l0.83-5.82h-0.35
	c-1.37,2.33-2.87,4.31-4.51,5.95h-0.54c-1.86-0.88-2.78-2.59-2.78-5.15c0-1.47,0.29-2.92,0.86-4.35c0.58-1.43,1.44-2.67,2.59-3.71
	c1.15-1.05,2.54-1.72,4.16-2.02h0.16l1.63,0.61l0.67-4.7l0.06-3.23L317.72,257.42z M308.12,277.01c0.26,0,0.66-0.31,1.22-0.93
	c0.55-0.64,1.19-1.58,1.92-2.82c0.75-1.24,1.47-2.7,2.18-4.38l0.1-0.7l-2.05-0.77c-1.3,0-2.34,0.64-3.1,1.92s-1.15,2.89-1.15,4.83
	c0,1.02,0.09,1.76,0.26,2.21C307.65,276.79,307.86,277.01,308.12,277.01z M326.72,264.94c1.22,0.23,2.13,0.76,2.75,1.57
	c0.64,0.81,0.96,1.96,0.96,3.46c0,3.01-0.65,5.43-1.95,7.26c-1.28,1.83-3.07,2.84-5.38,3.01l-0.32-0.03
	c-1.26-0.26-2.21-0.8-2.85-1.63c-0.62-0.83-0.93-2.03-0.93-3.58c0-1.92,0.3-3.62,0.9-5.09c0.6-1.49,1.45-2.67,2.56-3.52
	c1.11-0.88,2.42-1.36,3.94-1.44H326.72z M325.82,267.37c-1.34,0-2.35,0.67-3.01,2.02c-0.66,1.32-0.99,3.19-0.99,5.6
	c0,1.02,0.13,1.76,0.38,2.21c0.28,0.45,0.74,0.67,1.38,0.67c1.32,0,2.31-0.67,2.98-2.02c0.66-1.36,0.99-3.25,0.99-5.66
	c0-1.02-0.14-1.75-0.42-2.18C326.88,267.59,326.44,267.37,325.82,267.37z M338.72,264.97c0.94,0.21,1.9,0.49,2.88,0.83l-0.83,2.72
	l-0.45,0.13c-0.9-1.02-1.8-1.54-2.72-1.54c-0.55,0-1.02,0.19-1.41,0.58c-0.36,0.38-0.54,0.82-0.54,1.31c0,0.43,0.16,0.8,0.48,1.12
	c0.32,0.32,0.8,0.7,1.44,1.15c0.94,0.64,1.65,1.26,2.14,1.86c0.51,0.58,0.77,1.33,0.77,2.27c0,0.92-0.26,1.74-0.77,2.46
	c-0.49,0.72-1.18,1.3-2.08,1.73c-0.87,0.4-1.88,0.61-3.01,0.61c-1.26-0.17-2.4-0.52-3.42-1.06l0.77-2.82l0.42-0.16
	c0.45,0.64,0.96,1.13,1.54,1.47c0.58,0.34,1.14,0.51,1.7,0.51c0.62,0,1.12-0.19,1.5-0.58c0.38-0.4,0.58-0.86,0.58-1.38
	c0-0.47-0.17-0.88-0.51-1.22c-0.32-0.36-0.83-0.78-1.54-1.25c-0.92-0.66-1.62-1.27-2.11-1.82c-0.47-0.55-0.7-1.28-0.7-2.18
	c0-0.92,0.27-1.74,0.8-2.46c0.53-0.73,1.25-1.29,2.14-1.7S337.65,264.97,338.72,264.97z M359.32,265.13l-1.57,11.26l-0.13,3.46
	l-3.07,0.22l0.83-5.82h-0.35c-1.39,2.37-2.88,4.35-4.48,5.95h-0.51c-1.86-0.88-2.78-2.59-2.78-5.15c0-1.47,0.28-2.92,0.83-4.35
	c0.58-1.43,1.43-2.66,2.56-3.68c1.15-1.04,2.54-1.73,4.16-2.05h0.16l2.14,0.77l1.89-0.8L359.32,265.13z M350.9,276.97
	c0.28,0,0.69-0.32,1.25-0.96c0.55-0.64,1.18-1.59,1.89-2.85c0.73-1.26,1.45-2.76,2.18-4.51v-0.48l-2.02-0.77
	c-1.28,0-2.29,0.64-3.04,1.92c-0.75,1.28-1.12,2.9-1.12,4.86c0,1,0.09,1.72,0.26,2.14C350.46,276.76,350.67,276.97,350.9,276.97z
	 M389.14,279.95h-3.84l-0.32-6.24l-0.74-7.94h-0.32l-4.61,12h-3.36l-4.19-12h-0.29l-0.8,7.52l-0.45,6.66h-3.65l2.08-20.61h4.99
	l0.83,3.04l3.26,9.76h0.29l3.42-9.76l0.93-3.04h4.9L389.14,279.95z M397.33,273.42l0.19,6.53h-4.35l0.22-6.14l-0.22-14.46h4.42
	L397.33,273.42z M415.35,259.31c2.15,0,3.81,0.54,4.96,1.63c1.17,1.09,1.76,2.64,1.76,4.67c0,1.56-0.34,2.92-1.02,4.1
	c-0.68,1.15-1.66,2.05-2.94,2.69c-1.26,0.64-2.74,0.96-4.45,0.96h-2.05v0.06l0.19,6.53h-4.35l0.22-6.14l-0.22-14.46L415.35,259.31z
	 M414.62,270.19c1.96-0.55,2.94-1.95,2.94-4.19c0-1.15-0.3-2.01-0.9-2.56c-0.58-0.58-1.47-0.89-2.69-0.93l-2.18,0.13l-0.13,7.42
	L414.62,270.19z M433.29,259.05c2.9,0,5.13,0.89,6.69,2.66c1.58,1.75,2.37,4.24,2.37,7.49c0,3.54-0.85,6.27-2.56,8.19
	c-1.71,1.92-4.12,2.88-7.23,2.88c-2.88,0-5.11-0.9-6.69-2.69c-1.56-1.81-2.34-4.37-2.34-7.68c0-3.48,0.84-6.15,2.53-8.03
	C427.77,259.99,430.18,259.05,433.29,259.05z M432.91,262.54c-1.71,0-2.94,0.53-3.71,1.6c-0.77,1.07-1.15,2.81-1.15,5.22
	c0,2.75,0.37,4.71,1.12,5.89c0.77,1.17,2.03,1.76,3.78,1.76c1.71,0,2.94-0.53,3.71-1.6c0.77-1.09,1.15-2.86,1.15-5.31
	c0-2.71-0.38-4.64-1.15-5.79C435.91,263.13,434.66,262.54,432.91,262.54z M456.36,271.76c1.66,2.64,3.32,5.03,4.96,7.17l-0.06,0.48
	c-1.39,0.49-2.8,0.78-4.26,0.86l-0.45-0.35c-1.54-2.64-2.78-4.95-3.74-6.91h-3.1v0.42l0.19,6.53h-4.35l0.22-6.14l-0.22-14.46
	l7.9-0.03c2.15,0,3.82,0.53,4.99,1.6c1.17,1.05,1.76,2.55,1.76,4.51c0,1.32-0.34,2.54-1.02,3.65
	C458.51,270.16,457.57,271.05,456.36,271.76z M449.76,269.65l3.17,0.13c1.81-0.62,2.72-1.93,2.72-3.94c0-1.09-0.3-1.9-0.9-2.43
	c-0.58-0.55-1.47-0.85-2.69-0.9l-2.18,0.13L449.76,269.65z M476.76,259.69l-0.26,3.23l-3.87-0.19h-1.28l-0.16,10.69l0.19,6.53h-4.35
	l0.22-6.14l-0.16-11.07h-1.28l-3.94,0.19l-0.29-0.35l0.29-3.23h14.62L476.76,259.69z M494.26,279.95h-4.42l-0.51-2.69l-0.54-1.92
	l-4.03-0.1l-3.55,0.1l-0.54,1.7l-0.54,2.91h-4.29l6.98-20.61h5.15L494.26,279.95z M487.86,271.98l-2.43-8.58h-0.29l-2.82,8.58
	l2.75,0.06L487.86,271.98z M501.61,262.8l-0.1,5.57l2.88,0.03l3.49-0.1l0.29,0.32l-0.32,3.23l-3.81-0.1l-2.59,0.03l-0.03,1.63
	l0.19,6.53h-4.35l0.22-6.14l-0.22-14.46h12.26l0.26,0.35l-0.32,3.26l-4.9-0.19L501.61,262.8z M520.01,259.05
	c2.9,0,5.13,0.89,6.69,2.66c1.58,1.75,2.37,4.24,2.37,7.49c0,3.54-0.85,6.27-2.56,8.19c-1.71,1.92-4.12,2.88-7.23,2.88
	c-2.88,0-5.11-0.9-6.69-2.69c-1.56-1.81-2.34-4.37-2.34-7.68c0-3.48,0.84-6.15,2.53-8.03C514.49,259.99,516.9,259.05,520.01,259.05z
	 M519.63,262.54c-1.71,0-2.94,0.53-3.71,1.6c-0.77,1.07-1.15,2.81-1.15,5.22c0,2.75,0.37,4.71,1.12,5.89
	c0.77,1.17,2.03,1.76,3.78,1.76c1.71,0,2.94-0.53,3.71-1.6c0.77-1.09,1.15-2.86,1.15-5.31c0-2.71-0.38-4.64-1.15-5.79
	C522.63,263.13,521.38,262.54,519.63,262.54z M543.56,276.72l-0.29,3.23h-11.14l0.22-6.14l-0.22-14.46h4.42l-0.26,14.08l0.1,2.94
	h6.91L543.56,276.72z M550.26,273.42l0.19,6.53h-4.35l0.22-6.14l-0.22-14.46h4.42L550.26,273.42z M563.42,259.05
	c2.9,0,5.13,0.89,6.69,2.66c1.58,1.75,2.37,4.24,2.37,7.49c0,3.54-0.85,6.27-2.56,8.19c-1.71,1.92-4.12,2.88-7.23,2.88
	c-2.88,0-5.11-0.9-6.69-2.69c-1.56-1.81-2.34-4.37-2.34-7.68c0-3.48,0.84-6.15,2.53-8.03C557.89,259.99,560.3,259.05,563.42,259.05z
	 M563.04,262.54c-1.71,0-2.94,0.53-3.71,1.6c-0.77,1.07-1.15,2.81-1.15,5.22c0,2.75,0.37,4.71,1.12,5.89
	c0.77,1.17,2.03,1.76,3.78,1.76c1.71,0,2.94-0.53,3.71-1.6c0.77-1.09,1.15-2.86,1.15-5.31c0-2.71-0.38-4.64-1.15-5.79
	C566.03,263.13,564.78,262.54,563.04,262.54z"/>
<path class="st2" d="M590.64,261.92c0.49,0,1.1,0.14,1.68,0.44c0.24,0.12,0.43,0.3,0.63,0.49c0.46,0.43,0.83,0.93,1.14,1.48
	c0.08,0.13,0.15,0.27,0.22,0.4c0.01,0.02,0.01,0.06,0.05,0.06c0.03,0,0.04-0.03,0.05-0.06c0.18-0.34,0.39-0.67,0.61-0.99
	c0.32-0.45,0.68-0.85,1.12-1.18c0.3-0.22,0.63-0.36,0.98-0.45c0.23-0.06,0.45-0.13,0.68-0.16c0.33-0.04,0.65-0.04,0.97-0.01
	c0.59,0.06,1.14,0.24,1.67,0.52c0.91,0.48,1.51,1.23,1.8,2.25c0.13,0.47,0.16,0.94,0.13,1.42c-0.02,0.52-0.16,1.01-0.32,1.5
	c-0.28,0.82-0.67,1.59-1.11,2.33c-0.25,0.42-0.55,0.8-0.85,1.18c-0.57,0.73-1.17,1.44-1.79,2.12c-0.56,0.62-1.13,1.22-1.72,1.81
	c-0.68,0.69-1.39,1.36-2.1,2.02c-0.05,0.04-0.1,0.11-0.14,0.12c-0.05,0-0.09-0.08-0.14-0.12c-0.72-0.65-1.42-1.32-2.1-2.01
	c-1-1-1.97-2.03-2.86-3.13c-0.68-0.84-1.32-1.71-1.85-2.67c-0.35-0.62-0.64-1.26-0.82-1.95c-0.11-0.45-0.18-0.92-0.18-1.39
	c0.01-0.74,0.15-1.45,0.52-2.09c0.42-0.73,1.01-1.23,1.75-1.56C589.25,262.06,589.86,261.92,590.64,261.92z"/>
<path class="st2" d="M1389.35,357.88c1.51-0.76,3.57-1.28,5.74-1.32c0.9-0.02,1.75,0.19,2.61,0.41c2,0.51,3.84,1.36,5.57,2.43
	c0.42,0.26,0.82,0.54,1.24,0.8c0.07,0.04,0.13,0.14,0.24,0.09c0.1-0.05,0.08-0.16,0.07-0.24c0.08-1.24,0.23-2.48,0.47-3.71
	c0.35-1.74,0.86-3.43,1.75-5.02c0.61-1.07,1.41-1.98,2.37-2.77c0.61-0.51,1.19-1.05,1.86-1.5c0.94-0.62,1.93-1.1,2.95-1.5
	c1.87-0.72,3.83-1.07,5.81-1.09c3.47-0.05,6.34,1.17,8.66,3.6c1.05,1.11,1.8,2.4,2.4,3.79c0.66,1.49,0.95,3.08,1.14,4.7
	c0.31,2.74,0.19,5.49-0.09,8.25c-0.16,1.56-0.56,3.09-0.93,4.63c-0.7,2.93-1.53,5.83-2.46,8.71c-0.82,2.59-1.73,5.15-2.68,7.71
	c-1.12,2.99-2.33,5.95-3.58,8.89c-0.08,0.2-0.13,0.46-0.27,0.56c-0.16,0.09-0.4-0.07-0.61-0.11c-3.09-0.75-6.19-1.56-9.24-2.44
	c-4.46-1.29-8.86-2.71-13.14-4.45c-3.26-1.32-6.44-2.81-9.4-4.67c-1.92-1.21-3.72-2.55-5.23-4.23c-0.99-1.11-1.85-2.3-2.51-3.64
	c-1.02-2.1-1.58-4.3-1.37-6.68c0.25-2.68,1.34-5.01,3.15-7.07C1385.31,360.4,1386.96,359.07,1389.35,357.88z"/>
<path class="st1" d="M-142.61-0.46v37.41h51.01c-0.01-0.17-0.01-0.33-0.01-0.5c0-8.01,6.49-14.5,14.5-14.5s14.5,6.49,14.5,14.5
	c0,0.17,0,0.33-0.01,0.5h18.02c-0.01-0.17-0.01-0.33-0.01-0.5c0-7.46,6.04-13.5,13.5-13.5s13.5,6.04,13.5,13.5
	c0,0.17-0.01,0.33-0.01,0.5H-1.6c-0.01-0.17-0.01-0.33-0.01-0.5c0-7.46,6.04-13.5,13.5-13.5s13.5,6.04,13.5,13.5
	c0,0.17-0.01,0.33-0.01,0.5H41.4c-0.01-0.17-0.01-0.33-0.01-0.5c0-7.46,6.04-13.5,13.5-13.5s13.5,6.04,13.5,13.5
	c0,0.17-0.01,0.33-0.01,0.5H84.4c-0.01-0.17-0.01-0.33-0.01-0.5c0-7.46,6.04-13.5,13.5-13.5s13.5,6.04,13.5,13.5
	c0,0.17-0.01,0.33-0.01,0.5h16.02c-0.01-0.17-0.01-0.33-0.01-0.5c0-7.46,6.04-13.5,13.5-13.5s13.5,6.04,13.5,13.5
	c0,0.17-0.01,0.33-0.01,0.5h16.02c-0.01-0.17-0.01-0.33-0.01-0.5c0-7.46,6.04-13.5,13.5-13.5s13.5,6.04,13.5,13.5
	c0,0.17-0.01,0.33-0.01,0.5h16.02c-0.01-0.17-0.01-0.33-0.01-0.5c0-7.46,6.04-13.5,13.5-13.5s13.5,6.04,13.5,13.5
	c0,0.17-0.01,0.33-0.01,0.5h16.02c-0.01-0.17-0.01-0.33-0.01-0.5c0-7.46,6.04-13.5,13.5-13.5s13.5,6.04,13.5,13.5
	c0,0.17-0.01,0.33-0.01,0.5h16.02c-0.01-0.17-0.01-0.33-0.01-0.5c0-7.46,6.04-13.5,13.5-13.5s13.5,6.04,13.5,13.5
	c0,0.17-0.01,0.33-0.01,0.5h19.02c-0.01-0.17-0.01-0.33-0.01-0.5c0-7.46,6.04-13.5,13.5-13.5s13.5,6.04,13.5,13.5
	c0,0.17-0.01,0.33-0.01,0.5h16.02c-0.01-0.17-0.01-0.33-0.01-0.5c0-7.46,6.04-13.5,13.5-13.5s13.5,6.04,13.5,13.5
	c0,0.17-0.01,0.33-0.01,0.5h16.02c-0.01-0.17-0.01-0.33-0.01-0.5c0-7.46,6.04-13.5,13.5-13.5s13.5,6.04,13.5,13.5
	c0,0.17-0.01,0.33-0.01,0.5h16.02c-0.01-0.17-0.01-0.33-0.01-0.5c0-7.46,6.04-13.5,13.5-13.5s13.5,6.04,13.5,13.5
	c0,0.17-0.01,0.33-0.01,0.5h16.02c-0.01-0.17-0.01-0.33-0.01-0.5c0-7.46,6.04-13.5,13.5-13.5s13.5,6.04,13.5,13.5
	c0,0.17-0.01,0.33-0.01,0.5h16.02c-0.01-0.17-0.01-0.33-0.01-0.5c0-7.46,6.04-13.5,13.5-13.5s13.5,6.04,13.5,13.5
	c0,0.17-0.01,0.33-0.01,0.5h16.02c-0.01-0.17-0.01-0.33-0.01-0.5c0-7.46,6.04-13.5,13.5-13.5s13.5,6.04,13.5,13.5
	c0,0.17-0.01,0.33-0.01,0.5h16.02c-0.01-0.17-0.01-0.33-0.01-0.5c0-7.46,6.04-13.5,13.5-13.5s13.5,6.04,13.5,13.5
	c0,0.17-0.01,0.33-0.01,0.5h16.02c-0.01-0.17-0.01-0.33-0.01-0.5c0-7.46,6.04-13.5,13.5-13.5s13.5,6.04,13.5,13.5
	c0,0.17-0.01,0.33-0.01,0.5h19.02c-0.01-0.17-0.01-0.33-0.01-0.5c0-7.46,6.04-13.5,13.5-13.5s13.5,6.04,13.5,13.5
	c0,0.17-0.01,0.33-0.01,0.5h16.02c-0.01-0.17-0.01-0.33-0.01-0.5c0-7.46,6.04-13.5,13.5-13.5s13.5,6.04,13.5,13.5
	c0,0.17-0.01,0.33-0.01,0.5h16.02c-0.01-0.17-0.01-0.33-0.01-0.5c0-7.46,6.04-13.5,13.5-13.5s13.5,6.04,13.5,13.5
	c0,0.17-0.01,0.33-0.01,0.5h16.02c-0.01-0.17-0.01-0.33-0.01-0.5c0-7.46,6.04-13.5,13.5-13.5c7.46,0,13.5,6.04,13.5,13.5
	c0,0.17,0,0.33-0.01,0.5h16.02c-0.01-0.17-0.01-0.33-0.01-0.5c0-7.46,6.04-13.5,13.5-13.5s13.5,6.04,13.5,13.5
	c0,0.17,0,0.33-0.01,0.5h16.02c-0.01-0.17-0.01-0.33-0.01-0.5c0-7.46,6.04-13.5,13.5-13.5s13.5,6.04,13.5,13.5
	c0,0.17,0,0.33-0.01,0.5h16.02c-0.01-0.17-0.01-0.33-0.01-0.5c0-7.46,6.04-13.5,13.5-13.5s13.5,6.04,13.5,13.5
	c0,0.17,0,0.33-0.01,0.5h16.02c-0.01-0.17-0.01-0.33-0.01-0.5c0-7.46,6.04-13.5,13.5-13.5s13.5,6.04,13.5,13.5
	c0,0.17,0,0.33-0.01,0.5h16.02c-0.01-0.17-0.01-0.33-0.01-0.5c0-7.46,6.04-13.5,13.5-13.5s13.5,6.04,13.5,13.5
	c0,0.17,0,0.33-0.01,0.5h19.02c-0.01-0.17-0.01-0.33-0.01-0.5c0-7.46,6.04-13.5,13.5-13.5s13.5,6.04,13.5,13.5
	c0,0.17,0,0.33-0.01,0.5h16.02c-0.01-0.17-0.01-0.33-0.01-0.5c0-7.46,6.04-13.5,13.5-13.5s13.5,6.04,13.5,13.5
	c0,0.17,0,0.33-0.01,0.5h16.02c-0.01-0.17-0.01-0.33-0.01-0.5c0-7.46,6.04-13.5,13.5-13.5s13.5,6.04,13.5,13.5
	c0,0.17,0,0.33-0.01,0.5h16.02c-0.01-0.17-0.01-0.33-0.01-0.5c0-7.46,6.04-13.5,13.5-13.5s13.5,6.04,13.5,13.5
	c0,0.17,0,0.33-0.01,0.5h16.02c-0.01-0.17-0.01-0.33-0.01-0.5c0-7.46,6.04-13.5,13.5-13.5s13.5,6.04,13.5,13.5
	c0,0.17,0,0.33-0.01,0.5h16.02c-0.01-0.17-0.01-0.33-0.01-0.5c0-7.46,6.04-13.5,13.5-13.5s13.5,6.04,13.5,13.5
	c0,0.17,0,0.33-0.01,0.5h16.02c-0.01-0.17-0.01-0.33-0.01-0.5c0-7.46,6.04-13.5,13.5-13.5s13.5,6.04,13.5,13.5
	c0,0.17,0,0.33-0.01,0.5h16.02c-0.01-0.17-0.01-0.33-0.01-0.5c0-7.46,6.04-13.5,13.5-13.5s13.5,6.04,13.5,13.5
	c0,0.17,0,0.33-0.01,0.5h16.02c-0.01-0.17-0.01-0.33-0.01-0.5c0-7.46,6.04-13.5,13.5-13.5s13.5,6.04,13.5,13.5
	c0,0.17,0,0.33-0.01,0.5h19.02c-0.01-0.17-0.01-0.33-0.01-0.5c0-7.46,6.04-13.5,13.5-13.5s13.5,6.04,13.5,13.5
	c0,0.17,0,0.33-0.01,0.5h16.02c-0.01-0.17-0.01-0.33-0.01-0.5c0-7.46,6.04-13.5,13.5-13.5s13.5,6.04,13.5,13.5
	c0,0.17,0,0.33-0.01,0.5h16.02c-0.01-0.17-0.01-0.33-0.01-0.5c0-7.46,6.04-13.5,13.5-13.5s13.5,6.04,13.5,13.5
	c0,0.17,0,0.33-0.01,0.5h15.02c-0.01-0.17-0.01-0.33-0.01-0.5c0-8.01,6.49-14.5,14.5-14.5s14.5,6.49,14.5,14.5
	c0,0.17,0,0.33-0.01,0.5h13.02c-0.01-0.17-0.01-0.33-0.01-0.5c0-8.01,6.49-14.5,14.5-14.5s14.5,6.49,14.5,14.5
	c0,0.17,0,0.33-0.01,0.5h63.01V-0.46H-142.61z"/>
</svg>
