<svg width="61" height="61" viewBox="0 0 61 61" fill="none" xmlns="http://www.w3.org/2000/svg">
<path d="M30.6914 60.2265C47.207 60.2265 60.5956 46.9177 60.5956 30.5005C60.5956 14.0833 47.207 0.774536 30.6914 0.774536C14.1757 0.774536 0.787109 14.0833 0.787109 30.5005C0.787109 46.9177 14.1757 60.2265 30.6914 60.2265Z" fill="#8E0001"/>
<path d="M30.9377 13.517C33.4263 13.517 35.919 13.4849 38.4077 13.5251C43.2032 13.6014 47.0331 16.9989 47.2109 21.7055C47.4129 27.0508 47.421 32.412 47.227 37.7572C47.0614 42.3314 43.3971 45.7811 38.5975 45.9458C33.4223 46.1225 28.2268 46.1265 23.0515 45.9377C18.1995 45.761 14.6685 41.978 14.6039 37.1468C14.5352 32.1952 14.5271 27.2435 14.6079 22.2959C14.6927 17.1716 18.4661 13.5693 23.6656 13.517C26.0896 13.497 28.5136 13.513 30.9377 13.517ZM44.2859 29.8017C44.2859 27.4604 44.3021 25.1231 44.2819 22.7818C44.2495 18.9868 41.9831 16.521 38.2299 16.4527C33.3213 16.3603 28.4086 16.3644 23.5 16.4607C20.066 16.529 17.6379 18.9466 17.5854 22.324C17.5086 27.2716 17.5127 32.2193 17.5894 37.1669C17.6419 40.4801 20.0175 42.8776 23.3343 42.9338C28.3763 43.0221 33.4223 43.0262 38.4642 42.9378C41.8861 42.8776 44.2132 40.4238 44.2697 37.0223C44.3142 34.6168 44.2819 32.2072 44.2859 29.8017Z" fill="white"/>
<path d="M39.8984 29.6893C39.9186 34.6369 35.9311 38.5766 30.8972 38.5806C26.0048 38.5846 22.0536 34.661 22.0294 29.7736C22.0092 24.9585 26.0007 20.8863 30.8124 20.8141C35.7048 20.7418 39.8822 24.822 39.8984 29.6893ZM36.6704 29.6331C36.626 26.4805 34.0121 23.9826 30.8043 24.0308C27.6531 24.079 25.1564 26.6934 25.2048 29.8901C25.2533 33.0305 27.9238 35.5927 31.0629 35.5164C34.202 35.4401 36.7149 32.8016 36.6704 29.6331Z" fill="white"/>
<path d="M41.87 21.5008C41.1388 21.9867 40.3469 22.9264 39.6844 22.8421C38.9774 22.7538 37.8947 21.6976 37.8987 21.0711C37.9027 20.4325 38.9774 19.3723 39.6803 19.288C40.3429 19.2077 41.1348 20.1554 41.866 20.6494C41.87 20.9305 41.87 21.2157 41.87 21.5008Z" fill="white"/>
</svg>
