<?xml version="1.0" encoding="utf-8"?>
<!-- Generator: Adobe Illustrator 25.2.1, SVG Export Plug-In . SVG Version: 6.00 Build 0)  -->
<svg version="1.1" id="Capa_1" xmlns="http://www.w3.org/2000/svg" xmlns:xlink="http://www.w3.org/1999/xlink" x="0px" y="0px"
	 viewBox="0 0 28.39 28.39" style="enable-background:new 0 0 28.39 28.39;" xml:space="preserve">
<style type="text/css">
	.st0{fill:#F4E1D6;stroke:#8E0F06;stroke-width:2;stroke-miterlimit:10;}
	.st1{fill:#8E0F06;}
</style>
<path class="st0" d="M22.61,27.39H5.78C3.14,27.39,1,25.25,1,22.61V5.78C1,3.14,3.14,1,5.78,1h16.83c2.64,0,4.78,2.14,4.78,4.78
	v16.83C27.39,25.25,25.25,27.39,22.61,27.39z"/>
<path class="st1" d="M20.44,10.23l-9.98,9.98c-0.54,0.54-1.42,0.54-1.96,0l0,0c-0.54-0.54-0.54-1.42,0-1.96l9.98-9.98
	c0.54-0.54,1.42-0.54,1.96,0l0,0C20.98,8.81,20.98,9.69,20.44,10.23z"/>
<path class="st1" d="M8.5,10.23l9.98,9.98c0.54,0.54,1.42,0.54,1.96,0l0,0c0.54-0.54,0.54-1.42,0-1.96l-9.98-9.98
	c-0.54-0.54-1.42-0.54-1.96,0l0,0C7.96,8.81,7.96,9.69,8.5,10.23z"/>
</svg>
