<?xml version="1.0" encoding="utf-8"?>
<!-- Generator: Adobe Illustrator 25.2.1, SVG Export Plug-In . SVG Version: 6.00 Build 0)  -->
<svg version="1.1" id="Capa_1" xmlns="http://www.w3.org/2000/svg" xmlns:xlink="http://www.w3.org/1999/xlink" x="0px" y="0px"
	 viewBox="0 0 28.39 28.39" style="enable-background:new 0 0 28.39 28.39;" xml:space="preserve">
<style type="text/css">
	.st0{fill:#F4E1D6;stroke:#8E0F06;stroke-width:2;stroke-miterlimit:10;}
	.st1{fill:#8E0F06;}
</style>
<path class="st0" d="M22.61,27.39H5.78C3.14,27.39,1,25.25,1,22.61V5.78C1,3.14,3.14,1,5.78,1h16.83c2.64,0,4.78,2.14,4.78,4.78
	v16.83C27.39,25.25,25.25,27.39,22.61,27.39z"/>
<path class="st1" d="M21.25,9.33H7.14c-0.76,0-1.39-0.62-1.39-1.39v0c0-0.76,0.62-1.39,1.39-1.39h14.12c0.76,0,1.39,0.62,1.39,1.39
	v0C22.64,8.71,22.02,9.33,21.25,9.33z"/>
<path class="st1" d="M21.25,15.91H7.14c-0.76,0-1.39-0.62-1.39-1.39v0c0-0.76,0.62-1.39,1.39-1.39h14.12c0.76,0,1.39,0.62,1.39,1.39
	v0C22.64,15.28,22.02,15.91,21.25,15.91z"/>
<path class="st1" d="M21.25,22.48H7.14c-0.76,0-1.39-0.62-1.39-1.39v0c0-0.76,0.62-1.39,1.39-1.39h14.12c0.76,0,1.39,0.62,1.39,1.39
	v0C22.64,21.86,22.02,22.48,21.25,22.48z"/>
</svg>
