<?xml version="1.0" encoding="utf-8"?>
<!-- Generator: Adobe Illustrator 25.2.1, SVG Export Plug-In . SVG Version: 6.00 Build 0)  -->
<svg version="1.1" id="Capa_1" xmlns="http://www.w3.org/2000/svg" xmlns:xlink="http://www.w3.org/1999/xlink" x="0px" y="0px"
	 viewBox="0 0 223.87 29.12" style="enable-background:new 0 0 223.87 29.12;" xml:space="preserve">
<style type="text/css">
	.st0{fill:#8E0F06;}
</style>
<g>
	<path class="st0" d="M8.48,4.67c0-0.51-0.06-0.87-0.18-1.07C8.19,3.4,8.05,3.25,7.9,3.15c-0.15-0.1-0.28-0.19-0.4-0.27
		C7.39,2.79,7.33,2.61,7.33,2.34c0-0.19,0.15-0.38,0.46-0.58c0.31-0.19,0.7-0.37,1.17-0.54c0.47-0.17,0.99-0.33,1.55-0.48
		c0.56-0.15,1.1-0.28,1.62-0.38c0.51-0.11,0.96-0.19,1.36-0.26C13.88,0.03,14.13,0,14.24,0c0.53,0,0.95,0.09,1.26,0.26
		c0.31,0.17,0.56,0.41,0.75,0.7s0.34,0.64,0.43,1.02c0.1,0.38,0.19,0.79,0.27,1.22c0.28,1.34,0.54,2.45,0.8,3.31
		c0.26,0.86,0.5,1.56,0.74,2.1c0.23,0.53,0.45,0.94,0.64,1.22c0.19,0.28,0.37,0.51,0.53,0.7c0.16,0.19,0.3,0.39,0.42,0.59
		c0.12,0.2,0.22,0.49,0.3,0.85c0.08,0.38,0.12,0.7,0.1,0.96c-0.02,0.26-0.06,0.51-0.13,0.77s-0.13,0.54-0.19,0.85
		c-0.06,0.31-0.1,0.73-0.11,1.25c-0.01,0.52,0.04,1.17,0.14,1.95c0.11,0.78,0.29,1.76,0.54,2.93l1.12,4.93
		c0.17,0.73,0.45,1.21,0.83,1.44c0.38,0.23,0.75,0.35,1.09,0.35c0.38,0,0.67-0.11,0.85-0.34c0.18-0.22,0.31-0.5,0.4-0.82
		c0.08-0.32,0.13-0.66,0.13-1.02c0-0.36,0-0.67,0-0.93c0-1.45-0.11-2.9-0.34-4.34s-0.47-2.88-0.74-4.34
		c-0.27-1.45-0.51-2.91-0.74-4.37S23,8.33,22.98,6.88c0-0.6,0.06-1.21,0.18-1.82c0.12-0.62,0.3-1.19,0.54-1.73
		c0.25-0.53,0.56-1,0.94-1.41c0.38-0.41,0.83-0.69,1.34-0.86c0.47-0.15,0.96-0.29,1.49-0.42c0.52-0.13,1.01-0.24,1.47-0.34
		c0.46-0.1,0.85-0.17,1.18-0.22C30.46,0.03,30.68,0,30.78,0c0.53,0,0.96,0.09,1.28,0.26c0.32,0.17,0.58,0.41,0.77,0.7
		c0.19,0.3,0.34,0.64,0.43,1.02c0.1,0.38,0.19,0.79,0.27,1.22c0.28,1.34,0.54,2.45,0.8,3.31c0.26,0.86,0.5,1.56,0.72,2.1
		c0.22,0.53,0.43,0.94,0.62,1.22c0.19,0.28,0.36,0.51,0.51,0.7c0.15,0.19,0.28,0.39,0.4,0.59c0.12,0.2,0.22,0.49,0.3,0.85
		c0.08,0.38,0.12,0.7,0.1,0.96c-0.02,0.26-0.06,0.51-0.13,0.77s-0.13,0.54-0.21,0.85c-0.07,0.31-0.11,0.73-0.11,1.25
		c0,0.52,0.05,1.17,0.14,1.95c0.1,0.78,0.28,1.76,0.56,2.93l1.15,4.93c0.11,0.45,0.27,0.78,0.48,1.01c0.21,0.22,0.42,0.41,0.62,0.54
		c0.2,0.14,0.38,0.27,0.54,0.38c0.16,0.12,0.24,0.28,0.24,0.5c0,0.15-0.03,0.31-0.08,0.5c-0.05,0.18-0.26,0.27-0.62,0.27h-8.86
		c-0.28,0-0.46-0.08-0.54-0.26c-0.09-0.17-0.13-0.34-0.13-0.51c0-0.19,0.09-0.35,0.27-0.46c0.18-0.12,0.37-0.25,0.56-0.4
		c0.19-0.15,0.35-0.35,0.48-0.59c0.13-0.25,0.14-0.57,0.03-0.98l-0.74-3.2c-0.34-1.45-0.45-2.66-0.32-3.62s0.38-1.75,0.75-2.38
		c0.37-0.63,0.83-1.13,1.36-1.5c0.53-0.37,1.03-0.69,1.49-0.96c0.46-0.27,0.84-0.52,1.14-0.75c0.3-0.23,0.41-0.53,0.32-0.9
		c-0.09-0.36-0.27-0.59-0.54-0.67c-0.28-0.08-0.63-0.13-1.06-0.13c-0.11,0-0.21,0.01-0.32,0.02c-0.11,0.01-0.21,0.02-0.32,0.02
		c-0.47,0-0.98-0.05-1.54-0.14c-0.55-0.1-1.1-0.34-1.65-0.74c-0.54-0.39-1.06-0.99-1.54-1.79c-0.48-0.8-0.9-1.9-1.26-3.31
		c-0.11-0.43-0.21-0.75-0.3-0.98c-0.1-0.22-0.19-0.39-0.29-0.51c-0.1-0.12-0.19-0.19-0.29-0.21c-0.1-0.02-0.2-0.03-0.3-0.03
		c-0.28,0-0.52,0.12-0.72,0.35c-0.2,0.24-0.37,0.52-0.5,0.85c-0.13,0.33-0.22,0.67-0.27,1.01c-0.05,0.34-0.08,0.62-0.08,0.83
		c0,1.32,0.11,2.7,0.34,4.14s0.47,2.9,0.75,4.38c0.28,1.48,0.53,2.97,0.75,4.46c0.22,1.49,0.34,2.98,0.34,4.45
		c0,0.47-0.03,0.97-0.08,1.5s-0.18,1.02-0.37,1.47c-0.19,0.45-0.48,0.82-0.85,1.1c-0.37,0.29-0.88,0.43-1.52,0.43h-9.6
		c-0.28,0-0.46-0.08-0.54-0.26c-0.09-0.17-0.13-0.34-0.13-0.51c0-0.19,0.08-0.35,0.26-0.46c0.17-0.12,0.35-0.25,0.54-0.4
		c0.19-0.15,0.35-0.35,0.48-0.59c0.13-0.25,0.15-0.57,0.06-0.98l-0.7-3.2c-0.32-1.45-0.42-2.66-0.29-3.63
		c0.13-0.97,0.38-1.77,0.77-2.4c0.38-0.63,0.84-1.13,1.36-1.5c0.52-0.37,1.01-0.69,1.46-0.94c0.45-0.26,0.82-0.5,1.12-0.74
		c0.3-0.23,0.4-0.53,0.32-0.9c-0.09-0.36-0.26-0.59-0.51-0.67c-0.26-0.08-0.57-0.13-0.93-0.13c-0.13,0-0.26,0.01-0.38,0.02
		c-0.13,0.01-0.26,0.02-0.38,0.02c-0.51,0-1.07-0.06-1.66-0.19c-0.6-0.13-1.19-0.46-1.78-1.01c-0.59-0.54-1.15-1.36-1.68-2.45
		c-0.53-1.09-1-2.59-1.41-4.51c0,1.86-0.19,3.52-0.58,4.99c-0.38,1.47-0.86,2.8-1.42,3.97c-0.57,1.17-1.18,2.22-1.86,3.14
		C5.62,16.37,5,17.22,4.43,18s-1.04,1.51-1.42,2.19c-0.38,0.68-0.58,1.37-0.58,2.05c0,0.81,0.13,1.52,0.4,2.13
		c0.27,0.61,0.6,1.11,1.01,1.5c0.4,0.4,0.85,0.69,1.34,0.9c0.49,0.2,0.96,0.3,1.41,0.3c0.58,0,1.07-0.16,1.49-0.48
		S8.7,25.8,8.7,25.18c0-0.4-0.1-0.76-0.29-1.06c-0.19-0.3-0.43-0.58-0.7-0.83c-0.28-0.26-0.59-0.51-0.93-0.75s-0.65-0.51-0.93-0.78
		c-0.28-0.28-0.51-0.58-0.7-0.91c-0.19-0.33-0.29-0.73-0.29-1.2c0-0.85,0.28-1.57,0.83-2.14c0.55-0.58,1.27-0.86,2.14-0.86
		c0.81,0,1.48,0.2,2.02,0.61c0.53,0.41,0.96,0.91,1.28,1.52c0.32,0.61,0.55,1.28,0.69,2.02c0.14,0.74,0.21,1.42,0.21,2.06
		c0,1.05-0.17,1.96-0.5,2.75c-0.33,0.79-0.77,1.44-1.31,1.95c-0.54,0.51-1.17,0.9-1.87,1.15c-0.7,0.26-1.43,0.38-2.18,0.38
		c-0.77,0-1.52-0.13-2.26-0.4c-0.74-0.27-1.39-0.66-1.97-1.18c-0.58-0.52-1.05-1.17-1.41-1.95C0.18,24.77,0,23.88,0,22.88
		c0-1.02,0.21-1.99,0.62-2.9s0.94-1.79,1.57-2.66c0.63-0.86,1.31-1.74,2.05-2.62c0.74-0.88,1.42-1.83,2.05-2.85
		c0.63-1.01,1.15-2.1,1.57-3.26C8.27,7.43,8.48,6.12,8.48,4.67z"/>
	<path class="st0" d="M41.6,11.49c0.15-0.11,0.47-0.27,0.96-0.48c0.49-0.21,1.03-0.42,1.63-0.62c0.6-0.2,1.19-0.38,1.78-0.54
		c0.59-0.16,1.05-0.24,1.39-0.24c0.66,0,1.11,0.17,1.36,0.51c0.25,0.34,0.37,0.91,0.37,1.7v13.31c0,0.47,0.06,0.85,0.19,1.15
		s0.27,0.54,0.43,0.74c0.16,0.19,0.3,0.36,0.43,0.51c0.13,0.15,0.19,0.32,0.19,0.51c0,0.17-0.04,0.34-0.13,0.51
		c-0.09,0.17-0.27,0.26-0.54,0.26h-7.55c-0.28,0-0.46-0.08-0.54-0.26c-0.09-0.17-0.13-0.34-0.13-0.51c0-0.19,0.06-0.36,0.19-0.51
		s0.27-0.32,0.43-0.51c0.16-0.19,0.3-0.44,0.43-0.74s0.19-0.68,0.19-1.15c0-0.79,0.12-1.42,0.37-1.9c0.25-0.48,0.55-0.86,0.91-1.15
		c0.36-0.29,0.76-0.51,1.18-0.66c0.43-0.15,0.82-0.29,1.18-0.42c0.36-0.13,0.67-0.27,0.91-0.43c0.25-0.16,0.37-0.4,0.37-0.72
		c0-0.3-0.12-0.52-0.37-0.67c-0.25-0.15-0.55-0.28-0.91-0.4c-0.36-0.12-0.76-0.24-1.18-0.38c-0.43-0.14-0.82-0.34-1.18-0.61
		c-0.36-0.27-0.67-0.63-0.91-1.09c-0.25-0.46-0.37-1.06-0.37-1.81c0-0.68-0.14-1.22-0.42-1.62c-0.28-0.39-0.5-0.68-0.67-0.85
		c-0.11-0.11-0.17-0.26-0.18-0.46C41.41,11.75,41.47,11.59,41.6,11.49z M42.69,5.41c0-0.9,0.3-1.65,0.91-2.26s1.36-0.91,2.26-0.91
		c0.45,0,0.87,0.08,1.26,0.24c0.39,0.16,0.74,0.38,1.02,0.67c0.29,0.29,0.52,0.62,0.69,1.01c0.17,0.38,0.26,0.8,0.26,1.25
		c0,0.92-0.31,1.69-0.93,2.3c-0.62,0.62-1.39,0.93-2.3,0.93c-0.45,0-0.86-0.08-1.25-0.26c-0.38-0.17-0.72-0.4-1.01-0.69
		s-0.51-0.63-0.67-1.02C42.77,6.28,42.69,5.86,42.69,5.41z"/>
	<path class="st0" d="M59.42,0.77c0-0.17,0.04-0.34,0.13-0.51C59.64,0.09,59.82,0,60.1,0h11.55c1.71,0,3.19,0.27,4.46,0.82
		c1.27,0.54,2.32,1.26,3.15,2.16c0.83,0.9,1.46,1.92,1.87,3.06c0.42,1.14,0.62,2.31,0.62,3.5c0,1.24-0.21,2.45-0.64,3.65
		c-0.43,1.2-1.06,2.26-1.89,3.2c-0.83,0.94-1.86,1.7-3.07,2.27c-1.22,0.58-2.61,0.86-4.19,0.86c-1.43,0-2.81-0.3-4.13-0.9
		c-0.06,0.79-0.1,1.76-0.1,2.91v3.58c0,0.53,0.08,0.95,0.24,1.25c0.16,0.3,0.34,0.54,0.54,0.72c0.2,0.18,0.38,0.34,0.54,0.46
		c0.16,0.13,0.24,0.29,0.24,0.48c0,0.17-0.04,0.34-0.13,0.51c-0.09,0.17-0.27,0.26-0.54,0.26h-8.51c-0.28,0-0.46-0.08-0.54-0.26
		c-0.09-0.17-0.13-0.34-0.13-0.51c0-0.19,0.08-0.35,0.24-0.48c0.16-0.13,0.34-0.28,0.54-0.46c0.2-0.18,0.38-0.42,0.54-0.72
		c0.16-0.3,0.24-0.71,0.24-1.25v-3.26c0-1.49,0.17-2.7,0.5-3.62c0.33-0.92,0.75-1.64,1.26-2.18c0.51-0.53,1.06-0.93,1.63-1.18
		c0.58-0.26,1.12-0.46,1.63-0.62c0.51-0.16,0.93-0.33,1.26-0.5c0.33-0.17,0.5-0.44,0.5-0.8c0-0.32-0.17-0.52-0.51-0.61
		c-0.34-0.08-0.76-0.18-1.26-0.27c-0.5-0.1-1.05-0.26-1.63-0.48c-0.59-0.22-1.13-0.62-1.63-1.2c-0.5-0.58-0.92-1.4-1.26-2.46
		c-0.34-1.07-0.51-2.49-0.51-4.26c0-0.53-0.08-0.95-0.24-1.25c-0.16-0.3-0.34-0.54-0.54-0.72c-0.2-0.18-0.38-0.34-0.54-0.46
		C59.5,1.12,59.42,0.96,59.42,0.77z M67.74,5.54c0.02,0.96,0.07,1.75,0.16,2.37c0.08,0.62,0.19,1.13,0.3,1.52
		c0.12,0.4,0.23,0.71,0.35,0.94c0.12,0.24,0.23,0.46,0.34,0.69c0.11,0.22,0.19,0.48,0.26,0.77s0.1,0.67,0.1,1.14
		c0,0.3-0.02,0.55-0.05,0.75c-0.03,0.2-0.07,0.39-0.11,0.56c0.36,1.17,0.82,2.15,1.38,2.93c0.55,0.78,1.21,1.17,1.95,1.17
		c0.64,0,1.17-0.12,1.58-0.37s0.75-0.57,0.99-0.98s0.42-0.86,0.51-1.36c0.1-0.5,0.14-1.02,0.14-1.55c0-0.45-0.03-1.07-0.08-1.87
		c-0.05-0.8-0.15-1.67-0.29-2.61c-0.14-0.94-0.33-1.89-0.56-2.86c-0.23-0.97-0.53-1.85-0.88-2.64c-0.35-0.79-0.77-1.43-1.25-1.94
		c-0.48-0.5-1.04-0.75-1.68-0.75c-0.62,0-1.14,0.11-1.55,0.34s-0.75,0.53-0.99,0.91C68.12,3.07,67.95,3.51,67.86,4
		S67.72,5,67.74,5.54z"/>
	<path class="st0" d="M82.4,19.14c0-1.19,0.21-2.36,0.62-3.5c0.42-1.14,1.04-2.16,1.87-3.06s1.88-1.62,3.15-2.16
		c1.27-0.54,2.76-0.82,4.46-0.82c1.71,0,3.19,0.27,4.46,0.82c1.27,0.54,2.32,1.26,3.15,2.16s1.46,1.92,1.87,3.06
		c0.42,1.14,0.62,2.31,0.62,3.5c0,1.24-0.22,2.45-0.66,3.65c-0.44,1.2-1.08,2.26-1.92,3.2c-0.84,0.94-1.89,1.7-3.15,2.27
		c-1.26,0.58-2.72,0.86-4.38,0.86c-1.66,0-3.13-0.29-4.38-0.86c-1.26-0.58-2.31-1.33-3.15-2.27c-0.84-0.94-1.48-2-1.92-3.2
		C82.62,21.59,82.4,20.37,82.4,19.14z M85.98,21.06c0.06,0.24,0.2,0.38,0.4,0.45s0.45,0.1,0.75,0.1h0.64c0.32,0,0.66,0.03,1.02,0.1
		s0.71,0.21,1.04,0.45c0.33,0.23,0.63,0.59,0.91,1.06c0.28,0.47,0.5,1.11,0.67,1.92c0.19,1.02,0.52,1.74,0.98,2.16
		c0.46,0.42,1.06,0.62,1.81,0.62c0.36,0,0.7-0.13,1.02-0.4c0.32-0.27,0.59-0.61,0.8-1.04s0.36-0.91,0.43-1.46s0.05-1.1-0.08-1.68
		c-0.15-0.7-0.16-1.3-0.03-1.78s0.32-0.88,0.59-1.22c0.27-0.33,0.58-0.61,0.94-0.83s0.69-0.43,0.99-0.61
		c0.3-0.18,0.54-0.37,0.72-0.56c0.18-0.19,0.24-0.43,0.18-0.7c-0.06-0.23-0.2-0.38-0.4-0.45c-0.2-0.06-0.45-0.1-0.75-0.1h-0.64
		c-0.32,0-0.66-0.03-1.02-0.1c-0.36-0.06-0.71-0.21-1.04-0.45c-0.33-0.23-0.63-0.59-0.91-1.06c-0.28-0.47-0.5-1.11-0.67-1.92
		c-0.21-1.02-0.55-1.74-1.01-2.16c-0.46-0.42-1.06-0.62-1.81-0.62c-0.36,0-0.7,0.13-1.02,0.4c-0.32,0.27-0.59,0.61-0.8,1.04
		c-0.21,0.43-0.36,0.91-0.43,1.46c-0.08,0.54-0.05,1.1,0.08,1.68c0.15,0.7,0.16,1.3,0.03,1.78s-0.33,0.89-0.59,1.22
		c-0.27,0.33-0.58,0.61-0.93,0.83c-0.35,0.22-0.68,0.43-0.98,0.61c-0.3,0.18-0.54,0.37-0.72,0.56
		C85.98,20.54,85.92,20.78,85.98,21.06z"/>
	<path class="st0" d="M103.77,11.49c0.15-0.11,0.47-0.27,0.96-0.48c0.49-0.21,1.03-0.42,1.63-0.62c0.6-0.2,1.19-0.38,1.78-0.54
		c0.59-0.16,1.05-0.24,1.39-0.24c0.66,0,1.11,0.17,1.36,0.51c0.25,0.34,0.37,0.91,0.37,1.7v0.9c0.66-0.9,1.48-1.64,2.45-2.22
		s2-0.88,3.09-0.88c0.3,0,0.64,0.04,1.02,0.13c0.38,0.09,0.75,0.23,1.1,0.43c0.35,0.2,0.65,0.49,0.9,0.85
		c0.24,0.36,0.37,0.83,0.37,1.41c0,0.47-0.1,0.89-0.29,1.26c-0.19,0.37-0.45,0.69-0.77,0.94c-0.32,0.26-0.68,0.45-1.07,0.59
		c-0.4,0.14-0.79,0.21-1.2,0.21s-0.77-0.07-1.09-0.21c-0.32-0.14-0.62-0.29-0.91-0.45c-0.29-0.16-0.59-0.3-0.9-0.43
		s-0.65-0.19-1.01-0.19c-0.38,0-0.73,0.09-1.02,0.27c-0.3,0.18-0.52,0.45-0.67,0.82v9.89c0,0.47,0.06,0.85,0.19,1.15
		s0.27,0.54,0.43,0.74c0.16,0.19,0.3,0.36,0.43,0.51c0.13,0.15,0.19,0.32,0.19,0.51c0,0.17-0.04,0.34-0.13,0.51
		c-0.09,0.17-0.27,0.26-0.54,0.26h-7.55c-0.28,0-0.46-0.08-0.54-0.26c-0.09-0.17-0.13-0.34-0.13-0.51c0-0.19,0.06-0.36,0.19-0.51
		s0.27-0.32,0.43-0.51c0.16-0.19,0.3-0.44,0.43-0.74s0.19-0.68,0.19-1.15c0-0.79,0.12-1.42,0.37-1.9c0.25-0.48,0.55-0.86,0.91-1.15
		c0.36-0.29,0.76-0.51,1.18-0.66c0.43-0.15,0.82-0.29,1.18-0.42c0.36-0.13,0.67-0.27,0.91-0.43c0.25-0.16,0.37-0.4,0.37-0.72
		c0-0.3-0.12-0.52-0.37-0.67c-0.25-0.15-0.55-0.28-0.91-0.4c-0.36-0.12-0.76-0.24-1.18-0.38c-0.43-0.14-0.82-0.34-1.18-0.61
		c-0.36-0.27-0.67-0.63-0.91-1.09c-0.25-0.46-0.37-1.06-0.37-1.81c0-0.68-0.14-1.22-0.42-1.62c-0.28-0.39-0.5-0.68-0.67-0.85
		c-0.11-0.11-0.17-0.26-0.18-0.46C103.59,11.75,103.65,11.59,103.77,11.49z"/>
	<path class="st0" d="M120.51,10.66c0-0.19,0.04-0.36,0.13-0.51c0.09-0.15,0.25-0.22,0.48-0.22c0.7,0,1.34-0.25,1.9-0.75
		c0.56-0.5,1.09-1.05,1.58-1.65c0.49-0.6,0.96-1.15,1.42-1.65c0.46-0.5,0.93-0.75,1.42-0.75c0.49,0,0.85,0.17,1.07,0.51
		c0.22,0.34,0.34,0.91,0.34,1.7v2.59h1.5c0.15,0,0.26,0.06,0.34,0.19c0.07,0.13,0.11,0.27,0.11,0.43c0,0.16-0.04,0.31-0.11,0.45
		c-0.08,0.14-0.19,0.21-0.34,0.21h-1.5v13.92c0,0.6,0.06,1.06,0.19,1.38c0.13,0.32,0.27,0.56,0.43,0.72s0.3,0.29,0.43,0.38
		c0.13,0.1,0.19,0.24,0.19,0.43c0,0.17-0.04,0.34-0.13,0.51c-0.09,0.17-0.27,0.26-0.54,0.26h-4.74c-0.24,0-0.49-0.04-0.75-0.13
		c-0.27-0.08-0.51-0.25-0.74-0.5c-0.22-0.25-0.41-0.58-0.54-1.01c-0.14-0.43-0.21-0.97-0.21-1.63v-1.7c0-0.79,0.12-1.42,0.37-1.9
		c0.24-0.48,0.55-0.86,0.91-1.15s0.76-0.51,1.18-0.66c0.43-0.15,0.82-0.29,1.18-0.42s0.67-0.28,0.91-0.45
		c0.25-0.17,0.37-0.4,0.37-0.7c0-0.3-0.12-0.52-0.37-0.67c-0.25-0.15-0.55-0.28-0.91-0.4c-0.36-0.12-0.76-0.25-1.18-0.38
		s-0.82-0.34-1.18-0.61c-0.36-0.27-0.67-0.63-0.91-1.09c-0.25-0.46-0.37-1.06-0.37-1.81c0-0.7-0.1-1.2-0.3-1.49
		s-0.43-0.49-0.67-0.61c-0.25-0.12-0.47-0.21-0.67-0.29C120.61,11.14,120.51,10.95,120.51,10.66z"/>
	<path class="st0" d="M142.37,15.65c-0.04-0.17-0.07-0.34-0.08-0.5c-0.01-0.16-0.03-0.34-0.05-0.53c-0.02-0.28-0.06-0.63-0.11-1.07
		c-0.05-0.44-0.15-0.86-0.3-1.28s-0.36-0.78-0.62-1.09c-0.27-0.31-0.62-0.46-1.07-0.46c-0.6,0-1.06,0.17-1.39,0.51
		c-0.33,0.34-0.6,0.77-0.8,1.28c-0.2,0.51-0.37,1.06-0.51,1.65c-0.14,0.59-0.33,1.14-0.58,1.65c-0.25,0.51-0.58,0.94-1.01,1.28
		s-1.01,0.51-1.76,0.51c-0.36,0-0.72-0.07-1.06-0.21c-0.34-0.14-0.65-0.32-0.91-0.56c-0.27-0.23-0.48-0.51-0.64-0.83
		c-0.16-0.32-0.24-0.67-0.24-1.06c0-1.07,0.31-1.95,0.94-2.64c0.63-0.69,1.42-1.24,2.37-1.65c0.95-0.4,1.97-0.68,3.06-0.83
		c1.09-0.15,2.09-0.22,3.01-0.22c0.9,0,1.8,0.08,2.7,0.22c0.91,0.15,1.74,0.43,2.5,0.83c0.76,0.41,1.39,0.95,1.9,1.63
		c0.51,0.68,0.82,1.56,0.93,2.62l0.96,10.21c0.06,0.6,0.16,1.06,0.29,1.38c0.13,0.32,0.27,0.56,0.42,0.72s0.28,0.29,0.38,0.38
		c0.11,0.1,0.16,0.24,0.16,0.43c0,0.17-0.04,0.34-0.13,0.51c-0.09,0.17-0.27,0.26-0.54,0.26h-4.74c-0.23,0-0.48-0.04-0.72-0.13
		c-0.25-0.08-0.47-0.25-0.67-0.48c-0.2-0.23-0.38-0.56-0.53-0.98c-0.15-0.42-0.26-0.94-0.32-1.58c-0.98,1.13-2.1,2-3.34,2.59
		c-1.25,0.6-2.56,0.9-3.92,0.9c-0.73,0-1.4-0.09-2.02-0.26c-0.62-0.17-1.16-0.43-1.62-0.78c-0.46-0.35-0.82-0.79-1.09-1.33
		c-0.27-0.53-0.4-1.17-0.4-1.92c0-1.11,0.22-2.03,0.66-2.77c0.44-0.74,1-1.37,1.7-1.89c0.69-0.52,1.47-0.96,2.32-1.31
		c0.85-0.35,1.71-0.69,2.58-1.01c0.86-0.32,1.67-0.65,2.43-0.98C141.25,16.55,141.88,16.14,142.37,15.65z M137.5,23.36
		c0,0.94,0.23,1.64,0.69,2.1c0.46,0.46,1,0.69,1.62,0.69c0.34,0,0.68-0.07,1.01-0.21c0.33-0.14,0.64-0.32,0.93-0.54
		c0.29-0.22,0.56-0.47,0.83-0.74c0.27-0.27,0.51-0.53,0.72-0.78c0.19-0.72,0.53-1.27,1.02-1.65c0.49-0.37,0.99-0.68,1.5-0.91
		c0.51-0.23,0.95-0.45,1.33-0.66c0.37-0.2,0.54-0.5,0.5-0.88c-0.02-0.26-0.13-0.43-0.32-0.53c-0.19-0.1-0.44-0.17-0.74-0.21
		s-0.62-0.08-0.98-0.11c-0.35-0.03-0.71-0.11-1.07-0.24c-0.36-0.13-0.7-0.33-1.02-0.61c-0.32-0.28-0.59-0.68-0.8-1.22
		c-0.51,0.66-1.07,1.24-1.68,1.73c-0.61,0.49-1.17,0.97-1.7,1.42c-0.52,0.46-0.96,0.94-1.31,1.46
		C137.68,21.98,137.5,22.61,137.5,23.36z"/>
	<path class="st0" d="M152.29,9.92h1.28c-0.13-0.51-0.19-1.11-0.19-1.79c0-0.92,0.13-1.8,0.4-2.66c0.27-0.85,0.67-1.6,1.2-2.26
		c0.53-0.65,1.19-1.17,1.97-1.57c0.78-0.39,1.68-0.59,2.7-0.59c1.05,0,2.02,0.12,2.91,0.35c0.9,0.23,1.67,0.58,2.34,1.02
		c0.66,0.45,1.18,1,1.55,1.66c0.37,0.66,0.56,1.43,0.56,2.3c0,0.38-0.08,0.74-0.24,1.06c-0.16,0.32-0.37,0.6-0.64,0.83
		c-0.27,0.24-0.57,0.42-0.91,0.56c-0.34,0.14-0.69,0.21-1.06,0.21c-0.77,0-1.34-0.17-1.73-0.5c-0.38-0.33-0.67-0.75-0.85-1.26
		c-0.18-0.51-0.3-1.06-0.35-1.63c-0.05-0.58-0.14-1.12-0.26-1.63c-0.12-0.51-0.3-0.93-0.54-1.26c-0.25-0.33-0.65-0.5-1.2-0.5
		s-0.97,0.22-1.25,0.66c-0.28,0.44-0.42,0.9-0.42,1.39c0,0.92,0.12,1.62,0.35,2.11c0.23,0.49,0.49,0.9,0.77,1.22
		c0.28,0.32,0.53,0.63,0.77,0.94c0.23,0.31,0.35,0.74,0.35,1.3v0.03h2.46c0.15,0,0.26,0.06,0.34,0.19s0.11,0.27,0.11,0.43
		c0,0.16-0.04,0.31-0.11,0.45c-0.07,0.14-0.19,0.21-0.34,0.21h-2.46v13.92c0,0.47,0.06,0.85,0.19,1.15s0.27,0.54,0.43,0.74
		s0.3,0.36,0.43,0.51s0.19,0.32,0.19,0.51c0,0.17-0.04,0.34-0.13,0.51c-0.09,0.17-0.27,0.26-0.54,0.26h-7.55
		c-0.28,0-0.46-0.08-0.54-0.26c-0.09-0.17-0.13-0.34-0.13-0.51c0-0.19,0.06-0.36,0.19-0.51s0.27-0.32,0.43-0.51s0.3-0.44,0.43-0.74
		c0.13-0.3,0.19-0.68,0.19-1.15v-5.98c0-0.79,0.12-1.42,0.37-1.9c0.24-0.48,0.55-0.86,0.91-1.15c0.36-0.29,0.76-0.51,1.18-0.66
		c0.43-0.15,0.82-0.29,1.18-0.42c0.36-0.13,0.67-0.27,0.91-0.43c0.24-0.16,0.37-0.4,0.37-0.72c0-0.26-0.17-0.45-0.5-0.58
		c-0.33-0.13-0.73-0.27-1.2-0.42c-0.47-0.15-0.95-0.34-1.44-0.58c-0.49-0.23-0.9-0.6-1.22-1.09h-1.7c-0.15,0-0.26-0.07-0.32-0.21
		c-0.06-0.14-0.1-0.29-0.1-0.45c0-0.16,0.03-0.3,0.1-0.43S152.14,9.92,152.29,9.92z"/>
	<path class="st0" d="M162.69,19.14c0-1.19,0.21-2.36,0.62-3.5c0.42-1.14,1.04-2.16,1.87-3.06s1.88-1.62,3.15-2.16
		c1.27-0.54,2.76-0.82,4.46-0.82c1.71,0,3.19,0.27,4.46,0.82c1.27,0.54,2.32,1.26,3.15,2.16s1.46,1.92,1.87,3.06
		c0.42,1.14,0.62,2.31,0.62,3.5c0,1.24-0.22,2.45-0.66,3.65c-0.44,1.2-1.08,2.26-1.92,3.2c-0.84,0.94-1.89,1.7-3.15,2.27
		c-1.26,0.58-2.72,0.86-4.38,0.86c-1.66,0-3.13-0.29-4.38-0.86c-1.26-0.58-2.31-1.33-3.15-2.27c-0.84-0.94-1.48-2-1.92-3.2
		C162.9,21.59,162.69,20.37,162.69,19.14z M166.27,21.06c0.06,0.24,0.2,0.38,0.4,0.45s0.45,0.1,0.75,0.1h0.64
		c0.32,0,0.66,0.03,1.02,0.1s0.71,0.21,1.04,0.45c0.33,0.23,0.63,0.59,0.91,1.06c0.28,0.47,0.5,1.11,0.67,1.92
		c0.19,1.02,0.52,1.74,0.98,2.16c0.46,0.42,1.06,0.62,1.81,0.62c0.36,0,0.7-0.13,1.02-0.4c0.32-0.27,0.59-0.61,0.8-1.04
		s0.36-0.91,0.43-1.46s0.05-1.1-0.08-1.68c-0.15-0.7-0.16-1.3-0.03-1.78s0.32-0.88,0.59-1.22c0.27-0.33,0.58-0.61,0.94-0.83
		s0.69-0.43,0.99-0.61c0.3-0.18,0.54-0.37,0.72-0.56c0.18-0.19,0.24-0.43,0.18-0.7c-0.06-0.23-0.2-0.38-0.4-0.45
		c-0.2-0.06-0.45-0.1-0.75-0.1h-0.64c-0.32,0-0.66-0.03-1.02-0.1c-0.36-0.06-0.71-0.21-1.04-0.45c-0.33-0.23-0.63-0.59-0.91-1.06
		c-0.28-0.47-0.5-1.11-0.67-1.92c-0.21-1.02-0.55-1.74-1.01-2.16c-0.46-0.42-1.06-0.62-1.81-0.62c-0.36,0-0.7,0.13-1.02,0.4
		c-0.32,0.27-0.59,0.61-0.8,1.04c-0.21,0.43-0.36,0.91-0.43,1.46c-0.08,0.54-0.05,1.1,0.08,1.68c0.15,0.7,0.16,1.3,0.03,1.78
		s-0.33,0.89-0.59,1.22c-0.27,0.33-0.58,0.61-0.93,0.83c-0.35,0.22-0.68,0.43-0.98,0.61c-0.3,0.18-0.54,0.37-0.72,0.56
		C166.26,20.54,166.21,20.78,166.27,21.06z"/>
	<path class="st0" d="M184.06,3.49c0.15-0.11,0.47-0.27,0.96-0.48c0.49-0.21,1.03-0.42,1.63-0.62c0.6-0.2,1.19-0.38,1.78-0.54
		c0.59-0.16,1.05-0.24,1.39-0.24c0.66,0,1.11,0.17,1.36,0.51c0.25,0.34,0.37,0.91,0.37,1.7v21.31c0,0.47,0.06,0.85,0.19,1.15
		s0.27,0.54,0.43,0.74c0.16,0.19,0.3,0.36,0.43,0.51c0.13,0.15,0.19,0.32,0.19,0.51c0,0.17-0.04,0.34-0.13,0.51
		c-0.09,0.17-0.27,0.26-0.54,0.26h-7.55c-0.28,0-0.46-0.08-0.54-0.26c-0.09-0.17-0.13-0.34-0.13-0.51c0-0.19,0.06-0.36,0.19-0.51
		s0.27-0.32,0.43-0.51c0.16-0.19,0.3-0.44,0.43-0.74s0.19-0.68,0.19-1.15v-5.44c0-0.79,0.12-1.42,0.37-1.9
		c0.25-0.48,0.55-0.86,0.91-1.15c0.36-0.29,0.76-0.51,1.18-0.66c0.43-0.15,0.82-0.29,1.18-0.42c0.36-0.13,0.67-0.28,0.91-0.45
		s0.37-0.41,0.37-0.7s-0.12-0.51-0.37-0.62s-0.55-0.21-0.91-0.29c-0.36-0.07-0.76-0.17-1.18-0.29c-0.43-0.12-0.82-0.34-1.18-0.66
		c-0.36-0.32-0.67-0.78-0.91-1.38c-0.25-0.6-0.37-1.41-0.37-2.43V6.88c0-0.34-0.04-0.65-0.13-0.91c-0.09-0.27-0.19-0.5-0.3-0.7
		c-0.12-0.2-0.24-0.37-0.37-0.51s-0.22-0.25-0.29-0.34c-0.11-0.13-0.17-0.29-0.18-0.48C183.87,3.74,183.93,3.59,184.06,3.49z"/>
	<path class="st0" d="M193.95,11.49c0.15-0.11,0.47-0.27,0.96-0.48c0.49-0.21,1.03-0.42,1.63-0.62c0.6-0.2,1.19-0.38,1.78-0.54
		c0.59-0.16,1.05-0.24,1.39-0.24c0.66,0,1.11,0.17,1.36,0.51c0.25,0.34,0.37,0.91,0.37,1.7v13.31c0,0.47,0.06,0.85,0.19,1.15
		s0.27,0.54,0.43,0.74c0.16,0.19,0.3,0.36,0.43,0.51c0.13,0.15,0.19,0.32,0.19,0.51c0,0.17-0.04,0.34-0.13,0.51
		c-0.09,0.17-0.27,0.26-0.54,0.26h-7.55c-0.28,0-0.46-0.08-0.54-0.26c-0.09-0.17-0.13-0.34-0.13-0.51c0-0.19,0.06-0.36,0.19-0.51
		s0.27-0.32,0.43-0.51c0.16-0.19,0.3-0.44,0.43-0.74s0.19-0.68,0.19-1.15c0-0.79,0.12-1.42,0.37-1.9c0.25-0.48,0.55-0.86,0.91-1.15
		c0.36-0.29,0.76-0.51,1.18-0.66c0.43-0.15,0.82-0.29,1.18-0.42c0.36-0.13,0.67-0.27,0.91-0.43c0.25-0.16,0.37-0.4,0.37-0.72
		c0-0.3-0.12-0.52-0.37-0.67c-0.25-0.15-0.55-0.28-0.91-0.4c-0.36-0.12-0.76-0.24-1.18-0.38c-0.43-0.14-0.82-0.34-1.18-0.61
		c-0.36-0.27-0.67-0.63-0.91-1.09c-0.25-0.46-0.37-1.06-0.37-1.81c0-0.68-0.14-1.22-0.42-1.62c-0.28-0.39-0.5-0.68-0.67-0.85
		c-0.11-0.11-0.17-0.26-0.18-0.46C193.76,11.75,193.82,11.59,193.95,11.49z M195.04,5.41c0-0.9,0.3-1.65,0.91-2.26
		s1.36-0.91,2.26-0.91c0.45,0,0.87,0.08,1.26,0.24c0.39,0.16,0.74,0.38,1.02,0.67c0.29,0.29,0.52,0.62,0.69,1.01
		c0.17,0.38,0.26,0.8,0.26,1.25c0,0.92-0.31,1.69-0.93,2.3c-0.62,0.62-1.39,0.93-2.3,0.93c-0.45,0-0.86-0.08-1.25-0.26
		c-0.38-0.17-0.72-0.4-1.01-0.69s-0.51-0.63-0.67-1.02C195.12,6.28,195.04,5.86,195.04,5.41z"/>
	<path class="st0" d="M203.65,19.14c0-1.19,0.21-2.36,0.62-3.5c0.42-1.14,1.04-2.16,1.87-3.06s1.88-1.62,3.15-2.16
		c1.27-0.54,2.76-0.82,4.46-0.82c1.71,0,3.19,0.27,4.46,0.82c1.27,0.54,2.32,1.26,3.15,2.16s1.46,1.92,1.87,3.06
		c0.42,1.14,0.62,2.31,0.62,3.5c0,1.24-0.22,2.45-0.66,3.65c-0.44,1.2-1.08,2.26-1.92,3.2c-0.84,0.94-1.89,1.7-3.15,2.27
		c-1.26,0.58-2.72,0.86-4.38,0.86c-1.66,0-3.13-0.29-4.38-0.86c-1.26-0.58-2.31-1.33-3.15-2.27c-0.84-0.94-1.48-2-1.92-3.2
		C203.86,21.59,203.65,20.37,203.65,19.14z M207.23,21.06c0.06,0.24,0.2,0.38,0.4,0.45s0.45,0.1,0.75,0.1h0.64
		c0.32,0,0.66,0.03,1.02,0.1s0.71,0.21,1.04,0.45c0.33,0.23,0.63,0.59,0.91,1.06c0.28,0.47,0.5,1.11,0.67,1.92
		c0.19,1.02,0.52,1.74,0.98,2.16c0.46,0.42,1.06,0.62,1.81,0.62c0.36,0,0.7-0.13,1.02-0.4c0.32-0.27,0.59-0.61,0.8-1.04
		s0.36-0.91,0.43-1.46s0.05-1.1-0.08-1.68c-0.15-0.7-0.16-1.3-0.03-1.78s0.32-0.88,0.59-1.22c0.27-0.33,0.58-0.61,0.94-0.83
		s0.69-0.43,0.99-0.61c0.3-0.18,0.54-0.37,0.72-0.56c0.18-0.19,0.24-0.43,0.18-0.7c-0.06-0.23-0.2-0.38-0.4-0.45
		c-0.2-0.06-0.45-0.1-0.75-0.1h-0.64c-0.32,0-0.66-0.03-1.02-0.1c-0.36-0.06-0.71-0.21-1.04-0.45c-0.33-0.23-0.63-0.59-0.91-1.06
		c-0.28-0.47-0.5-1.11-0.67-1.92c-0.21-1.02-0.55-1.74-1.01-2.16c-0.46-0.42-1.06-0.62-1.81-0.62c-0.36,0-0.7,0.13-1.02,0.4
		c-0.32,0.27-0.59,0.61-0.8,1.04c-0.21,0.43-0.36,0.91-0.43,1.46c-0.08,0.54-0.05,1.1,0.08,1.68c0.15,0.7,0.16,1.3,0.03,1.78
		s-0.33,0.89-0.59,1.22c-0.27,0.33-0.58,0.61-0.93,0.83c-0.35,0.22-0.68,0.43-0.98,0.61c-0.3,0.18-0.54,0.37-0.72,0.56
		C207.22,20.54,207.17,20.78,207.23,21.06z"/>
</g>
</svg>
