<?xml version="1.0" encoding="utf-8"?>
<!-- Generator: Adobe Illustrator 25.2.1, SVG Export Plug-In . SVG Version: 6.00 Build 0)  -->
<svg version="1.1" id="Capa_1" xmlns="http://www.w3.org/2000/svg" xmlns:xlink="http://www.w3.org/1999/xlink" x="0px" y="0px"
	 viewBox="0 0 350 90" style="enable-background:new 0 0 350 90;" xml:space="preserve">
<style type="text/css">
	.st0{fill:none;stroke:#8E0F06;stroke-width:4;}
	.st1{fill:#8E0F06;}
</style>
<path class="st0" d="M30,2h290c15.46,0,28,12.54,28,28v30c0,15.46-12.54,28-28,28H30C14.54,88,2,75.46,2,60V30C2,14.54,14.54,2,30,2
	z"/>
<path class="st1" d="M43.86,66.69c0-9.97,6.02-12.85,6.36-21.45c0.17-4.09,2.11-4.13,3.66-4.13c1.46,0,3.48,0.26,3.61,4.13
	c0.26,8.08-10.36,14.36-10.36,20.59c0,4.39,3.14,6.5,5.59,6.5c1.55,0,2.84-0.86,2.84-2.54c0-3.23-5.16-3.74-5.16-7.44
	c0-2.28,1.68-4.04,4-4.04c4.3,0,5.63,4.86,5.63,8.34c0,5.68-3.87,8.39-7.87,8.39C48.07,75.04,43.86,72.11,43.86,66.69z M53.88,40.21
	c-2.45,0-4.34-1.9-4.34-4.26c0-2.45,1.89-4.35,4.34-4.35c2.36,0,4.26,1.9,4.26,4.35C58.14,38.31,56.24,40.21,53.88,40.21z
	 M78.22,64.93c-12.17,0-16.47-11.61-16.47-21.59c0-9.2,4.3-18.01,14.45-18.01c12.17,0,16.51,11.69,16.51,21.63
	c0,7.39-2.62,14.23-8.69,16.85c0.52,0.43,1.08,0.73,1.76,0.73c2.06,0,3.83-1.67,5.89-1.67c2.19,0,3.53,1.93,3.53,3.95
	c0,3.27-3.78,4.09-6.36,4.09c-4.82,0-7.22-3.1-9.03-6.07C79.29,64.89,78.78,64.93,78.22,64.93z M70.74,34.27
	c1.72,14.02-8.43,11.31-8.17,13.03c0.04,0.3,0.34,0.39,0.86,0.39c0.52,0,1.16-0.09,1.93-0.09c2.75,0,6.75,0.99,8.38,9.85
	c0,0.04,0,0.08,0.04,0.17c0.69-0.26,1.42-0.34,2.15-0.34c3.27,0,4.86,2.32,6.28,4.3c1.2-1.38,1.63-3.49,1.38-5.51
	c-1.81-14.02,8.43-11.31,8.17-13.03c-0.04-0.3-0.34-0.38-0.86-0.38c-0.47,0-1.16,0.08-1.93,0.08c-2.75,0-6.67-0.99-8.34-9.85
	c-0.52-2.7-1.81-5.63-5.03-5.63C71.77,27.26,70.31,30.92,70.74,34.27z M75.21,59.73c-0.26,0-0.52,0.04-0.77,0.13
	c0.73,1.76,2.02,3.22,4.34,3.22C77.66,61.19,76.67,59.73,75.21,59.73z M94.46,42.48c-0.3-0.3-0.34-0.99,0-1.24
	c0.77-0.56,5.93-2.54,7.74-2.54c1.76,0,2.32,0.86,2.32,2.97v15.52c0,2.49,1.42,3.74,3.1,3.74c1.55,0,3.87-1.2,4.73-3.48
	c1.46-3.83,6.32-2.84,6.32-4.99c0-2.32-6.62-0.65-6.62-6.67c0-1.8-0.99-2.83-1.46-3.31c-0.3-0.3-0.34-0.99,0-1.24
	c0.77-0.56,5.93-2.54,7.74-2.54c1.76,0,2.32,0.86,2.32,2.97v17.88c0,3.32,1.68,2.93,1.68,3.92c0,0.47-0.17,1.03-0.9,1.03h-6.36
	c-1.25,0-2.88-1.25-3.01-4.04c-1.72,2.62-5.16,4.47-8.17,4.47c-4.04,0-7.96-1.76-7.96-5.38c0-6.36,6.62-4.6,6.62-7.09
	c0-2.32-6.62-0.65-6.62-6.67C95.92,43.99,94.93,42.96,94.46,42.48z M123.86,42.48c-0.3-0.3-0.34-0.99,0-1.24
	c0.77-0.56,5.93-2.54,7.74-2.54c1.76,0,2.32,0.86,2.32,2.97v17.88c0,2.54,1.68,2.93,1.68,3.92c0,0.47-0.17,1.03-0.9,1.03h-10.15
	c-0.73,0-0.9-0.56-0.9-1.03c0-0.99,1.68-1.38,1.68-3.92c0-6.36,6.62-4.6,6.62-7.09c0-2.32-6.62-0.65-6.62-6.67
	C125.32,43.99,124.33,42.96,123.86,42.48z M125.32,33.07c0-2.37,1.89-4.26,4.26-4.26c2.45,0,4.34,1.89,4.34,4.26
	c0,2.45-1.89,4.34-4.34,4.34C127.21,37.41,125.32,35.52,125.32,33.07z M136.87,51.51c0-7.56,5.8-12.81,13.11-12.81
	c4.77,0,9.85,1.68,9.85,7.27c0,8.25-8.39,7.31-13.11,9.46c0.82,0.6,1.46,1.5,1.81,3.05c0.56,2.45,2.97,3.14,4.26,3.14
	c2.45,0,5.93-1.25,6.75-3.66c0.04-0.13,0.17-0.17,0.26-0.17c0.39,0,0.99,0.69,0.73,1.25c-1.63,3.91-5.72,5.89-10.06,5.89
	C141.55,64.93,136.87,58.18,136.87,51.51z M145.6,45.02c1.29,5.89-5.5,5.68-5.03,7.91c0.3,1.38,2.32,1.12,4.3,1.64
	c2.92-2.93,7.27-3.66,7.27-8.69c0-2.02-1.25-5.59-3.74-5.59C146.07,40.29,145.17,43.17,145.6,45.02z M151.45,36.16
	c-0.39,0.65-1.25,0.95-2.02,0.95c-0.86,0-1.59-0.35-1.42-0.95l2.06-8.08c0.39-1.25,1.85-1.81,3.27-1.81c1.68,0,3.23,0.73,2.75,1.81
	L151.45,36.16z M162.15,42.48c-0.3-0.3-0.34-0.99,0-1.24c0.77-0.56,5.93-2.54,7.74-2.54c1.63,0,2.24,0.73,2.32,2.45
	c1.38-1.55,3.44-2.45,6.11-2.45c4.73,0,9.2,2.28,9.67,7.14l1.29,13.71c0.3,3.27,1.68,2.93,1.68,3.92c0,0.47-0.17,1.03-0.9,1.03
	h-6.36c-1.29,0-2.71-0.77-3.01-4.39c-0.52-6.36,6.24-5.29,5.98-7.74s-6.58,1.38-7.27-6.92c-0.13-1.55-0.47-5.16-2.54-5.16
	c-2.02,0-3.7,1.81-4.64,3.74v15.52c0,2.54,1.68,2.93,1.68,3.92c0,0.47-0.17,1.03-0.9,1.03h-10.15c-0.73,0-0.9-0.56-0.9-1.03
	c0-0.99,1.68-1.38,1.68-3.92c0-6.36,6.62-4.6,6.62-7.09c0-2.32-6.62-0.65-6.62-6.67C163.61,43.99,162.58,42.96,162.15,42.48z
	 M216.34,64.93c-5.59,0-13.12-0.99-13.12-8.13c0-2.23,2.11-3.91,4.21-3.91c6.75,0,3.78,10.02,9.98,10.02c2.45,0,4.52-2.02,4.52-5.59
	c0-10.54-18.71-6.54-18.71-20.3c0-9.11,6.71-11.65,14.32-11.65c5.59,0,13.11,0.99,13.11,8.13c0,2.23-2.1,3.91-4.21,3.91
	c-6.75,0-3.78-10.02-9.98-10.02c-2.45,0-4.52,2.41-4.52,5.98c0,2.79,1.81,4.08,1.81,6.66c0,3.27-2.75,5.33-1.55,6.28
	c0.22,0.17,0.43,0.22,0.65,0.22c1.63,0,3.87-3.32,7.91-3.32c5.68,0,9.89,4.91,9.89,10.45C230.65,62.78,223.95,64.93,216.34,64.93z
	 M246.37,64.93c-8.91,0-13.59-6.75-13.59-13.42c0-6.45,4.38-12.81,13.59-12.81c9.2,0,13.58,6.36,13.58,12.81
	C259.95,58.18,255.27,64.93,246.37,64.93z M242.11,46.44c1.2,5.72-5.08,5.46-4.52,7.65c0.18,0.65,0.73,0.73,1.55,0.73
	c0.26,0,0.56,0,0.86,0c1.76,0,4,0.35,4.9,4.73c0.52,2.71,1.72,3.75,3.74,3.75c1.98,0,3.57-3.1,2.93-6.15
	c-1.21-5.72,5.12-5.46,4.56-7.66c-0.18-0.64-0.73-0.73-1.55-0.73c-0.26,0-0.56,0-0.86,0c-1.76,0-4-0.34-4.9-4.73
	c-0.56-2.71-1.77-3.74-3.79-3.74C243.05,40.29,241.46,43.39,242.11,46.44z M261.35,43.95c-0.99-2.5-2.54-2.67-2.54-3.79
	c0-0.47,0.17-1.03,0.91-1.03h11.86c0.73,0,0.91,0.56,0.91,1.03c0,0.99-1.51,0.56-1.51,3.1c0,1.85,3.7,10.06,6.15,16.04
	c1.63-6.24,3.7-14.88,3.7-16.04c0-2.54-1.51-2.11-1.51-3.1c0-0.47,0.18-1.03,0.91-1.03h6.7c0.74,0,0.91,0.56,0.91,1.03
	c0,1.12-1.21,0.69-2.54,3.79c-3.4,7.91-8.81,33.45-19.56,33.45c-1.55,0-4.56-0.73-4.56-3.78c0-2.5,2.32-4.05,4.47-4.05
	s3.27,1.72,5.25,1.72c0.51,0,0.73-0.47,0.73-1.2c0-1.98-1.51-5.76-1.77-6.36c-0.73-1.72-1.5-3.44-2.23-5.16
	c-2.54-5.94,3.91-6.8,3.01-9.16c-0.22-0.56-0.65-0.73-1.21-0.73c-0.68,0-1.63,0.3-2.71,0.3C265,48.98,263.03,48.2,261.35,43.95z
	 M289.35,33.75c0-5.67,3.87-8.38,7.87-8.38c4.08,0,8.29,2.92,8.29,8.34c0,9.98-6.02,12.86-6.36,21.46
	c-0.17,4.08-2.11,4.13-3.65,4.13c-1.47,0-3.49-0.26-3.62-4.13c-0.25-8.09,10.37-14.36,10.37-20.6c0-4.38-3.14-6.49-5.59-6.49
	c-1.55,0-2.84,0.86-2.84,2.54c0,3.22,5.16,3.74,5.16,7.43c0,2.28-1.68,4.05-4,4.05C290.68,42.1,289.35,37.24,289.35,33.75z
	 M291.24,64.46c0-2.37,1.89-4.26,4.26-4.26c2.45,0,4.34,1.89,4.34,4.26c0,2.45-1.89,4.34-4.34,4.34
	C293.13,68.8,291.24,66.91,291.24,64.46z"/>
</svg>
