<?xml version="1.0" encoding="utf-8"?>
<!-- Generator: Adobe Illustrator 25.2.1, SVG Export Plug-In . SVG Version: 6.00 Build 0)  -->
<svg version="1.1" id="Capa_1" xmlns="http://www.w3.org/2000/svg" xmlns:xlink="http://www.w3.org/1999/xlink" x="0px" y="0px"
	 viewBox="0 0 436 356" style="enable-background:new 0 0 436 356;" xml:space="preserve">
<style type="text/css">
	.st0{clip-path:url(#SVGID_2_);}
	.st1{clip-path:url(#SVGID_4_);fill:#F5F2B5;}
	.st2{clip-path:url(#SVGID_4_);}
	.st3{clip-path:url(#SVGID_6_);fill:#46553B;}
	.st4{clip-path:url(#SVGID_6_);fill:#938333;}
</style>
<g>
	<defs>
		<path id="SVGID_1_" d="M420.61,324.8c0-9.03,6.7-16.47,15.39-17.69v-22.38c-8.69-1.21-15.39-8.66-15.39-17.69
			s6.7-16.47,15.39-17.69v-22.38c-8.69-1.21-15.39-8.66-15.39-17.69s6.7-16.47,15.39-17.69v-22.38
			c-8.69-1.21-15.39-8.66-15.39-17.69s6.7-16.47,15.39-17.69v-22.38c-8.69-1.21-15.39-8.66-15.39-17.69s6.7-16.47,15.39-17.69V53.7
			c-8.69-1.21-15.39-8.66-15.39-17.69s6.7-16.47,15.39-17.69V0h-25.91c-0.31,9.6-8.17,17.29-17.85,17.29S374.7,9.6,374.39,0h-22.06
			c-0.31,9.6-8.17,17.29-17.85,17.29S316.95,9.6,316.63,0h-22.06c-0.31,9.6-8.17,17.29-17.85,17.29S259.19,9.6,258.87,0h-22.06
			c-0.31,9.6-8.17,17.29-17.85,17.29S201.43,9.6,201.12,0h-22.06c-0.31,9.6-8.17,17.29-17.85,17.29c-9.68,0-17.54-7.69-17.85-17.29
			H121.3c-0.31,9.6-8.17,17.29-17.85,17.29S85.91,9.6,85.6,0H63.54c-0.31,9.6-8.17,17.29-17.85,17.29S28.15,9.6,27.84,0H0v18.14
			c0.08,0,0.16-0.01,0.25-0.01c9.88,0,17.88,8.01,17.88,17.88S10.12,53.89,0.25,53.89c-0.08,0-0.16-0.01-0.25-0.01V75.9
			c0.08,0,0.16-0.01,0.25-0.01c9.88,0,17.88,8.01,17.88,17.88s-8.01,17.88-17.88,17.88c-0.08,0-0.16-0.01-0.25-0.01v22.02
			c0.08,0,0.16-0.01,0.25-0.01c9.88,0,17.88,8.01,17.88,17.88c0,9.88-8.01,17.88-17.88,17.88c-0.08,0-0.16-0.01-0.25-0.01v22.02
			c0.08,0,0.16-0.01,0.25-0.01c9.88,0,17.88,8.01,17.88,17.88c0,9.88-8.01,17.88-17.88,17.88c-0.08,0-0.16-0.01-0.25-0.01v22.02
			c0.08,0,0.16-0.01,0.25-0.01c9.88,0,17.88,8.01,17.88,17.88c0,9.88-8.01,17.88-17.88,17.88c-0.08,0-0.16-0.01-0.25-0.01v22.02
			c0.08,0,0.16-0.01,0.25-0.01c9.88,0,17.88,8.01,17.88,17.88c0,9.88-8.01,17.88-17.88,17.88c-0.08,0-0.16-0.01-0.25-0.01V356h27.87
			c-0.03-0.39-0.06-0.78-0.06-1.17c0-9.88,8.01-17.88,17.88-17.88c9.88,0,17.88,8.01,17.88,17.88c0,0.4-0.03,0.78-0.06,1.17h22.12
			c-0.03-0.39-0.06-0.78-0.06-1.17c0-9.88,8.01-17.88,17.88-17.88c9.88,0,17.88,8.01,17.88,17.88c0,0.4-0.03,0.78-0.06,1.17h22.11
			c-0.03-0.39-0.06-0.78-0.06-1.17c0-9.88,8.01-17.88,17.88-17.88c9.88,0,17.88,8.01,17.88,17.88c0,0.4-0.03,0.78-0.06,1.17h22.11
			c-0.03-0.39-0.06-0.78-0.06-1.17c0-9.88,8.01-17.88,17.88-17.88s17.88,8.01,17.88,17.88c0,0.4-0.03,0.78-0.06,1.17h22.11
			c-0.03-0.39-0.06-0.78-0.06-1.17c0-9.88,8.01-17.88,17.88-17.88c9.88,0,17.88,8.01,17.88,17.88c0,0.4-0.03,0.78-0.06,1.17h22.12
			c-0.03-0.39-0.06-0.78-0.06-1.17c0-9.88,8.01-17.88,17.88-17.88c9.88,0,17.88,8.01,17.88,17.88c0,0.4-0.03,0.78-0.06,1.17h22.11
			c-0.03-0.39-0.06-0.78-0.06-1.17c0-9.88,8.01-17.88,17.88-17.88c9.88,0,17.88,8.01,17.88,17.88c0,0.4-0.03,0.78-0.06,1.17H436
			v-13.51C427.31,341.28,420.61,333.83,420.61,324.8z"/>
	</defs>
	<clipPath id="SVGID_2_">
		<use xlink:href="#SVGID_1_"  style="overflow:visible;"/>
	</clipPath>
	<g class="st0">
		<g>
			<defs>
				<rect id="SVGID_3_" x="-106.2" y="-93.11" width="652.42" height="551"/>
			</defs>
			<clipPath id="SVGID_4_">
				<use xlink:href="#SVGID_3_"  style="overflow:visible;"/>
			</clipPath>
			<rect x="-106.2" y="-93.11" class="st1" width="652.41" height="551"/>
			<g class="st2">
				<defs>
					<rect id="SVGID_5_" x="-106.2" y="-93.11" width="652.42" height="551"/>
				</defs>
				<clipPath id="SVGID_6_">
					<use xlink:href="#SVGID_5_"  style="overflow:visible;"/>
				</clipPath>
				<path class="st3" d="M377.58,222.92c-15.01-5.11-93.12-31.83-111.22-41.15c-0.03-0.01-0.06-0.03-0.1-0.04
					c-0.04-0.03-0.08-0.05-0.13-0.07c-0.84-0.43-1.58-0.85-2.22-1.27c-0.24-0.15-0.43-0.3-0.6-0.44c-1.54-1.16-2.37-2.4-2.51-3.84
					c-0.28-2.88,2.09-4.88,4.76-6.55c11.2-7.6,49.72-23.97,57.15-27.09c0.1-0.03,0.05-0.18-0.05-0.16
					c-7.64,2.14-46.86,12.99-60.95,14.29v0.01c-4.01,0.47-6.39,0.27-7.85-1.39c-1.28-1.44-1.41-3.26-0.97-5.16
					c0.02-0.11,0.05-0.23,0.09-0.36c0.24-0.85,0.57-1.71,0.97-2.57c7.86-17.8,53.32-88.32,61.98-101.71c0.06-0.1-0.06-0.19-0.14-0.1
					c-9.46,12.63-58.81,78.3-73.46,92.88c-2.34,2.64-4.18,3.64-5.96,3.68c-0.4,0.01-0.79-0.04-1.19-0.11
					c-2.69-0.53-3.92-3.12-4.73-5.98c-3.81-12.46-7.52-55.06-8.2-63.19c-0.01-0.11-0.16-0.1-0.17,0
					c-0.33,8.02-2.19,49.48-5.37,62.85l0.01,0c-0.02,0.05-0.03,0.11-0.05,0.16c-0.01,0.05-0.02,0.1-0.03,0.14
					c-0.85,3.61-1.77,5.66-4.04,6.53c-2.96,1.13-5.26-0.82-7.56-2.99c-7.43-6.69-24.33-26.09-40.63-45.35
					c-16.29-19.26-31.99-38.4-37.03-44.56c-0.08-0.08-0.2,0.01-0.14,0.11c9.29,13.11,58.27,82.37,66.42,99.28
					c1.02,1.95,1.52,3.51,1.55,4.82c0.02,1.07-0.26,1.96-0.83,2.78c-1.65,2.4-4.63,2.17-8.06,1.95c-6.99-0.31-20.48-2.75-33.18-5.34
					c-12.71-2.6-24.64-5.34-28.51-6.25c-0.1-0.02-0.15,0.12-0.05,0.16c7.67,2.83,47.8,17.82,58.74,24.8
					c3.36,1.86,4.71,3.65,4.75,5.75c0,0.07-0.01,0.16-0.01,0.24c-0.08,2.92-2.69,4.36-5.68,6.05v-0.01
					c-18.05,10.21-94.44,40.04-109.15,45.76c-0.1,0.04-0.05,0.19,0.06,0.16c15.23-4.74,95-29.46,114.49-32.32
					c1.34-0.23,2.44-0.36,3.36-0.38c2.03-0.04,3.19,0.45,4.19,1.6c1.54,1.78,1.2,3.96,0.46,6.45c-0.15,0.52-0.33,1.11-0.56,1.74
					c-0.01,0.03-0.02,0.06-0.03,0.1c-2.33,6.41-8.85,18.55-15.31,29.95c-6.46,11.39-12.85,22.05-14.94,25.49
					c-0.05,0.08,0.07,0.18,0.14,0.09c4.96-6.29,30.73-38.7,41.18-47.69c0.02-0.01,0.03-0.02,0.04-0.03c1.1-0.95,2.04-1.63,2.75-1.99
					c1.71-1.02,3.22-1.37,4.62-0.95c2.79,0.83,3.75,3.81,4.28,6.94c2.06,10.06,4.27,35.76,6.08,60.88
					c1.81,25.12,3.2,49.64,3.63,57.37c0.01,0.11,0.17,0.1,0.17,0c0.19-15.46,1.38-98.21,4.66-118.55l-0.01,0.01
					c0.02-0.07,0.03-0.14,0.04-0.21c0-0.02,0.01-0.04,0.01-0.06c0.15-0.97,0.33-1.85,0.55-2.62c0.07-0.22,0.13-0.44,0.2-0.62
					c0.63-1.82,1.53-2.99,2.84-3.59c2.65-1.2,5.32,0.44,7.77,2.46c10.71,8.34,38.14,39.87,43.42,45.97
					c0.06,0.07,0.19-0.01,0.12-0.11c-4.71-7.09-30.18-45.58-33.39-56.01c-0.76-2.4-0.78-4.22,0.15-5.66
					c1.66-2.59,4.72-2.51,7.87-2.13c10.07,1.11,35.1,6.94,59.53,12.99c24.42,6.05,48.25,12.33,55.91,14.37
					C377.63,223.11,377.68,222.96,377.58,222.92 M240.6,197.34c-6.96,5.49-18.99,2.05-27.84-7.61c-0.66-0.7-1.29-1.45-1.91-2.23
					c-8.96-11.34-10.18-25.32-2.7-31.22c5.67-4.5,14.73-3.02,22.69,2.94c0,0-2.01,27.1-18.09,30.52c0,0,14.84,6.06,29.15-17.42
					C247.02,182.13,246.76,192.47,240.6,197.34"/>
				<path class="st3" d="M240.78,115.05c0,0-8.18-29.53,0.06-54.02c8.24-24.5,35.6-29.57,36.03-1.64
					c0.43,27.94-30.98,57.92-30.98,57.92s11.74-22.11,16.79-34.92c5.05-12.8,5.7-18.27,5.89-22.08c0.19-3.81-2.32-23.34-10.37-12.09
					C250.16,59.48,240.33,87.72,240.78,115.05"/>
				<path class="st3" d="M273.61,136.15c0,0,10.54-28.77,31.51-43.88c20.96-15.11,46.16-3.3,30.24,19.66
					c-15.92,22.96-58.91,29.04-58.91,29.04s22.42-11.14,33.98-18.61c11.56-7.47,15.28-11.53,17.65-14.52
					c2.37-2.98,11.71-20.32-1.39-15.86C313.59,96.43,289.16,113.66,273.61,136.15"/>
				<path class="st3" d="M287.99,172.2c0,0,25.27-17.33,51.11-17.49c25.85-0.17,39.53,24.07,13.25,33.54
					c-26.28,9.48-64.84-10.48-64.84-10.48s24.73,3.91,38.48,4.53c13.75,0.62,19.13-0.54,22.79-1.6c3.66-1.06,21.32-9.78,8.06-13.73
					C343.59,163.01,313.7,162.89,287.99,172.2"/>
				<path class="st3" d="M278.04,211.14c0,0,30.62,1.22,51.43,16.54c20.82,15.32,17.3,42.93-9.44,34.81
					c-26.74-8.12-45.71-47.17-45.71-47.17s17.48,17.92,28.13,26.64c10.65,8.72,15.66,11.01,19.23,12.35
					c3.57,1.34,22.93,4.91,14.67-6.19C328.11,237.02,304.22,219.04,278.04,211.14"/>
				<path class="st3" d="M248.46,235.75c0,0,24.34,18.6,32.56,43.11c8.22,24.51-10.54,45.07-27.74,23.05
					c-17.2-22.02-10.26-64.88-10.26-64.88s3.99,24.72,7.69,37.98c3.7,13.26,6.48,18.01,8.63,21.16c2.15,3.15,15.93,17.21,15.56,3.38
					C274.53,285.71,265.33,257.27,248.46,235.75"/>
				<path class="st3" d="M208.42,238.45c0,0,8.41,29.46,0.37,54.02c-8.05,24.56-35.37,29.85-36.02,1.92
					c-0.65-27.93,30.52-58.16,30.52-58.16s-11.56,22.21-16.51,35.05c-4.95,12.85-5.56,18.32-5.72,22.12
					c-0.16,3.81,2.5,23.32,10.46,12C199.48,294.1,209.09,265.79,208.42,238.45"/>
				<path class="st3" d="M175.06,217.17c0,0-10.58,28.75-31.56,43.84c-20.98,15.09-46.17,3.25-30.22-19.69s58.95-28.97,58.95-28.97
					s-22.43,11.11-34.01,18.57c-11.57,7.45-15.29,11.51-17.66,14.49c-2.38,2.98-11.73,20.31,1.37,15.86
					C135.02,256.83,159.48,239.64,175.06,217.17"/>
				<path class="st3" d="M160.7,180.76c0,0-25.38,17.16-51.23,17.16c-25.85,0-39.38-24.32-13.03-33.63
					c26.35-9.31,64.77,10.91,64.77,10.91s-24.7-4.08-38.45-4.79c-13.75-0.71-19.14,0.42-22.8,1.45c-3.67,1.04-21.38,9.64-8.15,13.68
					C105.04,189.58,134.93,189.9,160.7,180.76"/>
				<path class="st3" d="M170.43,142.62c0,0-30.62-1-51.55-16.18c-20.92-15.17-17.6-42.81,9.19-34.88
					c26.79,7.93,46.04,46.85,46.04,46.85s-17.61-17.8-28.32-26.44c-10.72-8.64-15.74-10.9-19.31-12.21
					c-3.58-1.32-22.97-4.75-14.63,6.29C120.19,117.09,144.2,134.9,170.43,142.62"/>
				<path class="st3" d="M200.89,117.37c0,0-24.14-18.86-32.09-43.46s11.02-44.95,27.99-22.75c16.97,22.2,9.56,64.98,9.56,64.98
					s-3.72-24.76-7.28-38.05c-3.56-13.3-6.28-18.08-8.4-21.25c-2.11-3.17-15.75-17.38-15.52-3.55
					C175.36,67.13,184.26,95.67,200.89,117.37"/>
				<path class="st4" d="M164.47,360.27h3.52v0.6l-1.24,0.18v9.08h-0.51l-5.84-7.95v7.06l1.54,0.2v0.59h-3.52v-0.59l1.24-0.18v-8.09
					l-0.13-0.18l-1.04-0.13v-0.6h2.25l5.27,7.25v-6.46l-1.54-0.19V360.27z M174.03,369.22c1.66,0,2.5-0.94,2.5-3.53v-4.62l-1.49-0.2
					v-0.6h3.5v0.6l-1.27,0.17v5.01c0,3.07-1.48,4.21-3.48,4.21c-2.12,0-3.56-1.17-3.56-3.9v-1.58c0-1.26,0-2.52-0.02-3.78
					l-1.21-0.14v-0.6h4.13v0.6l-1.49,0.17c-0.03,1.23-0.03,2.49-0.03,3.75v1.15C171.61,368.43,172.54,369.22,174.03,369.22
					 M185.59,361h-3.43c-0.02,1.21-0.03,2.45-0.03,3.7h2.16l0.2-1.39h0.67v3.44h-0.67l-0.19-1.37h-2.17c0,1.38,0,2.66,0.03,3.91
					h3.72l0.32-1.86h0.84l-0.1,2.59h-7.56v-0.59l1.35-0.15c0.03-1.24,0.03-2.5,0.03-3.78v-0.72c0-1.25,0-2.52-0.03-3.77l-1.35-0.15
					v-0.6h7.26l0.1,2.59h-0.84L185.59,361z M188.65,360.99l-1.11-0.13v-0.6h3.98v0.66l-1.39,0.12l2.46,7.01l2.36-7l-1.29-0.13v-0.66
					h3.36v0.6l-1.27,0.17l-3.08,9.1h-0.63L188.65,360.99z M200.97,369.44l1.43-0.17l-0.81-2.41h-3.39l-0.81,2.38l1.42,0.2v0.59
					h-3.34v-0.59l1.23-0.18l3.11-9.06h0.91l3.1,9.11l1.11,0.13v0.59h-3.97V369.44z M198.45,366.18h2.93l-1.45-4.34L198.45,366.18z
					 M215.95,369.12l0.29-1.69h0.9l-0.06,2.12c-0.91,0.49-1.92,0.7-2.95,0.7c-2.94,0-4.94-2.1-4.94-5.1c0-2.95,2.09-5.11,4.93-5.11
					c0.8,0,1.83,0.14,2.82,0.7l0.06,2.13h-0.9l-0.29-1.69c-0.53-0.3-1.04-0.41-1.5-0.41c-1.95,0-3.52,1.52-3.52,4.37
					c0,2.85,1.43,4.37,3.43,4.37C214.76,369.52,215.36,369.41,215.95,369.12 M227.33,365.15c0,3.21-2.19,5.1-4.46,5.1
					c-2.27,0-4.48-1.77-4.48-5.1c0-3.21,2.22-5.11,4.48-5.11C225.13,360.05,227.33,361.82,227.33,365.15 M222.87,369.52
					c2.02,0,2.87-2.17,2.87-4.37s-0.85-4.37-2.87-4.37c-2.02,0-2.88,2.17-2.88,4.37S220.84,369.52,222.87,369.52 M235.73,367.28
					l-0.14,2.75h-7.27v-0.59l1.34-0.15c0.03-1.26,0.03-2.52,0.03-3.76v-0.74c0-1.27,0-2.54-0.03-3.77l-1.34-0.15v-0.6h4.13v0.6
					l-1.35,0.15c-0.03,1.26-0.03,2.52-0.03,3.77v1.01c0,1.04,0,2.27,0.03,3.5h3.32l0.43-2.01H235.73z M242.94,361h-3.43
					c-0.02,1.21-0.02,2.45-0.02,3.7h2.16l0.2-1.39h0.67v3.44h-0.67l-0.19-1.37h-2.17c0,1.38,0,2.66,0.02,3.91h3.72l0.32-1.86h0.84
					l-0.1,2.59h-7.56v-0.59l1.35-0.15c0.03-1.24,0.03-2.5,0.03-3.78v-0.72c0-1.25,0-2.52-0.03-3.77l-1.34-0.15v-0.6H244l0.1,2.59
					h-0.84L242.94,361z M252.33,369.12l0.29-1.69h0.9l-0.06,2.12c-0.91,0.49-1.92,0.7-2.95,0.7c-2.94,0-4.94-2.1-4.94-5.1
					c0-2.95,2.09-5.11,4.93-5.11c0.81,0,1.83,0.14,2.82,0.7l0.06,2.13h-0.9l-0.29-1.69c-0.53-0.3-1.04-0.41-1.5-0.41
					c-1.95,0-3.52,1.52-3.52,4.37c0,2.85,1.42,4.37,3.43,4.37C251.14,369.52,251.74,369.41,252.33,369.12 M261.53,369.12l0.29-1.69
					h0.9l-0.06,2.12c-0.91,0.49-1.92,0.7-2.95,0.7c-2.94,0-4.94-2.1-4.94-5.1c0-2.95,2.09-5.11,4.93-5.11c0.81,0,1.83,0.14,2.82,0.7
					l0.06,2.13h-0.9l-0.29-1.69c-0.53-0.3-1.04-0.41-1.5-0.41c-1.95,0-3.53,1.52-3.53,4.37c0,2.85,1.42,4.37,3.42,4.37
					C260.35,369.52,260.95,369.41,261.53,369.12 M265.31,364.79c0-1.25,0-2.52-0.02-3.77l-1.35-0.15v-0.6h4.12v0.6l-1.34,0.15
					c-0.03,1.24-0.03,2.5-0.03,3.77v0.72c0,1.25,0,2.52,0.03,3.78l1.34,0.15v0.59h-4.12v-0.59l1.35-0.15
					c0.02-1.24,0.02-2.5,0.02-3.78V364.79z M277.98,365.15c0,3.21-2.19,5.1-4.46,5.1c-2.27,0-4.48-1.77-4.48-5.1
					c0-3.21,2.22-5.11,4.48-5.11C275.78,360.05,277.98,361.82,277.98,365.15 M273.52,369.52c2.02,0,2.87-2.17,2.87-4.37
					s-0.85-4.37-2.87-4.37c-2.02,0-2.88,2.17-2.88,4.37S271.5,369.52,273.52,369.52 M274.2,357.79c0.41-0.41,0.66-0.56,0.92-0.56
					c0.3,0,0.55,0.2,0.55,0.5c0,0.26-0.19,0.5-0.73,0.81c-0.61,0.34-1.23,0.67-1.84,0.98l-0.27-0.36
					C273.29,358.69,273.75,358.23,274.2,357.79 M285.01,360.27h3.52v0.6l-1.24,0.18v9.08h-0.51l-5.84-7.95v7.06l1.54,0.2v0.59h-3.52
					v-0.59l1.24-0.18v-8.09l-0.13-0.18l-1.04-0.13v-0.6h2.25l5.27,7.25v-6.46l-1.54-0.19V360.27z"/>
				<path class="st4" d="M151.23-12.34h-0.41l0.02,2.75l1.31,0.14v0.78h-4.91v-0.78l1.1-0.11c0.02-1.19,0.02-2.4,0.02-3.63v-0.54
					c0-1.21,0-2.42-0.02-3.63l-1.1-0.11v-0.78h3.97c3.05,0,4.25,1.14,4.25,2.88C155.47-13.71,154.4-12.34,151.23-12.34
					 M151.25-13.15c1.29,0,1.93-0.9,1.93-2.23c0-1.34-0.71-2.03-1.99-2.03h-0.35c-0.02,1.21-0.02,2.44-0.02,3.68v0.58H151.25z
					 M157.17-13.73c0-1.21,0-2.42-0.02-3.63l-1.1-0.11v-0.78h2.35h1.23h1.17c2.3,0,3.57,0.91,3.57,2.42c0,0.99-0.65,2-2.6,2.31
					c1.64,0.22,2.11,0.97,2.33,2.33l0.28,1.62l1.1,0.12v0.78c-0.7,0.16-0.93,0.21-1.6,0.21c-1.24,0-1.97-0.36-2.12-1.49l-0.27-1.69
					c-0.15-0.98-0.51-1.43-1.38-1.43h-0.53c0,1.19,0,2.35,0.02,3.51l1.14,0.12v0.78h-4.7v-0.78l1.1-0.11
					c0.02-1.19,0.02-2.4,0.02-3.63V-13.73z M159.58-13.89h0.56c1.45,0,1.89-0.85,1.89-1.79c0-1.17-0.63-1.74-1.83-1.74h-0.6
					C159.58-16.27,159.58-15.11,159.58-13.89 M167.14-13.73c0-1.21,0-2.42-0.02-3.63l-1.1-0.11v-0.78h4.71v0.78l-1.11,0.11
					c-0.02,1.19-0.02,2.4-0.02,3.63v0.53c0,1.21,0,2.43,0.02,3.64l1.11,0.11v0.78h-4.71v-0.78l1.1-0.11
					c0.02-1.19,0.02-2.4,0.02-3.63V-13.73z M179.14-8.67v-0.78l1.07-0.12l0.02-3.31l0.03-3.2l-2.61,7.42h-1.13l-2.78-7.46l0.06,2.93
					v3.57l1.21,0.18v0.78h-3.56v-0.78l1.41-0.18v-7.69l-1.28-0.15v-0.78h3.85l2.38,6.43l2.24-6.43h3.68v0.78l-1.05,0.11
					c-0.02,1.2-0.02,2.42-0.02,3.63v0.54c0,1.22,0,2.43,0.02,3.63l1.1,0.11v0.78h-3.61H179.14z M189.43-9.42l1.13-0.15l-0.6-1.88
					h-2.94l-0.59,1.82l1.12,0.18v0.78h-3.15v-0.78l1.18-0.17l2.97-8.65h1.51l2.99,8.75l0.88,0.1v0.75h-4.5V-9.42z M187.29-12.3h2.39
					l-1.18-3.72L187.29-12.3z M193.51-17.38l-0.85-0.09v-0.78h4.71v0.75l-1.24,0.15l2,6.01l2.02-5.98L199-17.5v-0.75h3.16v0.78
					l-1.08,0.17l-3.01,8.66h-1.43L193.51-17.38z M208.72-17.43h-2.45c-0.02,1.11-0.02,2.24-0.02,3.38h1.58l0.18-1.15h0.85v3.14
					h-0.85l-0.17-1.13h-1.59c0,1.26,0,2.49,0.03,3.7h2.74l0.29-1.7h1.22l-0.1,2.51h-1.55h-3.85h-2.35v-0.78l1.1-0.11
					c0.02-1.19,0.02-2.4,0.02-3.63v-0.54c0-1.21,0-2.42-0.02-3.63l-1.1-0.11v-0.78h2.35h5.1l0.1,2.51h-1.22L208.72-17.43z
					 M212.48-13.73c0-1.21,0-2.42-0.02-3.63l-1.1-0.11v-0.78h2.35h1.23h1.17c2.3,0,3.57,0.91,3.57,2.42c0,0.99-0.65,2-2.59,2.31
					c1.64,0.22,2.11,0.97,2.33,2.33l0.28,1.62l1.1,0.12v0.78c-0.69,0.16-0.93,0.21-1.6,0.21c-1.24,0-1.97-0.36-2.12-1.49l-0.27-1.69
					c-0.14-0.98-0.5-1.43-1.38-1.43h-0.53c0,1.19,0,2.35,0.02,3.51l1.14,0.12v0.78h-4.7v-0.78l1.1-0.11
					c0.02-1.19,0.02-2.4,0.02-3.63V-13.73z M214.89-13.89h0.56c1.45,0,1.89-0.85,1.89-1.79c0-1.17-0.63-1.74-1.83-1.74h-0.6
					C214.89-16.27,214.89-15.11,214.89-13.89 M226.14-9.42l1.13-0.15l-0.6-1.88h-2.94l-0.59,1.82l1.12,0.18v0.78h-3.15v-0.78
					l1.18-0.17l2.97-8.65h1.51l2.99,8.75l0.88,0.1v0.75h-4.5V-9.42z M224.01-12.3h2.39l-1.18-3.72L224.01-12.3z M234.54-13.03h3.78
					v1.31h-3.78V-13.03z M242.66-17.38l-0.85-0.09v-0.78h4.71v0.75l-1.24,0.15l2,6.01l2.02-5.98l-1.15-0.19v-0.75h3.16v0.78
					l-1.08,0.17l-3.01,8.66h-1.43L242.66-17.38z M257.87-17.43h-2.45c-0.02,1.11-0.02,2.24-0.02,3.38h1.58l0.18-1.15H258v3.14h-0.85
					l-0.17-1.13h-1.59c0,1.26,0,2.49,0.02,3.7h2.74l0.29-1.7h1.22l-0.1,2.51h-1.55h-3.85h-2.35v-0.78l1.1-0.11
					c0.02-1.19,0.02-2.4,0.02-3.63v-0.54c0-1.21,0-2.42-0.02-3.63l-1.1-0.11v-0.78h2.35h5.1l0.1,2.51h-1.22L257.87-17.43z
					 M261.63-13.73c0-1.21,0-2.42-0.02-3.63l-1.1-0.11v-0.78h2.35h1.23h1.17c2.3,0,3.57,0.91,3.57,2.42c0,0.99-0.65,2-2.6,2.31
					c1.64,0.22,2.11,0.97,2.33,2.33l0.28,1.62l1.1,0.12v0.78c-0.69,0.16-0.93,0.21-1.6,0.21c-1.24,0-1.97-0.36-2.12-1.49l-0.27-1.69
					c-0.14-0.98-0.51-1.43-1.38-1.43h-0.53c0,1.19,0,2.35,0.02,3.51l1.14,0.12v0.78h-4.7v-0.78l1.1-0.11
					c0.02-1.19,0.02-2.4,0.02-3.63V-13.73z M264.03-13.89h0.56c1.45,0,1.89-0.85,1.89-1.79c0-1.17-0.63-1.74-1.83-1.74h-0.6
					C264.03-16.27,264.03-15.11,264.03-13.89 M275.29-9.42l1.13-0.15l-0.6-1.88h-2.94l-0.59,1.82l1.12,0.18v0.78h-3.15v-0.78
					l1.17-0.17l2.97-8.65h1.51l2.99,8.75l0.88,0.1v0.75h-4.5V-9.42z M273.16-12.3h2.39l-1.18-3.72L273.16-12.3z M286.3-18.26h3.85
					v0.78l-1.24,0.18v8.65h-1.24l-5.13-7.13v6.12l1.67,0.19v0.78h-2.61h-1.24v-0.78l1.24-0.17v-7.45l-0.22-0.3l-1.01-0.08v-0.79
					h3.29l4.3,5.89v-4.92l-1.67-0.19V-18.26z M295.4-8.4c-2.41,0-4.63-1.66-4.63-5.07c0-3.36,2.24-5.07,4.63-5.07
					c2.39,0,4.63,1.66,4.63,5.07C300.03-10.1,297.81-8.4,295.4-8.4 M295.4-9.24c1.47,0,2.04-1.8,2.04-4.22
					c0-2.41-0.58-4.23-2.04-4.23c-1.47,0-2.05,1.82-2.05,4.23C293.35-11.04,293.93-9.24,295.4-9.24"/>
				<path class="st4" d="M135.95,370.83c0.4-0.27,3.86-2.46,9.18-2.36c-1.87,2.12-1.69,5.84-1.69,5.84
					c0.12-3.98,4.87-5.53,4.87-5.53c1.88,0.34,3.93,0.99,6.09,2.08C154.4,370.86,147.19,360.51,135.95,370.83"/>
				<path class="st4" d="M135.95,361.67c0.4,0.27,3.86,2.46,9.18,2.36c-1.87-2.12-1.69-5.84-1.69-5.84
					c0.12,3.98,4.87,5.53,4.87,5.53c1.88-0.34,3.93-0.99,6.09-2.07C154.4,361.64,147.19,371.99,135.95,361.67"/>
				<path class="st4" d="M311.52,361.49c-0.4,0.27-3.86,2.46-9.18,2.36c1.87-2.12,1.69-5.84,1.69-5.84
					c-0.12,3.98-4.87,5.53-4.87,5.53c-1.88-0.34-3.93-0.99-6.09-2.08C293.07,361.46,300.28,371.81,311.52,361.49"/>
				<path class="st4" d="M311.52,370.65c-0.4-0.27-3.86-2.46-9.18-2.36c1.87,2.12,1.69,5.84,1.69,5.84
					c-0.12-3.98-4.87-5.53-4.87-5.53c-1.88,0.34-3.93,0.99-6.09,2.07C293.07,370.68,300.28,360.33,311.52,370.65"/>
			</g>
		</g>
	</g>
</g>
</svg>
