<?xml version="1.0" encoding="utf-8"?>
<!-- Generator: Adobe Illustrator 25.2.1, SVG Export Plug-In . SVG Version: 6.00 Build 0)  -->
<svg version="1.1" id="Capa_1" xmlns="http://www.w3.org/2000/svg" xmlns:xlink="http://www.w3.org/1999/xlink" x="0px" y="0px"
	 viewBox="0 0 438.6 356.3" style="enable-background:new 0 0 438.6 356.3;" xml:space="preserve">
<style type="text/css">
	.st0{fill:#DA5861;}
</style>
<path class="st0" d="M27.73,0c0.31,8.47,7.47,15.24,16.25,15.24c8.79,0,15.94-6.77,16.26-15.24h25.33
	c0.31,8.47,7.47,15.24,16.25,15.24c8.79,0,15.94-6.77,16.26-15.24h25.33c0.31,8.47,7.47,15.24,16.25,15.24S175.59,8.47,175.91,0
	h25.32c0.32,8.47,7.48,15.24,16.26,15.24c8.78,0,15.94-6.77,16.25-15.24h25.33c0.32,8.47,7.47,15.24,16.26,15.24
	c8.78,0,15.94-6.77,16.25-15.24h25.33c0.31,8.47,7.47,15.24,16.25,15.24c8.79,0,15.94-6.77,16.26-15.24h25.33
	c0.31,8.47,7.47,15.24,16.25,15.24c8.78,0,15.94-6.77,16.26-15.24h31.34v36.34c-0.2,0-0.4-0.01-0.6-0.01
	c-8.98,0-16.27,7.09-16.27,15.83s7.29,15.83,16.27,15.83c0.2,0,0.4-0.01,0.6-0.02v18.78c-0.2-0.01-0.4-0.01-0.6-0.01
	c-8.98,0-16.27,7.08-16.27,15.82c0,8.74,7.29,15.83,16.27,15.83c0.2,0,0.4-0.01,0.6-0.01v18.77c-0.2,0-0.4-0.01-0.6-0.01
	c-8.98,0-16.27,7.08-16.27,15.82c0,8.74,7.29,15.82,16.27,15.82c0.2,0,0.4,0,0.6-0.01v18.78c-0.2-0.01-0.4-0.02-0.6-0.02
	c-8.98,0-16.27,7.09-16.27,15.82c0,8.74,7.29,15.83,16.27,15.83c0.2,0,0.4-0.01,0.6-0.02v18.78c-0.2-0.01-0.4-0.01-0.6-0.01
	c-8.98,0-16.27,7.08-16.27,15.82c0,8.75,7.29,15.83,16.27,15.83c0.2,0,0.4,0,0.6-0.01v18.77c-0.2,0-0.4-0.01-0.6-0.01
	c-8.98,0-16.27,7.09-16.27,15.83c0,8.74,7.29,15.82,16.27,15.82c0.2,0,0.4-0.01,0.6-0.02v36.35h-31.34c0-0.2,0.01-0.39,0.01-0.59
	c0-8.74-7.28-15.82-16.27-15.82c-8.98,0-16.27,7.09-16.27,15.82c0,0.2,0.01,0.39,0.02,0.59h-25.33c0.01-0.2,0.01-0.39,0.01-0.59
	c0-8.74-7.28-15.82-16.27-15.82c-8.98,0-16.26,7.09-16.26,15.82c0,0.2,0,0.39,0.01,0.59h-25.33c0.01-0.2,0.01-0.39,0.01-0.59
	c0-8.74-7.28-15.82-16.26-15.82c-8.99,0-16.27,7.09-16.27,15.82c0,0.2,0,0.39,0.01,0.59h-25.33c0.01-0.2,0.02-0.39,0.02-0.59
	c0-8.74-7.29-15.82-16.27-15.82c-8.98,0-16.27,7.09-16.27,15.82c0,0.2,0.01,0.39,0.01,0.59h-25.32c0-0.2,0.01-0.39,0.01-0.59
	c0-8.74-7.29-15.82-16.27-15.82c-8.98,0-16.27,7.09-16.27,15.82c0,0.2,0.01,0.39,0.02,0.59h-25.33c0.01-0.2,0.01-0.39,0.01-0.59
	c0-8.74-7.28-15.82-16.27-15.82c-8.98,0-16.26,7.09-16.26,15.82c0,0.2,0,0.39,0.01,0.59H60.23c0.01-0.2,0.01-0.39,0.01-0.59
	c0-8.74-7.28-15.82-16.27-15.82c-8.98,0-16.26,7.09-16.26,15.82c0,0.2,0,0.39,0.01,0.59H0v-36.35c8.71-0.3,15.67-7.27,15.67-15.81
	c0-8.54-6.96-15.5-15.67-15.82v-18.77c8.71-0.31,15.67-7.27,15.67-15.82c0-8.54-6.96-15.5-15.67-15.81v-18.78
	c8.71-0.3,15.67-7.27,15.67-15.81c0-8.54-6.96-15.5-15.67-15.81v-18.78c8.71-0.3,15.67-7.27,15.67-15.81
	c0-8.55-6.96-15.5-15.67-15.82v-18.77c8.71-0.31,15.67-7.27,15.67-15.82c0-8.54-6.96-15.5-15.67-15.81V67.96
	c8.71-0.3,15.67-7.27,15.67-15.81S8.71,36.65,0,36.34V0H27.73z"/>
</svg>
