<svg width="61" height="61" viewBox="0 0 61 61" fill="none" xmlns="http://www.w3.org/2000/svg">
<path d="M30.4997 60.2265C47.0154 60.2265 60.404 46.9177 60.404 30.5005C60.404 14.0833 47.0154 0.774536 30.4997 0.774536C13.9841 0.774536 0.595459 14.0833 0.595459 30.5005C0.595459 46.9177 13.9841 60.2265 30.4997 60.2265Z" fill="#8E0001"/>
<path d="M28.8029 25.336C28.8029 27.1633 28.8029 28.9343 28.8029 30.882C28.2252 30.882 27.7081 30.8499 27.195 30.886C24.5528 31.0748 22.5894 33.0948 22.6177 35.5726C22.6459 37.9581 24.6942 40.0384 27.1061 40.1307C29.7443 40.2311 31.8895 38.5404 31.9905 35.8578C32.1562 31.4523 32.0632 27.0348 32.0753 22.6253C32.0834 19.5571 32.0753 16.4929 32.0753 13.2842C34.0267 13.2842 35.8043 13.2842 37.7071 13.2842C38.4586 17.6093 40.5392 20.7177 45.5367 21.0189C45.5367 22.8301 45.5367 24.5971 45.5367 26.5408C42.7895 26.8821 40.4261 25.9464 37.8768 24.2316C37.8768 28.2034 37.9132 31.8338 37.8687 35.4602C37.8041 40.3877 34.5883 44.5161 29.922 45.5442C25.6154 46.492 21.8541 45.3755 19.0867 41.9058C16.3799 38.5083 16.0001 34.665 18.008 30.8057C20.0038 26.9665 23.3206 25.083 27.7041 25.1593C28.0313 25.1673 28.3505 25.2597 28.8029 25.336Z" fill="white"/>
</svg>
