<?xml version="1.0" encoding="utf-8"?>
<!-- Generator: Adobe Illustrator 25.2.1, SVG Export Plug-In . SVG Version: 6.00 Build 0)  -->
<svg version="1.1" id="Capa_1" xmlns="http://www.w3.org/2000/svg" xmlns:xlink="http://www.w3.org/1999/xlink" x="0px" y="0px"
	 viewBox="0 0 550 90" style="enable-background:new 0 0 550 90;" xml:space="preserve">
<style type="text/css">
	.st0{fill:none;stroke:#8E0F06;stroke-width:4;}
	.st1{fill:#8E0F06;}
</style>
<path class="st0" d="M30,2h490c15.46,0,28,12.54,28,28v30c0,15.46-12.54,28-28,28H30C14.54,88,2,75.46,2,60V30C2,14.54,14.54,2,30,2
	z"/>
<path class="st1" d="M32.86,33.75c0-1.43,0.22-2.66,0.65-3.69c0.46-1.06,1.05-1.94,1.76-2.63c0.74-0.68,1.59-1.2,2.54-1.54
	c0.95-0.35,1.92-0.52,2.92-0.52h20.3c1,0,1.98,0.17,2.92,0.52c0.95,0.34,1.78,0.86,2.49,1.54c0.74,0.69,1.33,1.57,1.76,2.63
	c0.46,1.03,0.69,2.26,0.69,3.69c0,0.86-0.1,1.8-0.3,2.8c-0.17,0.97-0.47,1.88-0.9,2.71c-0.43,0.8-1,1.48-1.72,2.02
	c-0.72,0.54-1.62,0.82-2.71,0.82c-1.17,0-2.14-0.39-2.88-1.16c-0.74-0.78-1.12-1.74-1.12-2.89c0-0.63,0.13-1.16,0.39-1.59
	c0.26-0.45,0.57-0.87,0.95-1.24c0.37-0.38,0.79-0.72,1.25-1.04c0.46-0.34,0.87-0.68,1.25-1.03c0.37-0.34,0.69-0.71,0.95-1.12
	c0.26-0.4,0.39-0.87,0.39-1.41c0-0.61-0.14-1.11-0.43-1.51c-0.26-0.4-0.6-0.7-1.03-0.9c-0.43-0.23-0.92-0.39-1.46-0.48
	c-0.52-0.08-1.03-0.12-1.55-0.12c-1.78,0-3,0.4-3.66,1.2c-0.63,0.77-0.95,1.98-0.95,3.61c0,1.46,0.04,2.65,0.13,3.57
	c0.11,0.92,0.24,1.68,0.39,2.28c0.17,0.57,0.34,1.03,0.52,1.38c0.17,0.31,0.33,0.63,0.47,0.94c0.17,0.32,0.3,0.68,0.39,1.08
	c0.11,0.37,0.17,0.89,0.17,1.54c0,0.64-0.06,1.14-0.17,1.51c-0.09,0.37-0.2,0.72-0.34,1.03c-0.14,0.32-0.32,0.66-0.52,1.03
	c-0.17,0.38-0.33,0.89-0.47,1.55c-0.14,0.63-0.27,1.46-0.39,2.5c-0.09,1-0.13,2.3-0.13,3.91v4.81c0,0.72,0.1,1.28,0.3,1.68
	c0.23,0.4,0.47,0.73,0.73,0.99c0.29,0.23,0.53,0.43,0.73,0.6c0.23,0.17,0.34,0.39,0.34,0.65c0,0.23-0.06,0.46-0.17,0.69
	c-0.12,0.23-0.36,0.34-0.73,0.34H45.16c-0.37,0-0.62-0.11-0.73-0.34s-0.17-0.46-0.17-0.69c0-0.26,0.1-0.48,0.3-0.65
	c0.23-0.17,0.47-0.37,0.73-0.6c0.29-0.26,0.53-0.59,0.73-0.99c0.23-0.4,0.34-0.96,0.34-1.68v-4.38c0-2.01,0.22-3.63,0.65-4.86
	c0.46-1.23,1.03-2.21,1.72-2.92c0.69-0.72,1.42-1.25,2.19-1.6c0.77-0.34,1.51-0.61,2.19-0.81c0.69-0.23,1.25-0.46,1.68-0.69
	c0.46-0.23,0.69-0.59,0.69-1.08c0-0.4-0.23-0.67-0.69-0.81c-0.43-0.15-0.99-0.27-1.68-0.39c-0.66-0.14-1.39-0.34-2.19-0.6
	c-0.77-0.26-1.51-0.72-2.19-1.38c-0.66-0.69-1.22-1.62-1.68-2.79c-0.43-1.21-0.64-2.81-0.64-4.82c0-1.63-0.33-2.84-0.99-3.61
	c-0.63-0.8-1.84-1.2-3.61-1.2c-0.52,0-1.05,0.04-1.59,0.12c-0.52,0.09-0.99,0.25-1.42,0.48c-0.43,0.2-0.79,0.5-1.08,0.9
	c-0.26,0.4-0.39,0.9-0.39,1.51c0,0.54,0.13,1.01,0.39,1.41c0.26,0.41,0.57,0.78,0.95,1.12c0.37,0.35,0.79,0.69,1.25,1.03
	c0.46,0.32,0.87,0.66,1.25,1.04c0.37,0.37,0.69,0.79,0.95,1.24c0.26,0.46,0.39,0.99,0.39,1.59c0,1.15-0.37,2.11-1.12,2.89
	c-0.74,0.77-1.71,1.16-2.88,1.16c-1.06,0-1.96-0.28-2.71-0.82c-0.72-0.54-1.29-1.22-1.72-2.02c-0.43-0.83-0.75-1.74-0.95-2.71
	C32.95,35.55,32.86,34.61,32.86,33.75z M68.47,41.24c0.2-0.15,0.63-0.36,1.29-0.65c0.66-0.28,1.39-0.56,2.19-0.82
	c0.8-0.28,1.59-0.53,2.36-0.73c0.8-0.23,1.43-0.34,1.89-0.34c0.89,0,1.49,0.23,1.81,0.69c0.34,0.46,0.52,1.22,0.52,2.28v1.2
	c0.89-1.2,1.98-2.19,3.27-2.97c1.32-0.8,2.71-1.2,4.17-1.2c0.4,0,0.86,0.06,1.38,0.17c0.52,0.12,1,0.32,1.46,0.6
	c0.49,0.26,0.89,0.63,1.2,1.12c0.34,0.49,0.52,1.12,0.52,1.89c0,0.63-0.13,1.21-0.39,1.72c-0.26,0.49-0.6,0.91-1.03,1.25
	c-0.43,0.34-0.92,0.62-1.46,0.82c-0.52,0.17-1.05,0.26-1.59,0.26c-0.54,0-1.03-0.09-1.46-0.26c-0.43-0.2-0.84-0.4-1.25-0.6
	c-0.37-0.23-0.77-0.43-1.2-0.61c-0.4-0.17-0.84-0.25-1.33-0.25c-0.52,0-0.97,0.12-1.38,0.38c-0.4,0.23-0.7,0.59-0.9,1.08v13.28
	c0,0.64,0.09,1.15,0.26,1.55c0.17,0.4,0.36,0.73,0.56,0.99c0.23,0.26,0.43,0.49,0.6,0.69s0.26,0.43,0.26,0.69
	c0,0.23-0.06,0.46-0.17,0.69c-0.11,0.23-0.36,0.34-0.73,0.34H69.16c-0.37,0-0.62-0.11-0.73-0.34c-0.11-0.23-0.17-0.46-0.17-0.69
	c0-0.26,0.09-0.49,0.26-0.69s0.36-0.43,0.56-0.69c0.23-0.26,0.43-0.59,0.6-0.99c0.17-0.4,0.26-0.91,0.26-1.55
	c0-1.06,0.16-1.9,0.47-2.53c0.34-0.66,0.76-1.18,1.25-1.55c0.49-0.4,1.02-0.7,1.59-0.9c0.57-0.2,1.1-0.39,1.59-0.56
	c0.49-0.17,0.89-0.36,1.2-0.56c0.34-0.23,0.52-0.56,0.52-0.99c0-0.4-0.17-0.7-0.52-0.9c-0.32-0.2-0.72-0.38-1.2-0.52
	c-0.49-0.17-1.02-0.34-1.59-0.52c-0.57-0.2-1.1-0.47-1.59-0.81c-0.49-0.37-0.9-0.86-1.25-1.46c-0.32-0.63-0.47-1.45-0.47-2.46
	c0-0.91-0.19-1.63-0.56-2.15c-0.37-0.54-0.67-0.93-0.9-1.16c-0.14-0.14-0.23-0.34-0.26-0.6C68.21,41.6,68.3,41.38,68.47,41.24z
	 M106.54,46.83c-0.06-0.23-0.1-0.45-0.13-0.65c0-0.23-0.01-0.47-0.04-0.73c-0.03-0.37-0.09-0.84-0.17-1.42
	c-0.06-0.6-0.19-1.17-0.39-1.72c-0.2-0.57-0.49-1.06-0.86-1.46c-0.34-0.43-0.82-0.64-1.42-0.64c-0.8,0-1.43,0.22-1.89,0.68
	c-0.43,0.46-0.79,1.03-1.08,1.72c-0.26,0.69-0.49,1.44-0.69,2.24c-0.17,0.77-0.43,1.5-0.77,2.19c-0.32,0.69-0.76,1.26-1.33,1.72
	s-1.36,0.69-2.36,0.69c-0.49,0-0.96-0.09-1.42-0.26c-0.46-0.2-0.87-0.46-1.25-0.77c-0.34-0.32-0.63-0.69-0.86-1.12
	c-0.2-0.43-0.3-0.9-0.3-1.42c0-1.43,0.42-2.61,1.25-3.53c0.86-0.94,1.92-1.69,3.18-2.23c1.29-0.55,2.67-0.92,4.13-1.12
	s2.81-0.3,4.04-0.3c1.2,0,2.41,0.1,3.61,0.3c1.23,0.2,2.35,0.57,3.35,1.12c1.03,0.54,1.89,1.27,2.58,2.19
	c0.69,0.92,1.1,2.09,1.25,3.53l1.29,13.71c0.09,0.81,0.21,1.42,0.39,1.85c0.17,0.43,0.36,0.76,0.56,0.99
	c0.2,0.2,0.37,0.38,0.52,0.52c0.14,0.11,0.22,0.3,0.22,0.56c0,0.23-0.06,0.46-0.17,0.69s-0.36,0.34-0.73,0.34h-6.36
	c-0.32,0-0.64-0.06-0.99-0.17c-0.32-0.12-0.62-0.33-0.9-0.65c-0.26-0.31-0.49-0.74-0.69-1.29c-0.2-0.57-0.34-1.29-0.43-2.15
	c-1.32,1.52-2.82,2.68-4.52,3.49c-1.66,0.8-3.41,1.2-5.25,1.2c-0.97,0-1.88-0.11-2.71-0.34s-1.56-0.58-2.19-1.04
	c-0.6-0.48-1.09-1.09-1.46-1.8c-0.34-0.72-0.52-1.58-0.52-2.58c0-1.49,0.29-2.73,0.86-3.7c0.6-1,1.36-1.85,2.28-2.54
	c0.95-0.71,1.99-1.3,3.14-1.76c1.15-0.49,2.29-0.95,3.44-1.38c1.17-0.43,2.27-0.86,3.27-1.29
	C105.03,48.05,105.88,47.49,106.54,46.83z M100,57.19c0,1.26,0.3,2.21,0.9,2.84c0.63,0.6,1.36,0.9,2.19,0.9
	c0.46,0,0.9-0.09,1.33-0.26c0.46-0.2,0.87-0.44,1.25-0.73c0.4-0.31,0.77-0.64,1.12-0.99c0.37-0.37,0.7-0.73,0.99-1.07
	c0.26-0.98,0.72-1.71,1.38-2.2c0.66-0.51,1.33-0.93,2.02-1.24c0.69-0.32,1.28-0.6,1.76-0.86c0.52-0.29,0.75-0.69,0.69-1.21
	c-0.03-0.34-0.17-0.57-0.43-0.68c-0.26-0.15-0.59-0.25-0.99-0.31c-0.4-0.05-0.85-0.1-1.33-0.12c-0.46-0.06-0.93-0.18-1.42-0.35
	c-0.49-0.17-0.95-0.44-1.38-0.82c-0.43-0.37-0.79-0.91-1.08-1.63c-0.69,0.89-1.45,1.66-2.28,2.32c-0.8,0.66-1.56,1.31-2.28,1.94
	c-0.69,0.6-1.28,1.24-1.76,1.93C100.23,55.34,100,56.19,100,57.19z M119.49,30.49c0.2-0.15,0.63-0.36,1.29-0.65
	c0.66-0.28,1.39-0.56,2.19-0.82c0.8-0.28,1.59-0.53,2.36-0.73c0.8-0.23,1.43-0.34,1.89-0.34c0.89,0,1.49,0.23,1.81,0.69
	c0.34,0.46,0.52,1.22,0.52,2.28v9.8c0.63-0.74,1.41-1.26,2.32-1.55c0.92-0.31,1.98-0.47,3.18-0.47c2.29,0,4.29,0.37,5.98,1.12
	c1.72,0.71,3.14,1.67,4.26,2.88c1.12,1.2,1.95,2.58,2.49,4.13c0.57,1.52,0.86,3.08,0.86,4.68c0,1.67-0.29,3.3-0.86,4.91
	c-0.57,1.6-1.42,3.03-2.54,4.3c-1.12,1.26-2.49,2.27-4.13,3.05c-1.63,0.77-3.51,1.16-5.63,1.16c-1.23,0-2.41-0.14-3.53-0.43
	c-1.12-0.32-2.18-0.76-3.18-1.33c-0.32,0.51-0.67,0.87-1.08,1.07c-0.37,0.17-0.76,0.26-1.16,0.26h-6.36c-0.37,0-0.62-0.11-0.73-0.34
	s-0.17-0.46-0.17-0.69c0-0.26,0.07-0.45,0.22-0.56c0.14-0.14,0.32-0.32,0.52-0.52c0.2-0.23,0.39-0.56,0.56-0.99
	c0.17-0.43,0.3-1.04,0.39-1.85v-7.31c0-1.06,0.16-1.9,0.47-2.53c0.34-0.66,0.76-1.18,1.25-1.55c0.49-0.4,1.02-0.7,1.59-0.9
	s1.1-0.39,1.59-0.56c0.49-0.17,0.89-0.37,1.2-0.6c0.34-0.23,0.52-0.55,0.52-0.95c0-0.4-0.17-0.67-0.52-0.82
	c-0.32-0.17-0.72-0.3-1.2-0.38c-0.49-0.12-1.02-0.25-1.59-0.39c-0.57-0.17-1.1-0.47-1.59-0.9c-0.49-0.43-0.9-1.05-1.25-1.85
	c-0.32-0.81-0.47-1.9-0.47-3.27v-2.5c0-0.45-0.06-0.86-0.17-1.2c-0.11-0.37-0.26-0.69-0.43-0.95c-0.14-0.28-0.3-0.51-0.47-0.68
	c-0.17-0.2-0.3-0.36-0.39-0.48c-0.14-0.17-0.23-0.38-0.26-0.64C119.23,30.83,119.32,30.63,119.49,30.49z M129.81,45.97
	c0,0.86,0.04,1.89,0.13,3.09c0.11,1.21,0.27,2.45,0.47,3.74c0.23,1.29,0.5,2.57,0.82,3.83c0.34,1.26,0.74,2.39,1.2,3.4
	c0.46,1,0.99,1.82,1.59,2.45c0.63,0.6,1.32,0.9,2.06,0.9c0.86,0,1.56-0.16,2.11-0.47c0.57-0.35,1.02-0.79,1.33-1.33
	c0.34-0.55,0.57-1.15,0.69-1.81c0.14-0.69,0.22-1.39,0.22-2.11c0-0.86-0.07-1.89-0.22-3.09c-0.11-1.21-0.3-2.45-0.56-3.74
	c-0.23-1.29-0.53-2.57-0.9-3.83c-0.34-1.26-0.74-2.39-1.2-3.4c-0.46-1-0.98-1.8-1.55-2.41c-0.57-0.63-1.19-0.94-1.85-0.94
	c-0.86,0-1.58,0.17-2.15,0.51c-0.55,0.32-0.99,0.75-1.33,1.29c-0.32,0.52-0.55,1.12-0.69,1.81
	C129.87,44.55,129.81,45.25,129.81,45.97z M165.45,46.83c-0.06-0.23-0.1-0.45-0.13-0.65c0-0.23-0.01-0.47-0.04-0.73
	c-0.03-0.37-0.09-0.84-0.17-1.42c-0.06-0.6-0.19-1.17-0.39-1.72c-0.2-0.57-0.49-1.06-0.86-1.46c-0.34-0.43-0.82-0.64-1.42-0.64
	c-0.8,0-1.43,0.22-1.89,0.68c-0.43,0.46-0.79,1.03-1.08,1.72c-0.26,0.69-0.49,1.44-0.69,2.24c-0.17,0.77-0.43,1.5-0.77,2.19
	c-0.32,0.69-0.76,1.26-1.33,1.72c-0.57,0.46-1.36,0.69-2.36,0.69c-0.49,0-0.96-0.09-1.42-0.26c-0.46-0.2-0.87-0.46-1.25-0.77
	c-0.34-0.32-0.63-0.69-0.86-1.12c-0.2-0.43-0.3-0.9-0.3-1.42c0-1.43,0.42-2.61,1.25-3.53c0.86-0.94,1.92-1.69,3.18-2.23
	c1.29-0.55,2.67-0.92,4.13-1.12c1.46-0.2,2.81-0.3,4.04-0.3c1.2,0,2.41,0.1,3.61,0.3c1.23,0.2,2.35,0.57,3.35,1.12
	c1.03,0.54,1.89,1.27,2.58,2.19c0.69,0.92,1.1,2.09,1.25,3.53l1.29,13.71c0.09,0.81,0.22,1.42,0.39,1.85
	c0.17,0.43,0.36,0.76,0.56,0.99c0.2,0.2,0.37,0.38,0.52,0.52c0.14,0.11,0.21,0.3,0.21,0.56c0,0.23-0.06,0.46-0.17,0.69
	c-0.11,0.23-0.36,0.34-0.73,0.34h-6.36c-0.32,0-0.65-0.06-0.99-0.17c-0.32-0.12-0.62-0.33-0.9-0.65c-0.26-0.31-0.49-0.74-0.69-1.29
	c-0.2-0.57-0.34-1.29-0.43-2.15c-1.32,1.52-2.82,2.68-4.52,3.49c-1.66,0.8-3.41,1.2-5.25,1.2c-0.97,0-1.88-0.11-2.71-0.34
	c-0.83-0.23-1.56-0.58-2.19-1.04c-0.6-0.48-1.09-1.09-1.46-1.8c-0.34-0.72-0.52-1.58-0.52-2.58c0-1.49,0.29-2.73,0.86-3.7
	c0.6-1,1.36-1.85,2.28-2.54c0.95-0.71,1.99-1.3,3.14-1.76c1.15-0.49,2.29-0.95,3.44-1.38c1.18-0.43,2.27-0.86,3.27-1.29
	C163.95,48.05,164.79,47.49,165.45,46.83z M158.92,57.19c0,1.26,0.3,2.21,0.9,2.84c0.63,0.6,1.36,0.9,2.19,0.9
	c0.46,0,0.9-0.09,1.33-0.26c0.46-0.2,0.88-0.44,1.25-0.73c0.4-0.31,0.77-0.64,1.12-0.99c0.37-0.37,0.7-0.73,0.99-1.07
	c0.26-0.98,0.72-1.71,1.38-2.2c0.66-0.51,1.33-0.93,2.02-1.24c0.69-0.32,1.28-0.6,1.76-0.86c0.52-0.29,0.75-0.69,0.69-1.21
	c-0.03-0.34-0.17-0.57-0.43-0.68c-0.26-0.15-0.59-0.25-0.99-0.31c-0.4-0.05-0.84-0.1-1.33-0.12c-0.46-0.06-0.93-0.18-1.42-0.35
	c-0.49-0.17-0.95-0.44-1.38-0.82c-0.43-0.37-0.79-0.91-1.08-1.63c-0.69,0.89-1.45,1.66-2.28,2.32c-0.8,0.66-1.56,1.31-2.28,1.94
	c-0.69,0.6-1.28,1.24-1.76,1.93C159.15,55.34,158.92,56.19,158.92,57.19z M179.74,72.46V59.55c0-1.06,0.16-1.9,0.47-2.53
	c0.34-0.66,0.76-1.18,1.25-1.55c0.49-0.4,1.02-0.7,1.59-0.9s1.1-0.39,1.59-0.56s0.89-0.36,1.2-0.56c0.34-0.23,0.52-0.56,0.52-0.99
	c0-0.4-0.17-0.7-0.52-0.9c-0.31-0.2-0.72-0.38-1.2-0.52c-0.49-0.17-1.02-0.34-1.59-0.52c-0.57-0.2-1.1-0.47-1.59-0.81
	c-0.49-0.37-0.9-0.86-1.25-1.46c-0.32-0.63-0.47-1.45-0.47-2.46c0-0.91-0.19-1.63-0.56-2.15c-0.37-0.54-0.67-0.93-0.9-1.16
	c-0.14-0.14-0.23-0.34-0.26-0.6c0-0.28,0.09-0.5,0.26-0.64c0.2-0.15,0.63-0.36,1.29-0.65c0.66-0.28,1.39-0.56,2.19-0.82
	c0.8-0.28,1.59-0.53,2.36-0.73c0.8-0.23,1.43-0.34,1.89-0.34c0.89,0,1.49,0.23,1.81,0.69c0.34,0.46,0.52,1.22,0.52,2.28v27.26
	c0,1.23-0.21,2.36-0.65,3.4c-0.43,1.06-1.06,1.96-1.89,2.71c-0.8,0.74-1.79,1.33-2.97,1.76c-1.18,0.43-2.52,0.64-4.04,0.64
	c-0.43,0-0.8-0.05-1.12-0.17c-0.32-0.08-0.47-0.39-0.47-0.9c0-0.35,0.13-0.59,0.39-0.73c0.26-0.12,0.54-0.28,0.86-0.48
	c0.34-0.2,0.65-0.5,0.9-0.9C179.61,73.89,179.74,73.29,179.74,72.46z M184,28.81c0.6,0,1.16,0.11,1.68,0.34
	c0.55,0.2,1,0.51,1.38,0.91c0.4,0.37,0.72,0.81,0.95,1.33c0.23,0.52,0.34,1.07,0.34,1.68c0,1.23-0.42,2.26-1.25,3.09
	c-0.83,0.83-1.86,1.25-3.1,1.25c-0.6,0-1.16-0.11-1.68-0.34c-0.52-0.23-0.97-0.53-1.38-0.91c-0.37-0.4-0.67-0.86-0.9-1.37
	c-0.2-0.55-0.3-1.12-0.3-1.72c0-1.21,0.4-2.21,1.2-3.01C181.77,29.23,182.79,28.81,184,28.81z M191,51.51c0-1.6,0.27-3.16,0.82-4.68
	c0.57-1.55,1.42-2.93,2.54-4.13c1.12-1.21,2.52-2.17,4.21-2.88c1.72-0.75,3.73-1.12,6.02-1.12c2.29,0,4.28,0.37,5.98,1.12
	c1.72,0.71,3.14,1.67,4.26,2.88c1.12,1.2,1.95,2.58,2.49,4.13c0.57,1.52,0.86,3.08,0.86,4.68c0,1.67-0.3,3.3-0.9,4.91
	c-0.57,1.6-1.43,3.03-2.58,4.3c-1.12,1.26-2.52,2.27-4.21,3.05c-1.69,0.77-3.65,1.16-5.89,1.16s-4.2-0.39-5.89-1.16
	c-1.69-0.78-3.11-1.79-4.26-3.05c-1.12-1.27-1.98-2.7-2.58-4.3C191.28,54.81,191,53.18,191,51.51z M195.81,54.09
	c0.09,0.32,0.26,0.52,0.52,0.61c0.29,0.08,0.63,0.12,1.03,0.12h0.86c0.43,0,0.89,0.05,1.38,0.13c0.49,0.09,0.95,0.29,1.38,0.61
	c0.46,0.31,0.87,0.78,1.25,1.41c0.37,0.64,0.67,1.5,0.9,2.58c0.26,1.38,0.69,2.36,1.29,2.93c0.63,0.54,1.45,0.82,2.45,0.82
	c0.49,0,0.95-0.18,1.38-0.52c0.43-0.37,0.79-0.85,1.07-1.42c0.29-0.57,0.47-1.22,0.56-1.93c0.11-0.75,0.09-1.51-0.09-2.28
	c-0.2-0.95-0.22-1.74-0.04-2.37c0.17-0.66,0.43-1.2,0.77-1.63c0.37-0.46,0.8-0.83,1.29-1.12c0.49-0.32,0.93-0.59,1.33-0.82
	c0.4-0.26,0.72-0.51,0.95-0.77c0.26-0.26,0.34-0.57,0.26-0.95c-0.09-0.31-0.27-0.51-0.56-0.6c-0.26-0.09-0.59-0.13-0.99-0.13h-0.86
	c-0.43,0-0.89-0.04-1.38-0.13c-0.49-0.08-0.96-0.28-1.42-0.6c-0.43-0.31-0.83-0.79-1.2-1.42c-0.37-0.63-0.67-1.49-0.9-2.58
	c-0.29-1.37-0.75-2.33-1.38-2.88c-0.6-0.57-1.41-0.86-2.41-0.86c-0.49,0-0.95,0.19-1.38,0.56c-0.43,0.34-0.79,0.8-1.08,1.38
	c-0.29,0.57-0.49,1.23-0.6,1.97c-0.09,0.72-0.04,1.47,0.13,2.24c0.2,0.95,0.22,1.75,0.04,2.41c-0.17,0.63-0.45,1.17-0.82,1.63
	c-0.34,0.43-0.76,0.8-1.25,1.12c-0.46,0.29-0.89,0.56-1.29,0.82c-0.4,0.23-0.73,0.47-0.99,0.73
	C195.8,53.41,195.73,53.72,195.81,54.09z M223.92,54.27c1.03,0,1.84,0.23,2.41,0.68c0.6,0.43,1.08,0.99,1.42,1.68
	c0.37,0.69,0.67,1.42,0.9,2.19c0.23,0.78,0.5,1.51,0.82,2.2c0.34,0.68,0.77,1.26,1.29,1.72c0.54,0.43,1.29,0.64,2.24,0.64
	c0.52,0,1.03-0.1,1.55-0.3c0.52-0.2,0.97-0.47,1.38-0.82c0.43-0.37,0.76-0.8,0.99-1.29c0.26-0.48,0.39-1,0.39-1.54
	c0-1.01-0.42-1.75-1.25-2.24c-0.83-0.52-1.88-0.95-3.14-1.29c-1.26-0.34-2.62-0.67-4.08-0.99c-1.46-0.31-2.82-0.76-4.09-1.33
	c-1.26-0.6-2.31-1.42-3.14-2.45c-0.83-1.06-1.25-2.48-1.25-4.26c0-1.43,0.32-2.65,0.95-3.66c0.66-1.03,1.49-1.87,2.49-2.53
	c1.03-0.69,2.18-1.19,3.44-1.51c1.26-0.31,2.49-0.47,3.7-0.47c1.86,0,3.58,0.1,5.16,0.3c1.6,0.2,3,0.57,4.17,1.12
	c1.2,0.51,2.14,1.23,2.79,2.15c0.69,0.92,1.03,2.09,1.03,3.52c0,0.52-0.11,0.99-0.34,1.42c-0.2,0.43-0.49,0.81-0.86,1.12
	c-0.34,0.32-0.74,0.58-1.2,0.78c-0.46,0.17-0.93,0.25-1.42,0.25c-1.03,0-1.85-0.21-2.45-0.64c-0.57-0.46-1.05-1.03-1.42-1.72
	c-0.37-0.69-0.69-1.42-0.95-2.19c-0.26-0.78-0.57-1.51-0.95-2.2c-0.37-0.69-0.86-1.24-1.46-1.67c-0.57-0.46-1.38-0.69-2.41-0.69
	c-0.52,0-1,0.11-1.46,0.34c-0.46,0.2-0.86,0.49-1.2,0.86c-0.34,0.35-0.62,0.76-0.82,1.25c-0.17,0.49-0.26,1-0.26,1.55
	c0,0.46,0.06,0.87,0.17,1.24c0.14,0.38,0.29,0.73,0.43,1.08c0.17,0.31,0.32,0.66,0.43,1.03c0.14,0.34,0.21,0.73,0.21,1.16
	c0,0.55-0.07,1.06-0.21,1.55c-0.11,0.46-0.23,0.87-0.34,1.25c-0.11,0.34-0.19,0.64-0.22,0.9c0,0.26,0.11,0.46,0.34,0.6
	c0.11,0.06,0.22,0.09,0.3,0.09c0.32,0,0.72-0.22,1.2-0.65s1.05-0.89,1.68-1.37c0.63-0.52,1.33-0.99,2.11-1.42
	c0.8-0.43,1.68-0.65,2.62-0.65c0.83,0,1.72,0.17,2.67,0.52c0.98,0.31,1.86,0.8,2.67,1.46c0.83,0.66,1.52,1.48,2.06,2.45
	c0.54,0.95,0.82,2.05,0.82,3.31c0,1.41-0.33,2.63-0.99,3.66c-0.63,1.03-1.46,1.88-2.49,2.53c-1,0.66-2.14,1.15-3.4,1.47
	c-1.26,0.31-2.49,0.47-3.7,0.47c-1.83,0-3.55-0.1-5.16-0.3c-1.6-0.2-3.01-0.56-4.21-1.08c-1.18-0.54-2.11-1.27-2.8-2.19
	c-0.66-0.92-0.99-2.09-0.99-3.53c0-0.51,0.1-0.98,0.3-1.41c0.23-0.43,0.52-0.81,0.86-1.12c0.37-0.32,0.79-0.56,1.25-0.73
	C222.97,54.37,223.44,54.27,223.92,54.27z M256.34,26.83c0-0.23,0.06-0.46,0.17-0.69c0.12-0.23,0.36-0.34,0.73-0.34h13.33
	c2.87,0,5.38,0.6,7.52,1.81c2.18,1.17,3.99,2.75,5.42,4.73c1.43,1.95,2.51,4.2,3.22,6.75c0.75,2.52,1.12,5.14,1.12,7.87
	c0,2.26-0.22,4.45-0.65,6.57c-0.4,2.1-1.09,3.96-2.06,5.59c-0.95,1.64-2.22,2.94-3.83,3.92c-1.58,0.97-3.54,1.46-5.89,1.46h-18.15
	c-0.37,0-0.62-0.11-0.73-0.34c-0.11-0.23-0.17-0.46-0.17-0.69c0-0.26,0.1-0.48,0.3-0.65c0.23-0.17,0.47-0.37,0.73-0.6
	c0.29-0.26,0.53-0.59,0.73-0.99c0.23-0.4,0.34-0.96,0.34-1.68v-4.38c0-2.01,0.21-3.63,0.65-4.86c0.46-1.23,1.03-2.21,1.72-2.92
	c0.69-0.72,1.42-1.25,2.19-1.6c0.77-0.34,1.51-0.61,2.19-0.81c0.69-0.23,1.25-0.46,1.68-0.69c0.46-0.23,0.69-0.59,0.69-1.08
	c0-0.43-0.23-0.7-0.69-0.81c-0.46-0.12-1.03-0.23-1.72-0.35c-0.66-0.14-1.39-0.35-2.19-0.64c-0.77-0.32-1.51-0.86-2.19-1.64
	c-0.66-0.77-1.22-1.87-1.68-3.31c-0.46-1.43-0.69-3.34-0.69-5.72c0-0.71-0.11-1.27-0.34-1.67c-0.2-0.4-0.44-0.72-0.73-0.95
	c-0.26-0.26-0.5-0.47-0.73-0.64C256.44,27.3,256.34,27.09,256.34,26.83z M267.48,32.12c0,1.52,0.04,2.77,0.13,3.74
	c0.12,0.95,0.24,1.72,0.39,2.32c0.17,0.58,0.34,1.05,0.52,1.42c0.17,0.35,0.33,0.68,0.47,0.99c0.17,0.32,0.3,0.68,0.39,1.08
	c0.12,0.37,0.17,0.89,0.17,1.54c0,0.61-0.06,1.09-0.17,1.47c-0.09,0.37-0.2,0.71-0.34,1.03c-0.14,0.29-0.32,0.62-0.52,0.99
	c-0.17,0.34-0.33,0.81-0.47,1.42c-0.14,0.57-0.27,1.32-0.39,2.23c-0.09,0.92-0.13,2.11-0.13,3.57c0,1.06,0.12,2.11,0.34,3.14
	c0.23,1.03,0.6,1.96,1.12,2.8c0.52,0.8,1.19,1.46,2.02,1.97c0.86,0.49,1.91,0.73,3.14,0.73c1.23,0,2.18-0.34,2.84-1.03
	c0.69-0.71,1.19-1.57,1.51-2.58c0.32-1,0.5-2.06,0.56-3.18c0.06-1.12,0.09-2.09,0.09-2.92c0-1.67-0.09-3.43-0.26-5.29
	c-0.14-1.89-0.37-3.77-0.69-5.64c-0.32-1.86-0.72-3.64-1.2-5.33c-0.49-1.72-1.06-3.22-1.72-4.51c-0.63-1.32-1.36-2.37-2.19-3.14
	c-0.8-0.8-1.69-1.21-2.67-1.21c-0.6,0-1.1,0.12-1.51,0.35c-0.37,0.23-0.67,0.54-0.9,0.94c-0.2,0.38-0.34,0.84-0.43,1.38
	C267.51,30.95,267.48,31.52,267.48,32.12z M290.18,51.51c0-1.89,0.34-3.62,1.03-5.2c0.69-1.58,1.62-2.92,2.79-4.04
	c1.17-1.12,2.55-1.99,4.13-2.62c1.6-0.63,3.33-0.95,5.16-0.95c1.2,0,2.39,0.11,3.57,0.34s2.22,0.63,3.14,1.21
	c0.95,0.54,1.71,1.29,2.28,2.23c0.57,0.92,0.86,2.08,0.86,3.49c0,1.37-0.22,2.52-0.65,3.44c-0.43,0.89-1,1.63-1.72,2.23
	c-0.69,0.58-1.49,1.03-2.41,1.38c-0.92,0.31-1.86,0.6-2.84,0.86c-0.97,0.23-1.93,0.46-2.88,0.69c-0.95,0.2-1.82,0.48-2.62,0.86
	c0.4,0.31,0.76,0.71,1.07,1.2c0.32,0.46,0.56,1.08,0.73,1.85c0.14,0.6,0.39,1.12,0.73,1.55c0.34,0.4,0.72,0.71,1.12,0.94
	c0.43,0.23,0.86,0.41,1.29,0.52c0.43,0.09,0.8,0.13,1.12,0.13c0.6,0,1.23-0.09,1.89-0.26c0.66-0.17,1.29-0.41,1.89-0.73
	c0.63-0.34,1.2-0.73,1.72-1.16c0.52-0.46,0.93-0.96,1.25-1.51c0.09-0.11,0.17-0.17,0.26-0.17c0.2,0,0.4,0.15,0.6,0.43
	c0.23,0.26,0.27,0.53,0.13,0.82c-0.89,1.95-2.25,3.42-4.09,4.43c-1.81,0.97-3.8,1.46-5.98,1.46c-2.24,0-4.2-0.39-5.89-1.16
	c-1.69-0.78-3.11-1.79-4.26-3.05c-1.12-1.27-1.98-2.7-2.58-4.3C290.47,54.81,290.18,53.18,290.18,51.51z M293.88,52.93
	c0.09,0.35,0.26,0.6,0.52,0.78c0.29,0.14,0.62,0.25,0.99,0.34c0.4,0.09,0.85,0.16,1.33,0.22c0.49,0.05,0.97,0.15,1.46,0.3
	c0.74-0.75,1.53-1.38,2.36-1.9c0.86-0.51,1.65-1.06,2.36-1.63c0.72-0.6,1.32-1.29,1.81-2.06c0.49-0.81,0.73-1.84,0.73-3.1
	c0-0.52-0.09-1.09-0.26-1.72c-0.14-0.66-0.37-1.27-0.69-1.85c-0.32-0.57-0.7-1.04-1.16-1.42c-0.46-0.4-1-0.6-1.63-0.6
	c-0.57,0-1.06,0.16-1.46,0.47c-0.4,0.32-0.72,0.72-0.95,1.21c-0.23,0.46-0.37,0.97-0.43,1.55c-0.06,0.54-0.04,1.04,0.04,1.5
	c0.2,0.98,0.2,1.81,0,2.49c-0.17,0.66-0.46,1.22-0.86,1.68s-0.86,0.85-1.38,1.16c-0.52,0.32-1,0.6-1.46,0.86
	c-0.43,0.26-0.79,0.52-1.08,0.78C293.88,52.24,293.79,52.56,293.88,52.93z M319.62,54.27c1.03,0,1.84,0.23,2.41,0.68
	c0.6,0.43,1.07,0.99,1.42,1.68c0.37,0.69,0.67,1.42,0.9,2.19c0.23,0.78,0.5,1.51,0.82,2.2c0.35,0.68,0.78,1.26,1.29,1.72
	c0.55,0.43,1.29,0.64,2.24,0.64c0.51,0,1.03-0.1,1.55-0.3c0.51-0.2,0.97-0.47,1.37-0.82c0.43-0.37,0.76-0.8,0.99-1.29
	c0.26-0.48,0.39-1,0.39-1.54c0-1.01-0.42-1.75-1.25-2.24c-0.83-0.52-1.88-0.95-3.14-1.29c-1.26-0.34-2.62-0.67-4.08-0.99
	c-1.46-0.31-2.82-0.76-4.08-1.33c-1.26-0.6-2.31-1.42-3.14-2.45c-0.83-1.06-1.25-2.48-1.25-4.26c0-1.43,0.32-2.65,0.95-3.66
	c0.66-1.03,1.49-1.87,2.49-2.53c1.03-0.69,2.18-1.19,3.44-1.51c1.26-0.31,2.49-0.47,3.69-0.47c1.87,0,3.59,0.1,5.16,0.3
	c1.61,0.2,3,0.57,4.18,1.12c1.2,0.51,2.13,1.23,2.79,2.15c0.69,0.92,1.03,2.09,1.03,3.52c0,0.52-0.11,0.99-0.34,1.42
	c-0.2,0.43-0.49,0.81-0.86,1.12c-0.35,0.32-0.75,0.58-1.21,0.78c-0.45,0.17-0.93,0.25-1.41,0.25c-1.04,0-1.85-0.21-2.46-0.64
	c-0.57-0.46-1.04-1.03-1.41-1.72c-0.38-0.69-0.69-1.42-0.95-2.19c-0.26-0.78-0.57-1.51-0.95-2.2c-0.37-0.69-0.86-1.24-1.46-1.67
	c-0.57-0.46-1.37-0.69-2.41-0.69c-0.51,0-1,0.11-1.46,0.34c-0.46,0.2-0.86,0.49-1.2,0.86c-0.34,0.35-0.62,0.76-0.82,1.25
	c-0.17,0.49-0.26,1-0.26,1.55c0,0.46,0.06,0.87,0.17,1.24c0.14,0.38,0.29,0.73,0.43,1.08c0.17,0.31,0.32,0.66,0.43,1.03
	c0.14,0.34,0.21,0.73,0.21,1.16c0,0.55-0.07,1.06-0.21,1.55c-0.11,0.46-0.23,0.87-0.34,1.25c-0.11,0.34-0.19,0.64-0.22,0.9
	c0,0.26,0.11,0.46,0.34,0.6c0.11,0.06,0.22,0.09,0.3,0.09c0.32,0,0.72-0.22,1.2-0.65c0.49-0.43,1.05-0.89,1.68-1.37
	c0.63-0.52,1.33-0.99,2.11-1.42c0.8-0.43,1.68-0.65,2.62-0.65c0.83,0,1.72,0.17,2.67,0.52c0.97,0.31,1.86,0.8,2.66,1.46
	c0.83,0.66,1.52,1.48,2.07,2.45c0.54,0.95,0.81,2.05,0.81,3.31c0,1.41-0.33,2.63-0.98,3.66c-0.64,1.03-1.47,1.88-2.5,2.53
	c-1,0.66-2.13,1.15-3.4,1.47c-1.26,0.31-2.49,0.47-3.69,0.47c-1.84,0-3.56-0.1-5.16-0.3c-1.61-0.2-3.01-0.56-4.21-1.08
	c-1.17-0.54-2.11-1.27-2.79-2.19c-0.66-0.92-0.99-2.09-0.99-3.53c0-0.51,0.1-0.98,0.3-1.41c0.23-0.43,0.52-0.81,0.86-1.12
	c0.37-0.32,0.79-0.56,1.25-0.73C318.66,54.37,319.14,54.27,319.62,54.27z M340.22,40.12c0-0.26,0.05-0.49,0.17-0.69
	c0.11-0.2,0.33-0.3,0.64-0.3c0.95,0,1.8-0.33,2.54-0.99c0.78-0.69,1.49-1.43,2.15-2.24c0.66-0.8,1.29-1.53,1.89-2.19
	c0.63-0.69,1.28-1.03,1.94-1.03c0.66,0,1.13,0.23,1.42,0.69c0.31,0.46,0.47,1.22,0.47,2.28v3.48h2.02c0.2,0,0.35,0.09,0.43,0.26
	c0.12,0.17,0.17,0.37,0.17,0.6c0,0.2-0.05,0.4-0.17,0.6c-0.08,0.17-0.23,0.26-0.43,0.26h-2.02v18.7c0,0.81,0.09,1.42,0.26,1.85
	c0.17,0.43,0.36,0.76,0.56,0.99c0.23,0.2,0.43,0.38,0.6,0.52c0.17,0.11,0.26,0.3,0.26,0.56c0,0.23-0.06,0.46-0.17,0.69
	c-0.12,0.23-0.36,0.34-0.74,0.34h-6.36c-0.31,0-0.66-0.06-1.03-0.17c-0.35-0.12-0.68-0.33-0.99-0.65c-0.29-0.34-0.53-0.8-0.73-1.37
	c-0.17-0.58-0.26-1.31-0.26-2.2v-2.28c0-1.06,0.16-1.9,0.47-2.53c0.35-0.66,0.76-1.18,1.25-1.55c0.49-0.4,1.02-0.7,1.59-0.9
	c0.57-0.2,1.11-0.39,1.59-0.56c0.49-0.17,0.89-0.37,1.21-0.6c0.34-0.23,0.51-0.55,0.51-0.95s-0.17-0.7-0.51-0.9
	c-0.32-0.2-0.72-0.38-1.21-0.52c-0.48-0.17-1.02-0.34-1.59-0.52c-0.57-0.2-1.1-0.47-1.59-0.81c-0.49-0.37-0.9-0.86-1.25-1.46
	c-0.31-0.63-0.47-1.45-0.47-2.46c0-0.94-0.14-1.6-0.43-1.97c-0.26-0.4-0.56-0.68-0.9-0.82c-0.32-0.17-0.62-0.3-0.91-0.39
	C340.35,40.78,340.22,40.52,340.22,40.12z M369.58,46.83c-0.06-0.23-0.1-0.45-0.13-0.65c0-0.23-0.02-0.47-0.05-0.73
	c-0.02-0.37-0.08-0.84-0.17-1.42c-0.06-0.6-0.18-1.17-0.38-1.72c-0.21-0.57-0.49-1.06-0.86-1.46c-0.35-0.43-0.82-0.64-1.42-0.64
	c-0.81,0-1.44,0.22-1.9,0.68c-0.43,0.46-0.78,1.03-1.07,1.72c-0.26,0.69-0.49,1.44-0.69,2.24c-0.17,0.77-0.43,1.5-0.77,2.19
	c-0.32,0.69-0.76,1.26-1.34,1.72c-0.57,0.46-1.36,0.69-2.36,0.69c-0.49,0-0.96-0.09-1.42-0.26c-0.46-0.2-0.87-0.46-1.25-0.77
	c-0.34-0.32-0.63-0.69-0.86-1.12c-0.2-0.43-0.3-0.9-0.3-1.42c0-1.43,0.42-2.61,1.25-3.53c0.86-0.94,1.92-1.69,3.18-2.23
	c1.29-0.55,2.67-0.92,4.13-1.12c1.46-0.2,2.81-0.3,4.04-0.3c1.21,0,2.41,0.1,3.61,0.3c1.24,0.2,2.35,0.57,3.36,1.12
	c1.03,0.54,1.89,1.27,2.58,2.19c0.69,0.92,1.1,2.09,1.24,3.53l1.29,13.71c0.09,0.81,0.22,1.42,0.39,1.85
	c0.17,0.43,0.36,0.76,0.56,0.99c0.2,0.2,0.37,0.38,0.52,0.52c0.14,0.11,0.21,0.3,0.21,0.56c0,0.23-0.06,0.46-0.17,0.69
	c-0.12,0.23-0.36,0.34-0.73,0.34h-6.37c-0.31,0-0.64-0.06-0.98-0.17c-0.32-0.12-0.62-0.33-0.91-0.65c-0.26-0.31-0.49-0.74-0.69-1.29
	c-0.2-0.57-0.34-1.29-0.43-2.15c-1.31,1.52-2.82,2.68-4.51,3.49c-1.66,0.8-3.41,1.2-5.25,1.2c-0.97,0-1.87-0.11-2.71-0.34
	c-0.83-0.23-1.56-0.58-2.19-1.04c-0.6-0.48-1.09-1.09-1.46-1.8c-0.34-0.72-0.52-1.58-0.52-2.58c0-1.49,0.29-2.73,0.86-3.7
	c0.61-1,1.36-1.85,2.28-2.54c0.95-0.71,1.99-1.3,3.14-1.76c1.15-0.49,2.29-0.95,3.44-1.38c1.18-0.43,2.27-0.86,3.27-1.29
	C368.07,48.05,368.92,47.49,369.58,46.83z M363.04,57.19c0,1.26,0.3,2.21,0.9,2.84c0.63,0.6,1.36,0.9,2.2,0.9
	c0.45,0,0.9-0.09,1.33-0.26c0.46-0.2,0.87-0.44,1.25-0.73c0.4-0.31,0.77-0.64,1.11-0.99c0.38-0.37,0.71-0.73,0.99-1.07
	c0.26-0.98,0.72-1.71,1.38-2.2c0.66-0.51,1.33-0.93,2.02-1.24c0.69-0.32,1.28-0.6,1.76-0.86c0.52-0.29,0.75-0.69,0.69-1.21
	c-0.03-0.34-0.17-0.57-0.43-0.68c-0.26-0.15-0.59-0.25-0.99-0.31c-0.4-0.05-0.84-0.1-1.33-0.12c-0.46-0.06-0.93-0.18-1.42-0.35
	c-0.49-0.17-0.95-0.44-1.38-0.82c-0.43-0.37-0.78-0.91-1.07-1.63c-0.69,0.89-1.45,1.66-2.28,2.32c-0.8,0.66-1.56,1.31-2.28,1.94
	c-0.69,0.6-1.27,1.24-1.76,1.93C363.27,55.34,363.04,56.19,363.04,57.19z M380.97,51.51c0-1.89,0.34-3.62,1.03-5.2
	c0.69-1.58,1.62-2.92,2.8-4.04c1.17-1.12,2.55-1.99,4.13-2.62c1.6-0.63,3.32-0.95,5.16-0.95c1.08,0,2.23,0.13,3.44,0.39
	c1.2,0.23,2.3,0.63,3.31,1.2c1.03,0.55,1.87,1.28,2.53,2.19c0.69,0.89,1.04,2,1.04,3.31c0,0.52-0.12,0.99-0.35,1.42
	c-0.2,0.43-0.49,0.81-0.86,1.12c-0.34,0.32-0.74,0.58-1.2,0.78c-0.46,0.17-0.93,0.25-1.42,0.25c-0.95,0-1.72-0.21-2.32-0.64
	c-0.58-0.46-1.06-1.02-1.47-1.68c-0.37-0.69-0.7-1.42-0.98-2.19c-0.26-0.8-0.54-1.53-0.82-2.19c-0.29-0.69-0.63-1.25-1.03-1.68
	c-0.41-0.46-0.94-0.69-1.59-0.69c-0.58,0-1.07,0.16-1.47,0.47c-0.37,0.32-0.67,0.72-0.9,1.21c-0.2,0.46-0.33,0.97-0.39,1.55
	c-0.05,0.54-0.03,1.04,0.09,1.5c0.23,0.98,0.24,1.81,0.04,2.49c-0.17,0.66-0.46,1.22-0.86,1.68s-0.86,0.85-1.37,1.16
	c-0.52,0.32-1.01,0.6-1.47,0.86c-0.45,0.26-0.83,0.52-1.11,0.78c-0.26,0.25-0.35,0.57-0.26,0.94c0.08,0.4,0.31,0.69,0.69,0.86
	c0.37,0.15,0.81,0.26,1.33,0.35c0.52,0.08,1.07,0.18,1.68,0.3c0.63,0.08,1.21,0.27,1.76,0.56c0.57,0.25,1.07,0.66,1.5,1.2
	c0.46,0.55,0.79,1.31,0.99,2.28c0.15,0.6,0.38,1.12,0.69,1.55c0.35,0.4,0.72,0.71,1.12,0.94c0.43,0.23,0.86,0.41,1.29,0.52
	c0.46,0.09,0.84,0.13,1.16,0.13c0.6,0,1.23-0.09,1.89-0.26c0.66-0.17,1.29-0.41,1.89-0.73c0.63-0.34,1.21-0.73,1.72-1.16
	c0.52-0.46,0.94-0.96,1.25-1.51c0.09-0.11,0.17-0.17,0.26-0.17c0.2,0,0.4,0.15,0.6,0.43c0.23,0.26,0.27,0.53,0.13,0.82
	c-0.89,1.95-2.25,3.42-4.08,4.43c-1.81,0.97-3.8,1.46-5.98,1.46c-2.24,0-4.2-0.39-5.89-1.16c-1.69-0.78-3.11-1.79-4.26-3.05
	c-1.12-1.27-1.98-2.7-2.58-4.3C381.26,54.81,380.97,53.18,380.97,51.51z M421.52,46.83c-0.06-0.23-0.1-0.45-0.13-0.65
	c0-0.23-0.01-0.47-0.04-0.73c-0.03-0.37-0.09-0.84-0.17-1.42c-0.06-0.6-0.19-1.17-0.39-1.72c-0.2-0.57-0.49-1.06-0.86-1.46
	c-0.34-0.43-0.82-0.64-1.42-0.64c-0.8,0-1.43,0.22-1.89,0.68c-0.43,0.46-0.79,1.03-1.08,1.72c-0.25,0.69-0.48,1.44-0.68,2.24
	c-0.18,0.77-0.43,1.5-0.78,2.19c-0.31,0.69-0.76,1.26-1.33,1.72s-1.36,0.69-2.37,0.69c-0.48,0-0.96-0.09-1.42-0.26
	c-0.45-0.2-0.87-0.46-1.24-0.77c-0.35-0.32-0.63-0.69-0.86-1.12c-0.2-0.43-0.3-0.9-0.3-1.42c0-1.43,0.41-2.61,1.24-3.53
	c0.86-0.94,1.92-1.69,3.19-2.23c1.29-0.55,2.66-0.92,4.12-1.12c1.47-0.2,2.81-0.3,4.05-0.3c1.2,0,2.4,0.1,3.61,0.3
	c1.23,0.2,2.35,0.57,3.35,1.12c1.03,0.54,1.89,1.27,2.58,2.19c0.69,0.92,1.11,2.09,1.25,3.53l1.29,13.71
	c0.08,0.81,0.21,1.42,0.39,1.85c0.17,0.43,0.35,0.76,0.55,0.99c0.21,0.2,0.38,0.38,0.52,0.52c0.14,0.11,0.22,0.3,0.22,0.56
	c0,0.23-0.06,0.46-0.18,0.69c-0.11,0.23-0.35,0.34-0.73,0.34h-6.36c-0.32,0-0.65-0.06-0.99-0.17c-0.32-0.12-0.62-0.33-0.9-0.65
	c-0.26-0.31-0.49-0.74-0.69-1.29c-0.2-0.57-0.35-1.29-0.43-2.15c-1.32,1.52-2.83,2.68-4.52,3.49c-1.66,0.8-3.41,1.2-5.24,1.2
	c-0.98,0-1.88-0.11-2.71-0.34c-0.83-0.23-1.56-0.58-2.19-1.04c-0.61-0.48-1.09-1.09-1.47-1.8c-0.34-0.72-0.51-1.58-0.51-2.58
	c0-1.49,0.28-2.73,0.86-3.7c0.6-1,1.36-1.85,2.28-2.54c0.94-0.71,1.99-1.3,3.14-1.76c1.14-0.49,2.29-0.95,3.44-1.38
	c1.17-0.43,2.26-0.86,3.26-1.29C420.02,48.05,420.86,47.49,421.52,46.83z M414.98,57.19c0,1.26,0.31,2.21,0.91,2.84
	c0.63,0.6,1.36,0.9,2.19,0.9c0.46,0,0.9-0.09,1.33-0.26c0.46-0.2,0.88-0.44,1.25-0.73c0.4-0.31,0.77-0.64,1.12-0.99
	c0.37-0.37,0.7-0.73,0.99-1.07c0.26-0.98,0.71-1.71,1.37-2.2c0.66-0.51,1.34-0.93,2.02-1.24c0.69-0.32,1.28-0.6,1.77-0.86
	c0.51-0.29,0.74-0.69,0.69-1.21c-0.03-0.34-0.18-0.57-0.43-0.68c-0.26-0.15-0.59-0.25-0.99-0.31c-0.4-0.05-0.85-0.1-1.34-0.12
	c-0.46-0.06-0.93-0.18-1.42-0.35c-0.48-0.17-0.94-0.44-1.37-0.82c-0.43-0.37-0.79-0.91-1.08-1.63c-0.68,0.89-1.44,1.66-2.28,2.32
	c-0.8,0.66-1.56,1.31-2.27,1.94c-0.69,0.6-1.28,1.24-1.77,1.93C415.21,55.34,414.98,56.19,414.98,57.19z M446.07,38.7
	c2.12,0,4.1,0.46,5.94,1.38v-5.04c0-0.91-0.19-1.63-0.56-2.15c-0.38-0.54-0.68-0.93-0.91-1.16c-0.17-0.17-0.25-0.38-0.25-0.64
	s0.08-0.46,0.25-0.6c0.21-0.15,0.64-0.36,1.29-0.65c0.66-0.28,1.39-0.56,2.2-0.82c0.8-0.28,1.59-0.53,2.36-0.73
	c0.81-0.23,1.44-0.34,1.89-0.34c0.89,0,1.5,0.23,1.81,0.69c0.34,0.46,0.52,1.22,0.52,2.28v6.62c0,1.37-0.18,2.46-0.52,3.27
	c-0.31,0.8-0.72,1.42-1.2,1.85c-0.49,0.43-1.02,0.73-1.59,0.9c-0.58,0.14-1.11,0.27-1.6,0.39c-0.48,0.08-0.9,0.21-1.24,0.38
	c-0.32,0.15-0.48,0.42-0.48,0.82c0,0.4,0.16,0.72,0.48,0.95c0.34,0.23,0.76,0.43,1.24,0.6c0.49,0.17,1.02,0.36,1.6,0.56
	c0.57,0.2,1.1,0.5,1.59,0.9c0.48,0.37,0.89,0.89,1.2,1.55c0.34,0.63,0.52,1.47,0.52,2.53v7.31c0,0.81,0.08,1.42,0.25,1.85
	c0.18,0.43,0.36,0.76,0.56,0.99c0.23,0.2,0.43,0.38,0.61,0.52c0.17,0.11,0.25,0.3,0.25,0.56c0,0.23-0.05,0.46-0.17,0.69
	c-0.11,0.23-0.36,0.34-0.73,0.34h-6.36c-0.49,0-0.98-0.14-1.47-0.43c-0.45-0.29-0.83-0.86-1.11-1.72c-0.61,0.92-1.42,1.58-2.45,1.98
	c-1.01,0.4-2.17,0.6-3.49,0.6c-2.29,0-4.3-0.36-6.02-1.08c-1.69-0.74-3.09-1.72-4.21-2.92s-1.97-2.56-2.54-4.08
	c-0.54-1.55-0.82-3.13-0.82-4.73c0-1.67,0.29-3.3,0.86-4.91c0.58-1.6,1.42-3.03,2.54-4.3c1.12-1.26,2.5-2.28,4.13-3.05
	C442.07,39.09,443.95,38.7,446.07,38.7z M447.41,63.38c0.86,0,1.56-0.16,2.1-0.47c0.58-0.35,1.02-0.79,1.34-1.33
	c0.34-0.55,0.57-1.15,0.68-1.81c0.15-0.69,0.22-1.39,0.22-2.11c0-0.86-0.06-1.89-0.17-3.09c-0.09-1.21-0.25-2.45-0.48-3.74
	c-0.2-1.29-0.47-2.57-0.81-3.83c-0.32-1.26-0.71-2.39-1.16-3.4c-0.46-1-1.01-1.8-1.64-2.41c-0.6-0.63-1.27-0.94-2.02-0.94
	c-0.86,0-1.58,0.17-2.15,0.51c-0.54,0.32-0.99,0.75-1.33,1.29c-0.32,0.52-0.55,1.12-0.69,1.81c-0.12,0.69-0.17,1.39-0.17,2.11
	c0,0.86,0.05,1.89,0.17,3.09c0.14,1.21,0.33,2.45,0.56,3.74c0.26,1.29,0.56,2.57,0.9,3.83c0.37,1.26,0.79,2.39,1.25,3.4
	c0.46,1,0.97,1.82,1.55,2.45C446.13,63.08,446.75,63.38,447.41,63.38z M463.57,51.51c0-1.6,0.27-3.16,0.82-4.68
	c0.57-1.55,1.41-2.93,2.53-4.13c1.12-1.21,2.53-2.17,4.22-2.88c1.72-0.75,3.72-1.12,6.02-1.12c2.29,0,4.28,0.37,5.97,1.12
	c1.72,0.71,3.14,1.67,4.26,2.88c1.12,1.2,1.95,2.58,2.49,4.13c0.58,1.52,0.86,3.08,0.86,4.68c0,1.67-0.3,3.3-0.9,4.91
	c-0.57,1.6-1.43,3.03-2.58,4.3c-1.12,1.26-2.52,2.27-4.21,3.05c-1.69,0.77-3.66,1.16-5.89,1.16c-2.24,0-4.2-0.39-5.89-1.16
	c-1.7-0.78-3.11-1.79-4.26-3.05c-1.12-1.27-1.98-2.7-2.58-4.3C463.86,54.81,463.57,53.18,463.57,51.51z M468.38,54.09
	c0.09,0.32,0.26,0.52,0.52,0.61c0.29,0.08,0.63,0.12,1.03,0.12h0.86c0.43,0,0.89,0.05,1.38,0.13c0.49,0.09,0.94,0.29,1.37,0.61
	c0.46,0.31,0.88,0.78,1.25,1.41c0.37,0.64,0.68,1.5,0.9,2.58c0.26,1.38,0.69,2.36,1.29,2.93c0.64,0.54,1.45,0.82,2.46,0.82
	c0.48,0,0.94-0.18,1.37-0.52c0.43-0.37,0.79-0.85,1.08-1.42c0.28-0.57,0.47-1.22,0.56-1.93c0.11-0.75,0.08-1.51-0.09-2.28
	c-0.2-0.95-0.22-1.74-0.04-2.37c0.17-0.66,0.43-1.2,0.77-1.63c0.37-0.46,0.8-0.83,1.29-1.12c0.49-0.32,0.93-0.59,1.33-0.82
	c0.41-0.26,0.72-0.51,0.95-0.77c0.26-0.26,0.34-0.57,0.26-0.95c-0.09-0.31-0.27-0.51-0.56-0.6c-0.26-0.09-0.59-0.13-0.99-0.13h-0.86
	c-0.43,0-0.89-0.04-1.38-0.13c-0.48-0.08-0.96-0.28-1.42-0.6c-0.43-0.31-0.83-0.79-1.2-1.42c-0.37-0.63-0.67-1.49-0.9-2.58
	c-0.29-1.37-0.75-2.33-1.38-2.88c-0.6-0.57-1.4-0.86-2.41-0.86c-0.48,0-0.94,0.19-1.37,0.56c-0.43,0.34-0.79,0.8-1.08,1.38
	c-0.28,0.57-0.48,1.23-0.6,1.97c-0.09,0.72-0.04,1.47,0.13,2.24c0.2,0.95,0.21,1.75,0.04,2.41c-0.17,0.63-0.44,1.17-0.81,1.63
	c-0.35,0.43-0.76,0.8-1.25,1.12c-0.46,0.29-0.89,0.56-1.29,0.82c-0.4,0.23-0.73,0.47-0.99,0.73
	C468.37,53.41,468.3,53.72,468.38,54.09z M496.5,54.27c1.03,0,1.83,0.23,2.4,0.68c0.61,0.43,1.08,0.99,1.42,1.68
	c0.38,0.69,0.68,1.42,0.91,2.19c0.23,0.78,0.5,1.51,0.81,2.2c0.35,0.68,0.78,1.26,1.29,1.72c0.55,0.43,1.29,0.64,2.24,0.64
	c0.52,0,1.03-0.1,1.55-0.3c0.51-0.2,0.97-0.47,1.37-0.82c0.43-0.37,0.76-0.8,0.99-1.29c0.26-0.48,0.39-1,0.39-1.54
	c0-1.01-0.42-1.75-1.25-2.24c-0.83-0.52-1.88-0.95-3.14-1.29c-1.26-0.34-2.62-0.67-4.08-0.99c-1.46-0.31-2.83-0.76-4.09-1.33
	c-1.26-0.6-2.3-1.42-3.14-2.45c-0.83-1.06-1.24-2.48-1.24-4.26c0-1.43,0.31-2.65,0.94-3.66c0.66-1.03,1.49-1.87,2.5-2.53
	c1.03-0.69,2.18-1.19,3.44-1.51c1.26-0.31,2.49-0.47,3.7-0.47c1.86,0,3.58,0.1,5.16,0.3c1.6,0.2,2.99,0.57,4.17,1.12
	c1.2,0.51,2.13,1.23,2.79,2.15c0.69,0.92,1.03,2.09,1.03,3.52c0,0.52-0.11,0.99-0.34,1.42c-0.2,0.43-0.49,0.81-0.86,1.12
	c-0.34,0.32-0.75,0.58-1.2,0.78c-0.46,0.17-0.94,0.25-1.42,0.25c-1.04,0-1.85-0.21-2.45-0.64c-0.58-0.46-1.05-1.03-1.42-1.72
	c-0.38-0.69-0.69-1.42-0.95-2.19c-0.26-0.78-0.57-1.51-0.95-2.2c-0.37-0.69-0.86-1.24-1.46-1.67c-0.57-0.46-1.37-0.69-2.41-0.69
	c-0.51,0-1,0.11-1.46,0.34c-0.46,0.2-0.86,0.49-1.2,0.86c-0.35,0.35-0.62,0.76-0.82,1.25c-0.17,0.49-0.26,1-0.26,1.55
	c0,0.46,0.06,0.87,0.18,1.24c0.14,0.38,0.28,0.73,0.43,1.08c0.17,0.31,0.31,0.66,0.43,1.03c0.14,0.34,0.21,0.73,0.21,1.16
	c0,0.55-0.07,1.06-0.21,1.55c-0.12,0.46-0.23,0.87-0.35,1.25c-0.11,0.34-0.18,0.64-0.21,0.9c0,0.26,0.11,0.46,0.34,0.6
	c0.12,0.06,0.22,0.09,0.3,0.09c0.32,0,0.72-0.22,1.21-0.65c0.48-0.43,1.04-0.89,1.67-1.37c0.63-0.52,1.34-0.99,2.11-1.42
	c0.8-0.43,1.68-0.65,2.62-0.65c0.83,0,1.72,0.17,2.67,0.52c0.97,0.31,1.86,0.8,2.66,1.46c0.84,0.66,1.52,1.48,2.07,2.45
	c0.54,0.95,0.82,2.05,0.82,3.31c0,1.41-0.33,2.63-0.99,3.66c-0.63,1.03-1.47,1.88-2.5,2.53c-1,0.66-2.13,1.15-3.39,1.47
	c-1.27,0.31-2.5,0.47-3.7,0.47c-1.84,0-3.56-0.1-5.16-0.3c-1.61-0.2-3.01-0.56-4.22-1.08c-1.17-0.54-2.1-1.27-2.79-2.19
	c-0.66-0.92-0.99-2.09-0.99-3.53c0-0.51,0.1-0.98,0.3-1.41c0.23-0.43,0.52-0.81,0.86-1.12c0.37-0.32,0.79-0.56,1.25-0.73
	C495.54,54.37,496.01,54.27,496.5,54.27z"/>
</svg>
