<svg width="61" height="61" viewBox="0 0 61 61" fill="none" xmlns="http://www.w3.org/2000/svg">
<path d="M30.1171 60.2265C46.6328 60.2265 60.0214 46.9177 60.0214 30.5005C60.0214 14.0833 46.6328 0.774536 30.1171 0.774536C13.6015 0.774536 0.212891 14.0833 0.212891 30.5005C0.212891 46.9177 13.6015 60.2265 30.1171 60.2265Z" fill="#8E0001"/>
<path d="M18.3242 33.0265C19.0514 32.9622 19.6736 32.91 20.6997 32.8217C17.9727 31.4081 16.385 29.5848 16.183 26.605C17.0678 26.8058 17.8515 26.9825 19.0433 27.2516C16.3002 24.6533 15.3023 22.0028 17.0435 18.5009C20.7967 22.1353 24.76 25.091 30.311 25.095C30.2382 22.557 30.7836 20.3201 32.836 18.7739C34.9206 17.2037 37.3891 16.5571 39.6353 17.9025C41.7523 19.1675 43.5138 19.3442 45.7883 18.1635C45.2065 19.0952 44.6248 20.0229 43.9299 21.1393C44.7783 20.9305 45.4651 20.7578 46.2691 20.557C46.2287 20.8462 46.2691 21.1032 46.1761 21.1674C43.6471 22.8622 43.736 25.5408 43.2754 28.1391C40.9241 41.4319 25.4912 46.4598 15.7144 40.5042C18.3485 39.8014 21.0351 39.0825 23.7217 38.3637C23.7257 38.1267 23.7338 37.8898 23.7378 37.6529C21.2613 36.8979 19.2575 35.6328 18.3242 33.0265Z" fill="white"/>
</svg>
