<svg width="61" height="61" viewBox="0 0 61 61" fill="none" xmlns="http://www.w3.org/2000/svg">
<path d="M30.3083 60.2265C46.824 60.2265 60.2126 46.9177 60.2126 30.5005C60.2126 14.0833 46.824 0.774536 30.3083 0.774536C13.7926 0.774536 0.404053 14.0833 0.404053 30.5005C0.404053 46.9177 13.7926 60.2265 30.3083 60.2265Z" fill="#8E0001"/>
<path d="M15.0451 45.3153C15.3239 43.1707 15.6996 41.219 15.7965 39.2512C15.8652 37.9018 15.8167 36.436 15.3562 35.1911C12.8473 28.4242 14.8835 20.814 20.483 16.5852C26.4501 12.0793 34.2231 11.983 40.1862 16.3403C45.923 20.5329 48.1975 28.115 45.725 34.7975C43.2162 41.5724 36.5784 45.8534 29.3145 45.3715C28.8458 45.3393 28.3408 45.3393 27.9247 45.1586C24.1796 43.5563 20.4345 44.3635 16.6853 45.1024C16.249 45.1908 15.7965 45.2189 15.0451 45.3153ZM18.4064 41.8093C19.279 41.725 19.877 41.733 20.4385 41.6005C22.4909 41.1186 24.3735 41.1588 26.4864 41.9017C32.3606 43.9739 38.7681 41.4238 41.9961 36.1027C45.2039 30.8177 44.3191 24.0709 39.8468 19.7257C35.4472 15.4527 28.7367 14.7018 23.5009 17.8984C18.1842 21.1433 15.5824 27.6451 17.857 33.3638C18.9599 36.1469 19.1255 38.709 18.4064 41.8093Z" fill="white"/>
<path d="M35.2452 37.5364C30.2154 36.5605 26.6642 34.1429 24.2523 30.1471C23.6019 29.0708 23.0969 27.87 22.7656 26.6612C22.5515 25.8741 22.5555 24.8942 22.8383 24.1392C23.3352 22.818 24.1513 21.4967 25.8764 21.7899C26.9187 21.9666 27.9368 25.4765 27.145 26.3761C26.1915 27.4644 26.4743 28.3318 27.2137 29.1993C28.2035 30.3639 29.2458 31.4964 30.3568 32.5446C31.585 33.7052 32.7566 34.2031 34.211 32.5566C35.5684 31.0225 36.5865 32.7654 37.5925 33.4241C38.7196 34.163 38.2106 35.0706 37.4753 35.7654C36.732 36.4681 35.8795 37.0424 35.2452 37.5364Z" fill="white"/>
</svg>
